<?xml version="1.0" encoding="UTF-8"?>
<!-- Created with Inkscape (http://www.inkscape.org/) -->
<svg id="svg2" width="682.67" height="682.67" version="1.1" viewBox="0 0 682.67 682.67" xmlns="http://www.w3.org/2000/svg">
 <defs id="defs6">
  <clipPath id="clipPath1482">
   <path id="path1480" d="m0 512h512v-512h-512z"/>
  </clipPath>
 </defs>
 <g id="g1474" transform="matrix(1.3333 0 0 -1.3333 5.4199e-5 682.67)">
  <g id="g1476">
   <g id="g1478" clip-path="url(#clipPath1482)">
    <g id="g1484" transform="translate(466.89 302.74)">
     <path id="path1486" d="m0 0c-3.533 3.533-10.697 4.193-14.143 0-14.507-17.657-27.385-37.926-45.909-51.775-8.589-6.421-18.589-11.224-29.315-11.512-12.031-0.323-23.005 3.627-32.623 10.759-11.118 8.243-19.878 19.62-28.577 30.247-3.424 4.181-10.591 3.552-14.143 0-4.136-4.136-3.432-9.95 0-14.142 18.002-21.99 37.499-43.609 67.504-46.579 28.612-2.833 52.178 14.863 70.13 35.216 9.53 10.805 17.935 22.52 27.076 33.644 3.426 4.169 4.081 10.061 0 14.142"/>
    </g>
    <g id="g1488" transform="translate(436.91 287.5)">
     <path id="path1490" d="m0 0 1.749-0.824c-16.75 8.257-6.761 38.172 1.787 42.777 11.575 5.242 9.625-15.833 9.625-15.833s8.363 11.538 23.801 20.278c18.382 10.407 13.736-4.137 13.736-4.137s7.362 5.852 14.154 1.289c5.076-4.487-2.033-9.861-2.033-9.861 3.517 1.141 10.811 2.761 11.639-2.368 0.78-4.833-4.156-8.517-7.058-11.03-4.045-3.505-8.297-6.734-12.627-9.876-1.252-0.908-3.721-2.14-4.346-3.674-9.161-22.471-26.641-19.73-26.641-19.73 0.302-2.384-0.147-6.206-1.412-7.239-1.954-1.595-4.703-1.789-6.993-0.729-4.963 2.3-15.872 7.587-20.008 11.458-5.43 5.081 4.627 9.499 4.627 9.499" fill="#fff"/>
    </g>
    <g id="g1492" transform="translate(436.91 287.5)">
     <path id="path1494" d="m0 0 1.749-0.824c-16.75 8.257-6.761 38.172 1.787 42.777 11.575 5.242 9.625-15.833 9.625-15.833s8.363 11.538 23.801 20.278c18.382 10.407 13.736-4.137 13.736-4.137s7.362 5.852 14.154 1.289c5.076-4.487-2.033-9.861-2.033-9.861 3.517 1.141 10.811 2.761 11.639-2.368 0.78-4.833-4.156-8.517-7.058-11.03-4.045-3.505-8.297-6.734-12.627-9.876-1.252-0.908-3.721-2.14-4.346-3.674-9.161-22.471-26.641-19.73-26.641-19.73 0.302-2.384-0.147-6.206-1.412-7.239-1.954-1.595-4.703-1.789-6.993-0.729-4.963 2.3-15.872 7.587-20.008 11.458-5.43 5.081 4.627 9.499 4.627 9.499z" fill="none" stroke="#000" stroke-miterlimit="10"/>
    </g>
    <g id="g1496" transform="translate(487.61 329.77)">
     <path id="path1498" d="m0 0-20.829-15.876" fill="none" stroke="#000" stroke-miterlimit="10"/>
    </g>
    <g id="g1500" transform="translate(499.73 321.19)">
     <path id="path1502" d="m0 0-21.984-16.608" fill="none" stroke="#000" stroke-miterlimit="10"/>
    </g>
    <g id="g1504" transform="translate(482.06 300.91)">
     <path id="path1506" d="m0 0-17.214 14.505" fill="none" stroke="#000" stroke-miterlimit="10"/>
    </g>
    <g id="g1508" transform="translate(450.07 313.62)">
     <path id="path1510" d="m0 0-0.961-3.704s15.515-0.401 12.66-14.069" fill="none" stroke="#000" stroke-miterlimit="10"/>
    </g>
    <g id="g1512" transform="translate(455.5 277.74)">
     <path id="path1514" d="m0 0 5.598-3.444" fill="none" stroke="#000" stroke-miterlimit="10"/>
    </g>
    <g id="g1516" transform="translate(211.54 309.49)">
     <path id="path1518" d="m0 0c-22.253-13.531-42.913-31.242-67.94-39.566-10.929-3.635-22.06-5.248-31.314-0.06-11.968 6.71-19.859 18.852-25.789 30.852-7.211 14.591-11.667 30.353-16.793 45.747-4.047 12.152-23.368 6.944-19.285-5.317 10.205-30.647 19.313-65.429 46.876-85.366 26.365-19.07 59.52-4.321 84.129 10.375 13.724 8.196 26.558 17.765 40.211 26.065 10.982 6.678 0.943 23.981-10.095 17.27"/>
    </g>
    <g id="g1520" transform="translate(71.931 336.66)">
     <path id="path1522" d="m0 0-1.817-0.658c17.443 6.665 10.277 37.379 2.193 42.758-11.037 6.294-11.054-14.87-11.054-14.87s-7.255 12.265-21.813 22.401c-17.336 12.07-14.062-2.843-14.062-2.843s-6.786 6.51-13.972 2.598c-5.471-3.996 1.107-10.007 1.107-10.007-3.395 1.463-10.507 3.753-11.808-1.276-1.226-4.74 3.347-8.866 6.001-11.639 3.703-3.865 7.637-7.475 11.656-11.006 1.162-1.02 3.506-2.477 3.986-4.061 7.034-23.226 24.693-22.12 24.693-22.12-0.522-2.345-0.429-6.194 0.734-7.339 1.798-1.77 4.516-2.218 6.894-1.375 5.156 1.828 16.509 6.079 20.987 9.549 5.878 4.555-3.725 9.888-3.725 9.888" fill="#fff"/>
    </g>
    <g id="g1524" transform="translate(71.931 336.66)">
     <path id="path1526" d="m0 0-1.817-0.658c17.443 6.665 10.277 37.379 2.193 42.758-11.037 6.294-11.054-14.87-11.054-14.87s-7.255 12.265-21.813 22.401c-17.336 12.07-14.062-2.843-14.062-2.843s-6.786 6.51-13.972 2.598c-5.471-3.996 1.107-10.007 1.107-10.007-3.395 1.463-10.507 3.753-11.808-1.276-1.226-4.74 3.347-8.866 6.001-11.639 3.703-3.865 7.637-7.475 11.656-11.006 1.162-1.02 3.506-2.477 3.986-4.061 7.034-23.226 24.693-22.12 24.693-22.12-0.522-2.345-0.429-6.194 0.734-7.339 1.798-1.77 4.516-2.218 6.894-1.375 5.156 1.828 16.509 6.079 20.987 9.549 5.878 4.555-3.725 9.888-3.725 9.888z" fill="none" stroke="#000" stroke-miterlimit="10"/>
    </g>
    <g id="g1528" transform="translate(25.378 383.45)">
     <path id="path1530" d="m0 0 19.264-17.743" fill="none" stroke="#000" stroke-miterlimit="10"/>
    </g>
    <g id="g1532" transform="translate(12.513 376.04)">
     <path id="path1534" d="m0 0 20.346-18.579" fill="none" stroke="#000" stroke-miterlimit="10"/>
    </g>
    <g id="g1536" transform="translate(28.228 354.21)">
     <path id="path1538" d="m0 0 18.486 12.843" fill="none" stroke="#000" stroke-miterlimit="10"/>
    </g>
    <g id="g1540" transform="translate(61.253 363.89)">
     <path id="path1542" d="m0 0 0.612-3.778s-15.485 1.043-13.912-12.832" fill="none" stroke="#000" stroke-miterlimit="10"/>
    </g>
    <g id="g1544" transform="translate(52.519 328.67)">
     <path id="path1546" d="m0 0-5.893-2.909" fill="none" stroke="#000" stroke-miterlimit="10"/>
    </g>
    <g id="g1548" transform="translate(193.14 219)">
     <path id="path1550" d="m0 0c-14.539-8.149-28.414-17.468-41.253-28.109-10.69-8.86-20.42-18.604-26.129-31.458-11.025-24.822-8.523-52.932-3.131-78.84 2.803-13.463 6.625-26.674 10.441-39.876 3.566-12.342 22.871-7.093 19.285 5.316-6.326 21.894-13.016 44.146-14.175 67.042-0.559 11.042 0.114 22.006 3.553 32.565 3.668 11.263 10.909 19.428 19.659 27.144 12.748 11.241 27.04 20.649 41.844 28.946 11.229 6.294 1.157 23.576-10.094 17.27"/>
    </g>
    <g id="g1552" transform="translate(164.21 49.828)">
     <path id="path1554" d="m0 0 0.096-34.269-80.435-2.71-36.422-1.23s-5.324 38.824 34.673 44.667c3.921 0.576 8.303 0.826 13.147 0.691-0.693 1.308-2.827 5.728-1.731 11.379 0.212 1.096 1.423 6.746 5.747 9.725 5.631 3.921 20.854 2.729 28.176-4.459l13.685 0.135s20.93 9.456 28.349-2.499c6.266-11.551-5.285-21.43-5.285-21.43" fill="#ff45b7"/>
    </g>
    <g id="g1556" transform="translate(164.21 49.828)">
     <path id="path1558" d="m0 0 0.096-34.269-80.435-2.71-36.422-1.23s-5.324 38.824 34.673 44.667c3.921 0.576 8.303 0.826 13.147 0.691-0.693 1.308-2.827 5.728-1.731 11.379 0.212 1.096 1.423 6.746 5.747 9.725 5.631 3.921 20.854 2.729 28.176-4.459l13.685 0.135s20.93 9.456 28.349-2.499c6.266-11.551-5.285-21.43-5.285-21.43z" fill="none" stroke="#000" stroke-miterlimit="10"/>
    </g>
    <g id="g1560" transform="translate(47.44 11.613)">
     <path id="path1562" d="m0 0c-0.481-0.459-2.487-2.475-2.686-5.721-0.237-3.887 2.307-6.415 2.686-6.779h117.36c0.669 0.762 2.998 3.598 3.107 7.909 0.118 4.703-2.491 7.835-3.107 8.536-39.12-1.315-78.239-2.63-117.36-3.945" fill="#fff"/>
    </g>
    <g id="g1564" transform="translate(47.44 11.613)">
     <path id="path1566" d="m0 0c-0.481-0.459-2.487-2.475-2.686-5.721-0.237-3.887 2.307-6.415 2.686-6.779h117.36c0.669 0.762 2.998 3.598 3.107 7.909 0.118 4.703-2.491 7.835-3.107 8.536-39.12-1.315-78.239-2.63-117.36-3.945z" fill="none" stroke="#000" stroke-miterlimit="10"/>
    </g>
    <g id="g1568" transform="translate(83.869 12.849)">
     <path id="path1570" d="m0 0-36.422-1.23s-5.324 38.824 34.673 44.667c4.094-7.208 7.899-20.719 1.749-43.437" fill="#fff"/>
    </g>
    <g id="g1572" transform="translate(83.869 12.849)">
     <path id="path1574" d="m0 0-36.422-1.23s-5.324 38.824 34.673 44.667c4.094-7.208 7.899-20.719 1.749-43.437z" fill="none" stroke="#000" stroke-miterlimit="10"/>
    </g>
    <g id="g1576" transform="translate(155.94 45.629)">
     <path id="path1578" d="m0 0c1.267 0.358 2.798 0.904 4.449 1.753 1.556 0.8 2.826 1.667 3.821 2.445" fill="none" stroke="#000" stroke-miterlimit="10"/>
    </g>
    <g id="g1580" transform="translate(95.267 56.977)">
     <path id="path1582" d="m0 0 24.514-6.808" fill="none" stroke="#000" stroke-miterlimit="10"/>
    </g>
    <g id="g1584" transform="translate(89.03 56.866)">
     <path id="path1586" d="m0 0 23.377-18.453" fill="none" stroke="#000" stroke-miterlimit="10"/>
    </g>
    <g id="g1588" transform="translate(124.76 49.595)">
     <path id="path1590" d="m0 0c0-1.473-1.193-2.667-2.666-2.667s-2.667 1.194-2.667 2.667 1.194 2.667 2.667 2.667 2.666-1.194 2.666-2.667" fill="#fff"/>
    </g>
    <g id="g1592" transform="translate(124.76 49.595)">
     <path id="path1594" d="m0 0c0-1.473-1.193-2.667-2.666-2.667s-2.667 1.194-2.667 2.667 1.194 2.667 2.667 2.667 2.666-1.194 2.666-2.667z" fill="none" stroke="#000" stroke-miterlimit="10"/>
    </g>
    <g id="g1596" transform="translate(116.97 36.912)">
     <path id="path1598" d="m0 0c0-1.473-1.193-2.667-2.666-2.667s-2.666 1.194-2.666 2.667 1.193 2.666 2.666 2.666 2.666-1.193 2.666-2.666" fill="#fff"/>
    </g>
    <g id="g1600" transform="translate(116.97 36.912)">
     <path id="path1602" d="m0 0c0-1.473-1.193-2.667-2.666-2.667s-2.666 1.194-2.666 2.667 1.193 2.666 2.666 2.666 2.666-1.193 2.666-2.666z" fill="none" stroke="#000" stroke-miterlimit="10"/>
    </g>
    <g id="g1604" transform="translate(244.16 201.6)">
     <path id="path1606" d="m0 0c15.961-4.799 31.528-10.884 46.37-18.485 12.359-6.328 23.972-13.729 32.335-25.036 16.149-21.838 19.809-49.82 20.167-76.282 0.187-13.75-0.677-27.476-1.536-41.192-0.803-12.821-20.787-11.887-19.98 1.004 1.424 22.746 3.124 45.918-0.714 68.521-1.851 10.9-4.887 21.455-10.536 31.016-6.025 10.2-14.866 16.599-25.082 22.231-14.883 8.206-30.877 14.288-47.129 19.174-12.328 3.707-6.247 22.763 6.105 19.049"/>
    </g>
    <g id="g1608" transform="translate(301.43 49.828)">
     <path id="path1610" d="m0 0-0.096-34.269 80.436-2.71 36.421-1.23s5.324 38.824-34.672 44.667c-3.921 0.576-8.304 0.826-13.147 0.691 0.692 1.308 2.826 5.728 1.73 11.379-0.212 1.096-1.422 6.746-5.747 9.725-5.631 3.921-20.854 2.729-28.176-4.459l-13.685 0.135s-20.93 9.456-28.349-2.499c-6.266-11.551 5.285-21.43 5.285-21.43" fill="#ff45b7"/>
    </g>
    <g id="g1612" transform="translate(301.43 49.828)">
     <path id="path1614" d="m0 0-0.096-34.269 80.436-2.71 36.421-1.23s5.324 38.824-34.672 44.667c-3.921 0.576-8.304 0.826-13.147 0.691 0.692 1.308 2.826 5.728 1.73 11.379-0.212 1.096-1.422 6.746-5.747 9.725-5.631 3.921-20.854 2.729-28.176-4.459l-13.685 0.135s-20.93 9.456-28.349-2.499c-6.266-11.551 5.285-21.43 5.285-21.43z" fill="none" stroke="#000" stroke-miterlimit="10"/>
    </g>
    <g id="g1616" transform="translate(418.2 11.613)">
     <path id="path1618" d="m0 0c0.481-0.459 2.487-2.475 2.686-5.721 0.237-3.887-2.307-6.415-2.686-6.779h-117.36c-0.669 0.762-2.998 3.598-3.107 7.909-0.118 4.703 2.492 7.835 3.107 8.536 39.12-1.315 78.24-2.63 117.36-3.945" fill="#fff"/>
    </g>
    <g id="g1620" transform="translate(418.2 11.613)">
     <path id="path1622" d="m0 0c0.481-0.459 2.487-2.475 2.686-5.721 0.237-3.887-2.307-6.415-2.686-6.779h-117.36c-0.669 0.762-2.998 3.598-3.107 7.909-0.118 4.703 2.492 7.835 3.107 8.536 39.12-1.315 78.24-2.63 117.36-3.945z" fill="none" stroke="#000" stroke-miterlimit="10"/>
    </g>
    <g id="g1624" transform="translate(381.77 12.849)">
     <path id="path1626" d="m0 0 36.421-1.23s5.324 38.824-34.672 44.667c-4.095-7.208-7.899-20.719-1.749-43.437" fill="#fff"/>
    </g>
    <g id="g1628" transform="translate(381.77 12.849)">
     <path id="path1630" d="m0 0 36.421-1.23s5.324 38.824-34.672 44.667c-4.095-7.208-7.899-20.719-1.749-43.437z" fill="none" stroke="#000" stroke-miterlimit="10"/>
    </g>
    <g id="g1632" transform="translate(309.7 45.629)">
     <path id="path1634" d="m0 0c-1.267 0.358-2.798 0.904-4.449 1.753-1.555 0.8-2.826 1.667-3.821 2.445" fill="none" stroke="#000" stroke-miterlimit="10"/>
    </g>
    <g id="g1636" transform="translate(370.37 56.977)">
     <path id="path1638" d="m0 0-24.515-6.808" fill="none" stroke="#000" stroke-miterlimit="10"/>
    </g>
    <g id="g1640" transform="translate(376.61 56.866)">
     <path id="path1642" d="m0 0-23.377-18.453" fill="none" stroke="#000" stroke-miterlimit="10"/>
    </g>
    <g id="g1644" transform="translate(340.88 49.595)">
     <path id="path1646" d="m0 0c0-1.473 1.194-2.667 2.667-2.667 1.472 0 2.666 1.194 2.666 2.667s-1.194 2.667-2.666 2.667c-1.473 0-2.667-1.194-2.667-2.667" fill="#fff"/>
    </g>
    <g id="g1648" transform="translate(340.88 49.595)">
     <path id="path1650" d="m0 0c0-1.473 1.194-2.667 2.667-2.667 1.472 0 2.666 1.194 2.666 2.667s-1.194 2.667-2.666 2.667c-1.473 0-2.667-1.194-2.667-2.667z" fill="none" stroke="#000" stroke-miterlimit="10"/>
    </g>
    <g id="g1652" transform="translate(348.66 36.912)">
     <path id="path1654" d="m0 0c0-1.473 1.193-2.667 2.666-2.667s2.667 1.194 2.667 2.667-1.194 2.666-2.667 2.666-2.666-1.193-2.666-2.666" fill="#fff"/>
    </g>
    <g id="g1656" transform="translate(348.66 36.912)">
     <path id="path1658" d="m0 0c0-1.473 1.193-2.667 2.666-2.667s2.667 1.194 2.667 2.667-1.194 2.666-2.667 2.666-2.666-1.193-2.666-2.666z" fill="none" stroke="#000" stroke-miterlimit="10"/>
    </g>
    <g id="g1660" transform="translate(281.73 507.67)">
     <path id="path1662" d="m0 0c-39.945-184.02-72.683-204.48-236.53-76.332 136.55-132.82 168.65-146.89-30.805-261.48 207.23 64.995 217.08 47.225 211.84-154.66 47.678 179.98 72.156 209.03 249.87 75.113-144.69 135.95-198.22 193.28 6.608 280.22-185.34-62.59-201.37-52.341-200.99 137.14" fill="#ffca42"/>
    </g>
    <g id="g1664" transform="translate(281.73 507.67)">
     <path id="path1666" d="m0 0c-39.945-184.02-72.683-204.48-236.53-76.332 136.55-132.82 168.65-146.89-30.805-261.48 207.23 64.995 217.08 47.225 211.84-154.66 47.678 179.98 72.156 209.03 249.87 75.113-144.69 135.95-198.22 193.28 6.608 280.22-185.34-62.59-201.37-52.341-200.99 137.14z" fill="none" stroke="#000" stroke-miterlimit="10"/>
    </g>
    <g id="g1668" transform="translate(278.14 269.84)">
     <path id="path1670" d="m0 0s-2.255-89.868-34.213-86.847c-36.374 3.438-19.624 91.937-19.624 91.937 4.443-2.852 13.811-8.025 26.837-9.137 12.427-1.06 22.136 2.092 27 4.047" fill="#fff"/>
    </g>
    <g id="g1672" transform="translate(278.14 269.84)">
     <path id="path1674" d="m0 0s-2.255-89.868-34.213-86.847c-36.374 3.438-19.624 91.937-19.624 91.937 4.443-2.852 13.811-8.025 26.837-9.137 12.427-1.06 22.136 2.092 27 4.047z" fill="none" stroke="#000" stroke-miterlimit="10"/>
    </g>
    <g id="g1676" transform="translate(261.15 265.81)">
     <path id="path1678" d="m0 0-3.691-40.08-3.716-40.407-6e-3 -0.036" fill="none" stroke="#000" stroke-miterlimit="10"/>
    </g>
    <g id="g1680" transform="translate(241.18 267.48)">
     <path id="path1682" d="m0 0-3.361-39.884-3.465-41.042" fill="none" stroke="#000" stroke-miterlimit="10"/>
    </g>
    <g id="g1684" transform="translate(272.83 224.29)">
     <path id="path1686" d="m0 0-15.369 1.442-19.633 1.863-17.316 1.654" fill="none" stroke="#000" stroke-miterlimit="10"/>
    </g>
    <g id="g1688" transform="translate(263.65 284.74)">
     <path id="path1690" d="m0 0c0.175-5.707-4.31-10.476-10.017-10.65-5.707-0.176-10.475 4.309-10.65 10.016s4.31 10.475 10.017 10.651c5.707 0.174 10.475-4.31 10.65-10.017" fill="#ff652d"/>
    </g>
    <g id="g1692" transform="translate(263.65 284.74)">
     <path id="path1694" d="m0 0c0.175-5.707-4.31-10.476-10.017-10.65-5.707-0.176-10.475 4.309-10.65 10.016s4.31 10.475 10.017 10.651c5.707 0.174 10.475-4.31 10.65-10.017z" fill="none" stroke="#000" stroke-miterlimit="10"/>
    </g>
    <g id="g1696" transform="translate(277.12 272.75)">
     <path id="path1698" d="m0 0c8.868 2.437 19.953 2.989 31.69 1.111 1.776-0.273 3.506-0.599 5.194-1.004 8.714-1.878 16.538-4.944 22.829-8.704 3.6 8.927 6.192 19.356 7.36 30.633 0.438 4.358 0.643 8.601 0.615 12.755-0.01 11.056-1.574 21.316-4.382 29.916-4.773 14.73-13.125 24.665-23.493 25.842-0.287 0.034-0.549 0.043-0.835 0.052-12.92 0.851-25.422-12.126-32.989-32.067-0.022-0.026-0.045-0.053-0.044-0.078-3.026-8.061-5.3-17.313-6.397-27.226-0.069-0.507-0.136-1.041-0.18-1.572-1.112-10.518-0.795-20.624 0.632-29.658" fill="#fff"/>
    </g>
    <g id="g1700" transform="translate(277.12 272.75)">
     <path id="path1702" d="m0 0c8.868 2.437 19.953 2.989 31.69 1.111 1.776-0.273 3.506-0.599 5.194-1.004 8.714-1.878 16.538-4.944 22.829-8.704 3.6 8.927 6.192 19.356 7.36 30.633 0.438 4.358 0.643 8.601 0.615 12.755-0.01 11.056-1.574 21.316-4.382 29.916-4.773 14.73-13.125 24.665-23.493 25.842-0.287 0.034-0.549 0.043-0.835 0.052-12.92 0.851-25.422-12.126-32.989-32.067-0.022-0.026-0.045-0.053-0.044-0.078-3.026-8.061-5.3-17.313-6.397-27.226-0.069-0.507-0.136-1.041-0.18-1.572-1.112-10.518-0.795-20.624 0.632-29.658z" fill="none" stroke="#000" stroke-miterlimit="10"/>
    </g>
    <g id="g1704" transform="translate(350.75 353.42)">
     <path id="path1706" d="m0 0s-0.48-12.423-10.313-15.967" fill="none" stroke="#000" stroke-miterlimit="10"/>
    </g>
    <g id="g1708" transform="translate(358.79 338.74)">
     <path id="path1710" d="m0 0s-3.625-13.097-14.966-13.174" fill="none" stroke="#000" stroke-miterlimit="10"/>
    </g>
    <g id="g1712" transform="translate(360.01 319.19)">
     <path id="path1714" d="m0 0s-3.817-11.327-15.186-11.646" fill="none" stroke="#000" stroke-miterlimit="10"/>
    </g>
    <g id="g1716" transform="translate(283.07 331.21)">
     <path id="path1718" d="m0 0c-1e-3 0.025 0.021 0.052 0.044 0.078 7.566 19.941 20.068 32.918 32.988 32.067 6.514-7.55 10.276-18.889 9.499-31.277-0.386-6.117-1.87-11.802-4.133-16.808l-15.744 7.021 9.977-16.313c-5.865-7.002-13.751-11.091-22.184-10.497-6.449 0.451-12.255 3.585-16.844 8.503 1.096 9.913 3.371 19.164 6.397 27.226"/>
    </g>
    <g id="g1720" transform="translate(283.07 331.21)">
     <path id="path1722" d="m0 0c-1e-3 0.025 0.021 0.052 0.044 0.078 7.566 19.941 20.068 32.918 32.988 32.067 6.514-7.55 10.276-18.889 9.499-31.277-0.386-6.117-1.87-11.802-4.133-16.808l-15.744 7.021 9.977-16.313c-5.865-7.002-13.751-11.091-22.184-10.497-6.449 0.451-12.255 3.585-16.844 8.503 1.096 9.913 3.371 19.164 6.397 27.226z" fill="none" stroke="#000" stroke-miterlimit="10"/>
    </g>
    <g id="g1724" transform="translate(286.57 331.5)">
     <path id="path1726" d="m0 0c15.666-6.105 9.882-7.873 8.618-27.213 5.865 18.366 2.625 21.507 19.304 20.765-15.665 6.106-11.603 7.312-10.34 26.653-5.864-18.366-0.902-20.947-17.582-20.205" fill="#fff"/>
    </g>
    <g id="g1728" transform="translate(167.22 282.67)">
     <path id="path1730" d="m0 0c0.022-0.111 0.019-0.221 0.068-0.305-3e-3 -0.083 0.021-0.166 0.044-0.249 0.042-0.304 0.111-0.609 0.178-0.914 1.29 0.475 2.603 0.896 3.993 1.285 0.736 0.222 1.496 0.441 2.282 0.633l0.027-1e-3c6.84 1.734 14.639 2.579 22.897 2.308 3.273-0.091 6.461-0.372 9.54-0.813 0.44-0.071 0.855-0.113 1.268-0.184 7.604-1.183 14.476-3.302 20.183-6.094 2.93 8.614 4.965 18.499 5.67 29.065 2.458 35.839-10.757 66.084-29.504 67.561-10.398 0.816-20.307-7.408-27.478-20.959 0 0-1e-3 -0.028-0.026-0.027-1.08-2.051-2.088-4.271-3.021-6.576-0.086-0.244-0.196-0.46-0.282-0.705-0.141-0.325-0.281-0.65-0.422-0.975-0.169-0.406-0.339-0.84-0.509-1.274-0.282-0.677-0.538-1.356-0.768-2.063-0.342-0.923-0.659-1.847-0.949-2.799-0.317-0.979-0.609-1.959-0.875-2.94-0.76-2.613-1.421-5.368-1.982-8.236-0.186-0.929-0.372-1.885-0.533-2.842-0.029-0.054-0.03-0.109-0.031-0.164-0.225-1.313-0.451-2.652-0.624-4.021-0.134-0.931-0.244-1.89-0.352-2.849-0.075-0.712-0.15-1.424-0.226-2.137-0.032-0.192-0.037-0.357-0.069-0.548-0.11-1.014-0.197-2.084-0.257-3.127-0.737-10.73-0.054-20.961 1.758-30.05" fill="#fff"/>
    </g>
    <g id="g1732" transform="translate(167.22 282.67)">
     <path id="path1734" d="m0 0c0.022-0.111 0.019-0.221 0.068-0.305-3e-3 -0.083 0.021-0.166 0.044-0.249 0.042-0.304 0.111-0.609 0.178-0.914 1.29 0.475 2.603 0.896 3.993 1.285 0.736 0.222 1.496 0.441 2.282 0.633l0.027-1e-3c6.84 1.734 14.639 2.579 22.897 2.308 3.273-0.091 6.461-0.372 9.54-0.813 0.44-0.071 0.855-0.113 1.268-0.184 7.604-1.183 14.476-3.302 20.183-6.094 2.93 8.614 4.965 18.499 5.67 29.065 2.458 35.839-10.757 66.084-29.504 67.561-10.398 0.816-20.307-7.408-27.478-20.959 0 0-1e-3 -0.028-0.026-0.027-1.08-2.051-2.088-4.271-3.021-6.576-0.086-0.244-0.196-0.46-0.282-0.705-0.141-0.325-0.281-0.65-0.422-0.975-0.169-0.406-0.339-0.84-0.509-1.274-0.282-0.677-0.538-1.356-0.768-2.063-0.342-0.923-0.659-1.847-0.949-2.799-0.317-0.979-0.609-1.959-0.875-2.94-0.76-2.613-1.421-5.368-1.982-8.236-0.186-0.929-0.372-1.885-0.533-2.842-0.029-0.054-0.03-0.109-0.031-0.164-0.225-1.313-0.451-2.652-0.624-4.021-0.134-0.931-0.244-1.89-0.352-2.849-0.075-0.712-0.15-1.424-0.226-2.137-0.032-0.192-0.037-0.357-0.069-0.548-0.11-1.014-0.197-2.084-0.257-3.127-0.737-10.73-0.054-20.961 1.758-30.05z" fill="none" stroke="#000" stroke-miterlimit="10"/>
    </g>
    <g id="g1736" transform="translate(168.92 371.65)">
     <path id="path1738" d="m0 0s-1.628-12.314 7.446-17.663" fill="none" stroke="#000" stroke-miterlimit="10"/>
    </g>
    <g id="g1740" transform="translate(158.52 358.73)">
     <path id="path1742" d="m0 0s1.352-13.572 12.496-15.795" fill="none" stroke="#000" stroke-miterlimit="10"/>
    </g>
    <g id="g1744" transform="translate(154.01 339.73)">
     <path id="path1746" d="m0 0s1.841-11.867 12.971-14.334" fill="none" stroke="#000" stroke-miterlimit="10"/>
    </g>
    <g id="g1748" transform="translate(171.7 341.84)">
     <path id="path1750" d="m0 0c-2e-3 0.025 0.021 0.052 0.042 0.079 7.203 20.09 19.468 33.319 32.401 32.731 6.65-7.416 10.617-18.677 10.065-31.078-0.277-6.124-1.655-11.838-3.828-16.89l-15.405 5.923 9.807-15.329c-5.736-7.121-13.547-11.368-21.989-10.946-6.456 0.32-12.318 3.336-16.996 8.159 0.917 9.934 3.023 19.229 5.903 27.351"/>
    </g>
    <g id="g1752" transform="translate(171.7 341.84)">
     <path id="path1754" d="m0 0c-2e-3 0.025 0.021 0.052 0.042 0.079 7.203 20.09 19.468 33.319 32.401 32.731 6.65-7.416 10.617-18.677 10.065-31.078-0.277-6.124-1.655-11.838-3.828-16.89l-15.405 5.923 9.807-15.329c-5.736-7.121-13.547-11.368-21.989-10.946-6.456 0.32-12.318 3.336-16.996 8.159 0.917 9.934 3.023 19.229 5.903 27.351z" fill="none" stroke="#000" stroke-miterlimit="10"/>
    </g>
    <g id="g1756" transform="translate(175.64 344.46)">
     <path id="path1758" d="m0 0c15.665-6.106 9.881-7.873 8.617-27.213 5.865 18.365 2.625 21.506 19.304 20.765-15.664 6.106-11.603 7.312-10.34 26.653-5.864-18.366-0.902-20.947-17.581-20.205" fill="#fff"/>
    </g>
    <g id="g1760" transform="translate(141.53 433.81)">
     <path id="path1762" d="m0 0 46.892-43.46" fill="none" stroke="#000" stroke-miterlimit="10"/>
    </g>
    <g id="g1764" transform="translate(189.57 464.69)">
     <path id="path1766" d="m0 0 19.442-58.328" fill="none" stroke="#000" stroke-miterlimit="10"/>
    </g>
    <g id="g1768" transform="translate(393.14 433.81)">
     <path id="path1770" d="m0 0-46.891-43.46" fill="none" stroke="#000" stroke-miterlimit="10"/>
    </g>
    <g id="g1772" transform="translate(345.11 464.69)">
     <path id="path1774" d="m0 0-19.443-58.328" fill="none" stroke="#000" stroke-miterlimit="10"/>
    </g>
    <g id="g1776" transform="translate(74.537 440.06)">
     <path id="path1778" d="m0 0 11.615-3.797 3.797 11.616 3.226-1.054-3.798-11.616 11.616-3.797-1.054-3.226-11.616 3.798-3.797-11.616-3.225 1.054 3.797 11.616-11.615 3.797z" fill="#00a3f7"/>
    </g>
    <g id="g1780" transform="translate(74.537 440.06)">
     <path id="path1782" d="m0 0 11.615-3.797 3.797 11.616 3.226-1.054-3.798-11.616 11.616-3.797-1.054-3.226-11.616 3.798-3.797-11.616-3.225 1.054 3.797 11.616-11.615 3.797z" fill="none" stroke="#00a3f7" stroke-miterlimit="10"/>
    </g>
    <g id="g1784" transform="translate(36.923 383.45)">
     <path id="path1786" d="m0 0 11.615-3.797 3.797 11.616 3.226-1.054-3.798-11.616 11.616-3.797-1.054-3.225-11.616 3.797-3.797-11.615-3.225 1.054 3.797 11.615-11.615 3.797z" fill="#00a3f7"/>
    </g>
    <g id="g1788" transform="translate(36.923 383.45)">
     <path id="path1790" d="m0 0 11.615-3.797 3.797 11.616 3.226-1.054-3.798-11.616 11.616-3.797-1.054-3.225-11.616 3.797-3.797-11.615-3.225 1.054 3.797 11.615-11.615 3.797z" fill="none" stroke="#00a3f7" stroke-miterlimit="10"/>
    </g>
    <g id="g1792" transform="translate(2.0469 487.74)">
     <path id="path1794" d="m0 0 11.615-3.797 3.797 11.616 3.226-1.054-3.797-11.616 11.616-3.797-1.055-3.225-11.616 3.797-3.797-11.615-3.224 1.054 3.797 11.615-11.616 3.797z" fill="#00a3f7"/>
    </g>
    <g id="g1796" transform="translate(2.0469 487.74)">
     <path id="path1798" d="m0 0 11.615-3.797 3.797 11.616 3.226-1.054-3.797-11.616 11.616-3.797-1.055-3.225-11.616 3.797-3.797-11.615-3.224 1.054 3.797 11.615-11.616 3.797z" fill="none" stroke="#00a3f7" stroke-miterlimit="10"/>
    </g>
    <g id="g1800" transform="translate(10.955 424.41)">
     <path id="path1802" d="m0 0 8.492 2.863-2.863 8.491 2.358 0.795 2.863-8.492 8.492 2.863 0.795-2.357-8.492-2.863 2.862-8.492-2.358-0.795-2.862 8.492-8.492-2.863z" fill="#00a3f7"/>
    </g>
    <g id="g1804" transform="translate(10.955 424.41)">
     <path id="path1806" d="m0 0 8.492 2.863-2.863 8.491 2.358 0.795 2.863-8.492 8.492 2.863 0.795-2.357-8.492-2.863 2.862-8.492-2.358-0.795-2.862 8.492-8.492-2.863z" fill="none" stroke="#00a3f7" stroke-miterlimit="10"/>
    </g>
    <g id="g1808" transform="translate(62.708 498.85)">
     <path id="path1810" d="m0 0 8.492 2.862-2.863 8.492 2.358 0.795 2.863-8.492 8.492 2.863 0.795-2.358-8.492-2.863 2.862-8.492-2.358-0.794-2.862 8.492-8.492-2.863z" fill="#00a3f7"/>
    </g>
    <g id="g1812" transform="translate(62.708 498.85)">
     <path id="path1814" d="m0 0 8.492 2.862-2.863 8.492 2.358 0.795 2.863-8.492 8.492 2.863 0.795-2.358-8.492-2.863 2.862-8.492-2.358-0.794-2.862 8.492-8.492-2.863z" fill="none" stroke="#00a3f7" stroke-miterlimit="10"/>
    </g>
    <g id="g1816" transform="translate(484.55 384.73)">
     <path id="path1818" d="m0 0 11.615-3.797 3.797 11.616 3.225-1.054-3.797-11.616 11.616-3.797-1.054-3.225-11.616 3.797-3.798-11.616-3.224 1.054 3.797 11.616-11.616 3.797z" fill="#00a3f7"/>
    </g>
    <g id="g1820" transform="translate(484.55 384.73)">
     <path id="path1822" d="m0 0 11.615-3.797 3.797 11.616 3.225-1.054-3.797-11.616 11.616-3.797-1.054-3.225-11.616 3.797-3.798-11.616-3.224 1.054 3.797 11.616-11.616 3.797z" fill="none" stroke="#00a3f7" stroke-miterlimit="10"/>
    </g>
    <g id="g1824" transform="translate(446.94 328.11)">
     <path id="path1826" d="m0 0 11.615-3.797 3.797 11.616 3.225-1.054-3.797-11.616 11.616-3.797-1.054-3.226-11.616 3.798-3.798-11.616-3.224 1.054 3.797 11.616-11.616 3.797z" fill="#00a3f7"/>
    </g>
    <g id="g1828" transform="translate(446.94 328.11)">
     <path id="path1830" d="m0 0 11.615-3.797 3.797 11.616 3.225-1.054-3.797-11.616 11.616-3.797-1.054-3.226-11.616 3.798-3.798-11.616-3.224 1.054 3.797 11.616-11.616 3.797z" fill="none" stroke="#00a3f7" stroke-miterlimit="10"/>
    </g>
    <g id="g1832" transform="translate(412.06 432.41)">
     <path id="path1834" d="m0 0 11.615-3.797 3.797 11.616 3.226-1.054-3.798-11.616 11.616-3.797-1.054-3.226-11.616 3.798-3.797-11.616-3.225 1.054 3.797 11.616-11.615 3.797z" fill="#00a3f7"/>
    </g>
    <g id="g1836" transform="translate(412.06 432.41)">
     <path id="path1838" d="m0 0 11.615-3.797 3.797 11.616 3.226-1.054-3.798-11.616 11.616-3.797-1.054-3.226-11.616 3.798-3.797-11.616-3.225 1.054 3.797 11.616-11.615 3.797z" fill="none" stroke="#00a3f7" stroke-miterlimit="10"/>
    </g>
    <g id="g1840" transform="translate(420.97 369.08)">
     <path id="path1842" d="m0 0 8.491 2.862-2.862 8.492 2.357 0.795 2.864-8.492 8.492 2.863 0.795-2.358-8.492-2.863 2.862-8.492-2.358-0.795-2.863 8.492-8.491-2.862z" fill="#00a3f7"/>
    </g>
    <g id="g1844" transform="translate(420.97 369.08)">
     <path id="path1846" d="m0 0 8.491 2.862-2.862 8.492 2.357 0.795 2.864-8.492 8.492 2.863 0.795-2.358-8.492-2.863 2.862-8.492-2.358-0.795-2.863 8.492-8.491-2.862z" fill="none" stroke="#00a3f7" stroke-miterlimit="10"/>
    </g>
    <g id="g1848" transform="translate(472.72 443.52)">
     <path id="path1850" d="m0 0 8.492 2.863-2.863 8.492 2.358 0.794 2.863-8.492 8.492 2.863 0.795-2.357-8.492-2.863 2.862-8.492-2.358-0.795-2.863 8.492-8.491-2.862z" fill="#00a3f7"/>
    </g>
    <g id="g1852" transform="translate(472.72 443.52)">
     <path id="path1854" d="m0 0 8.492 2.863-2.863 8.492 2.358 0.794 2.863-8.492 8.492 2.863 0.795-2.357-8.492-2.863 2.862-8.492-2.358-0.795-2.863 8.492-8.491-2.862z" fill="none" stroke="#00a3f7" stroke-miterlimit="10"/>
    </g>
   </g>
  </g>
 </g>
</svg>
