<?xml version="1.0" encoding="UTF-8"?>
<!-- Created with Inkscape (http://www.inkscape.org/) -->
<svg id="svg2" width="682.67" height="682.67" version="1.1" viewBox="0 0 682.67 682.67" xmlns="http://www.w3.org/2000/svg">
 <defs id="defs6">
  <clipPath id="clipPath1882">
   <path id="path1880" d="m0 512h512v-512h-512z"/>
  </clipPath>
 </defs>
 <g id="g1858" transform="matrix(1.3333 0 0 -1.3333 9.2275e-6 682.67)">
  <g id="g1860" transform="translate(28.911 396.71)">
   <path id="path1862" d="m0 0 53.028-32.963" fill="none" stroke="#000" stroke-miterlimit="10"/>
  </g>
  <g id="g1864" transform="translate(173.66 508.5)">
   <path id="path1866" d="m0 0 22.931-47.296" fill="none" stroke="#000" stroke-miterlimit="10"/>
  </g>
  <g id="g1868" transform="translate(368.58 507.07)">
   <path id="path1870" d="m0 0-21.498-48.729" fill="none" stroke="#000" stroke-miterlimit="10"/>
  </g>
  <g id="g1872" transform="translate(438.81 350.85)">
   <path id="path1874" d="m0 0 44.43 14.332" fill="none" stroke="#000" stroke-miterlimit="10"/>
  </g>
  <g id="g1876">
   <g id="g1878" clip-path="url(#clipPath1882)">
    <g id="g1884" transform="translate(205.3 231.5)">
     <path id="path1886" d="m0 0c-45.472-53.434-50.657-133.21-34.909-199.11 3.77-15.776 28.326-9.938 24.54 5.905-13.391 56.037-11.561 128.75 27.617 174.78 10.42 12.244-6.722 30.789-17.248 18.42"/>
    </g>
    <g id="g1888" transform="translate(205.3 231.5)">
     <path id="path1890" d="m0 0c-45.472-53.434-50.657-133.21-34.909-199.11 3.77-15.776 28.326-9.938 24.54 5.905-13.391 56.037-11.561 128.75 27.617 174.78 10.42 12.244-6.722 30.789-17.248 18.42z" fill="none" stroke="#000" stroke-miterlimit="10"/>
    </g>
    <g id="g1892" transform="translate(161.78 44.617)">
     <path id="path1894" d="m0 0 35.861 0.927 1.272-45.866-87.387-0.727-0.401 10.515s5.571 20.023 51.099 14.635z" fill="#163bdd"/>
    </g>
    <g id="g1896" transform="translate(161.78 44.617)">
     <path id="path1898" d="m0 0 35.861 0.927 1.272-45.866-87.387-0.727-0.401 10.515s5.571 20.023 51.099 14.635z" fill="none" stroke="#000" stroke-miterlimit="10"/>
    </g>
    <g id="g1900" transform="translate(136.3 24.266)">
     <path id="path1902" d="m0 0c-21.896-3.1-25.177-14.8-25.177-14.8l0.4-10.514 31.3 0.264c-0.899 8.626-2.854 17.021-6.523 25.05" fill="#fff"/>
    </g>
    <g id="g1904" transform="translate(136.3 24.266)">
     <path id="path1906" d="m0 0c-21.896-3.1-25.177-14.8-25.177-14.8l0.4-10.514 31.3 0.264c-0.899 8.626-2.854 17.021-6.523 25.05z" fill="none" stroke="#000" stroke-miterlimit="10"/>
    </g>
    <g id="g1908" transform="translate(198.52 10.844)">
     <path id="path1910" d="m0 0-87.395-1.378 0.4-10.515 87.456 0.727z" fill="#fff"/>
    </g>
    <g id="g1912" transform="translate(198.52 10.844)">
     <path id="path1914" d="m0 0-87.395-1.378 0.4-10.515 87.456 0.727z" fill="none" stroke="#000" stroke-miterlimit="10"/>
    </g>
    <g id="g1916" transform="translate(162.47 36.452)">
     <path id="path1918" d="m0 0-0.025 1.084 15.546 0.386 0.026-1.085z" fill="#fff"/>
    </g>
    <g id="g1920" transform="translate(162.66 28.477)">
     <path id="path1922" d="m0 0-0.028 1.084 15.414 0.391 0.028-1.085z" fill="#fff"/>
    </g>
    <g id="g1924" transform="translate(179.82 37.471)">
     <path id="path1926" d="m0 0c0-0.521-0.422-0.942-0.942-0.942-0.521 0-0.943 0.421-0.943 0.942s0.422 0.942 0.943 0.942c0.52 0 0.942-0.421 0.942-0.942" fill="#fff"/>
    </g>
    <g id="g1928" transform="translate(179.82 37.471)">
     <path id="path1930" d="m0 0c0-0.521-0.422-0.942-0.942-0.942-0.521 0-0.943 0.421-0.943 0.942s0.422 0.942 0.943 0.942c0.52 0 0.942-0.421 0.942-0.942z" fill="none" stroke="#fff" stroke-miterlimit="10"/>
    </g>
    <g id="g1932" transform="translate(179.88 29.442)">
     <path id="path1934" d="m0 0c0-0.521-0.422-0.942-0.942-0.942-0.521 0-0.943 0.421-0.943 0.942s0.422 0.942 0.943 0.942c0.52 0 0.942-0.421 0.942-0.942" fill="#fff"/>
    </g>
    <g id="g1936" transform="translate(179.88 29.442)">
     <path id="path1938" d="m0 0c0-0.521-0.422-0.942-0.942-0.942-0.521 0-0.943 0.421-0.943 0.942s0.422 0.942 0.943 0.942c0.52 0 0.942-0.421 0.942-0.942z" fill="none" stroke="#fff" stroke-miterlimit="10"/>
    </g>
    <g id="g1940" transform="translate(301.4 231.5)">
     <path id="path1942" d="m0 0c45.473-53.434 50.657-133.21 34.909-199.11-3.769-15.776-28.326-9.938-24.54 5.905 13.391 56.037 11.562 128.75-27.617 174.78-10.42 12.244 6.722 30.789 17.248 18.42"/>
    </g>
    <g id="g1944" transform="translate(301.4 231.5)">
     <path id="path1946" d="m0 0c45.473-53.434 50.657-133.21 34.909-199.11-3.769-15.776-28.326-9.938-24.54 5.905 13.391 56.037 11.562 128.75-27.617 174.78-10.42 12.244 6.722 30.789 17.248 18.42z" fill="none" stroke="#000" stroke-miterlimit="10"/>
    </g>
    <g id="g1948" transform="translate(344.92 44.617)">
     <path id="path1950" d="m0 0-35.861 0.927-1.272-45.866 87.387-0.727 0.4 10.515s-5.57 20.023-51.098 14.635z" fill="#163bdd"/>
    </g>
    <g id="g1952" transform="translate(344.92 44.617)">
     <path id="path1954" d="m0 0-35.861 0.927-1.272-45.866 87.387-0.727 0.4 10.515s-5.57 20.023-51.098 14.635z" fill="none" stroke="#000" stroke-miterlimit="10"/>
    </g>
    <g id="g1956" transform="translate(370.4 24.266)">
     <path id="path1958" d="m0 0c21.896-3.1 25.177-14.8 25.177-14.8l-0.401-10.514-31.299 0.264c0.899 8.626 2.854 17.021 6.523 25.05" fill="#fff"/>
    </g>
    <g id="g1960" transform="translate(370.4 24.266)">
     <path id="path1962" d="m0 0c21.896-3.1 25.177-14.8 25.177-14.8l-0.401-10.514-31.299 0.264c0.899 8.626 2.854 17.021 6.523 25.05z" fill="none" stroke="#000" stroke-miterlimit="10"/>
    </g>
    <g id="g1964" transform="translate(308.18 10.844)">
     <path id="path1966" d="m0 0 87.395-1.378-0.401-10.515-87.456 0.727z" fill="#fff"/>
    </g>
    <g id="g1968" transform="translate(308.18 10.844)">
     <path id="path1970" d="m0 0 87.395-1.378-0.401-10.515-87.456 0.727z" fill="none" stroke="#000" stroke-miterlimit="10"/>
    </g>
    <g id="g1972" transform="translate(344.22 36.452)">
     <path id="path1974" d="m0 0 0.025 1.084-15.546 0.386-0.026-1.085z" fill="#fff"/>
    </g>
    <g id="g1976" transform="translate(344.04 28.477)">
     <path id="path1978" d="m0 0 0.027 1.084-15.414 0.391-0.027-1.085z" fill="#fff"/>
    </g>
    <g id="g1980" transform="translate(326.88 37.471)">
     <path id="path1982" d="m0 0c0-0.521 0.422-0.942 0.942-0.942 0.521 0 0.943 0.421 0.943 0.942s-0.422 0.942-0.943 0.942c-0.52 0-0.942-0.421-0.942-0.942" fill="#fff"/>
    </g>
    <g id="g1984" transform="translate(326.88 37.471)">
     <path id="path1986" d="m0 0c0-0.521 0.422-0.942 0.942-0.942 0.521 0 0.943 0.421 0.943 0.942s-0.422 0.942-0.943 0.942c-0.52 0-0.942-0.421-0.942-0.942z" fill="none" stroke="#fff" stroke-miterlimit="10"/>
    </g>
    <g id="g1988" transform="translate(326.82 29.442)">
     <path id="path1990" d="m0 0c0-0.521 0.422-0.942 0.942-0.942 0.521 0 0.943 0.421 0.943 0.942s-0.422 0.942-0.943 0.942c-0.52 0-0.942-0.421-0.942-0.942" fill="#fff"/>
    </g>
    <g id="g1992" transform="translate(326.82 29.442)">
     <path id="path1994" d="m0 0c0-0.521 0.422-0.942 0.942-0.942 0.521 0 0.943 0.421 0.943 0.942s-0.422 0.942-0.943 0.942c-0.52 0-0.942-0.421-0.942-0.942z" fill="none" stroke="#fff" stroke-miterlimit="10"/>
    </g>
    <g id="g1996" transform="translate(255.16 511.62)">
     <path id="path1998" d="m0 0 39.284-144.54 138.86 76.649-83.3-127.77 157.09-36.148-157.09-36.147 83.3-127.77-138.86 76.65-39.284-144.54-39.284 144.54-138.86-76.65 83.301 127.77-157.09 36.147 157.09 36.148-83.301 127.77 138.86-76.649z" fill="#ff652d"/>
    </g>
    <g id="g2000" transform="translate(255.16 511.62)">
     <path id="path2002" d="m0 0 39.284-144.54 138.86 76.649-83.3-127.77 157.09-36.148-157.09-36.147 83.3-127.77-138.86 76.65-39.284-144.54-39.284 144.54-138.86-76.65 83.301 127.77-157.09 36.147 157.09 36.148-83.301 127.77 138.86-76.649z" fill="none" stroke="#000" stroke-miterlimit="10"/>
    </g>
    <g id="g2004" transform="translate(267.55 323.31)">
     <path id="path2006" d="m0 0c0-6.592-5.344-11.936-11.936-11.936-6.591 0-11.935 5.344-11.935 11.936 0 6.591 5.344 11.935 11.935 11.935 6.592 0 11.936-5.344 11.936-11.935" fill="#ffca42"/>
    </g>
    <g id="g2008" transform="translate(267.55 323.31)">
     <path id="path2010" d="m0 0c0-6.592-5.344-11.936-11.936-11.936-6.591 0-11.935 5.344-11.935 11.936 0 6.591 5.344 11.935 11.935 11.935 6.592 0 11.936-5.344 11.936-11.935z" fill="none" stroke="#000" stroke-miterlimit="10"/>
    </g>
    <g id="g2012" transform="translate(292.59 262.98)">
     <path id="path2014" d="m0 0c-0.045-0.042-0.089-0.063-0.133-0.106-14.959-10.858-34.617-13.279-52.226-8.316-6.276 1.764-13.117 4.696-19.106 8.748-9.351 6.28-16.594 15.292-16.23 26.859 0.369 10.714 8.594 13.628 18.07 13.545 8.362-0.081 17.725-2.497 23.481-3.988 4.998-1.258 10.024-2.167 15.183-1.878 8.328 0.422 15.917 4.243 24.122 5.061 1.619 0.164 3.455 0.236 5.397 0.109 5.584-0.287 11.886-1.79 15.463-5.268 10.642-10.455-5.622-28.646-14.021-34.766"/>
    </g>
    <g id="g2016" transform="translate(292.59 262.98)">
     <path id="path2018" d="m0 0c-0.045-0.042-0.089-0.063-0.133-0.106-14.959-10.858-34.617-13.279-52.226-8.316-6.276 1.764-13.117 4.696-19.106 8.748-9.351 6.28-16.594 15.292-16.23 26.859 0.369 10.714 8.594 13.628 18.07 13.545 8.362-0.081 17.725-2.497 23.481-3.988 4.998-1.258 10.024-2.167 15.183-1.878 8.328 0.422 15.917 4.243 24.122 5.061 1.619 0.164 3.455 0.236 5.397 0.109 5.584-0.287 11.886-1.79 15.463-5.268 10.642-10.455-5.622-28.646-14.021-34.766z" fill="none" stroke="#000" stroke-miterlimit="10"/>
    </g>
    <g id="g2020" transform="translate(292.59 262.98)">
     <path id="path2022" d="m0 0c-0.045-0.042-0.089-0.063-0.133-0.106-14.959-10.858-34.617-13.279-52.226-8.316-6.276 1.764-13.117 4.696-19.106 8.748 7.21 9.944 20.534 16.619 35.753 16.553 15.284-0.046 28.577-6.821 35.712-16.879" fill="#ff45b7"/>
    </g>
    <g id="g2024" transform="translate(292.59 262.98)">
     <path id="path2026" d="m0 0c-0.045-0.042-0.089-0.063-0.133-0.106-14.959-10.858-34.617-13.279-52.226-8.316-6.276 1.764-13.117 4.696-19.106 8.748 7.21 9.944 20.534 16.619 35.753 16.553 15.284-0.046 28.577-6.821 35.712-16.879z" fill="none" stroke="#000" stroke-miterlimit="10"/>
    </g>
    <g id="g2028" transform="translate(140.3 363.52)">
     <path id="path2030" d="m0 0c4.19 33.579 29.214 56.036 55.893 50.16s44.909-37.86 40.719-71.44c-4.19-33.578-29.214-56.036-55.892-50.16-26.679 5.876-44.909 37.861-40.72 71.44" fill="#fff"/>
    </g>
    <g id="g2032" transform="translate(140.3 363.52)">
     <path id="path2034" d="m0 0c4.19 33.579 29.214 56.036 55.893 50.16s44.909-37.86 40.719-71.44c-4.19-33.578-29.214-56.036-55.892-50.16-26.679 5.876-44.909 37.861-40.72 71.44z" fill="none" stroke="#000" stroke-miterlimit="10"/>
    </g>
    <g id="g2036" transform="translate(152.53 361.28)">
     <path id="path2038" d="M 0,0 C -0.396,22.613 14.559,41.031 33.401,41.139 52.245,41.246 67.84,23.002 68.236,0.39 68.632,-22.224 53.678,-40.642 34.834,-40.749 15.992,-40.856 0.396,-22.612 0,0"/>
    </g>
    <g id="g2040" transform="translate(152.53 361.28)">
     <path id="path2042" d="M 0,0 C -0.396,22.613 14.559,41.031 33.401,41.139 52.245,41.246 67.84,23.002 68.236,0.39 68.632,-22.224 53.678,-40.642 34.834,-40.749 15.992,-40.856 0.396,-22.612 0,0 Z" fill="none" stroke="#000" stroke-miterlimit="10"/>
    </g>
    <g id="g2044" transform="translate(237.64 351.48)">
     <path id="path2046" d="m 0,0 -99.582,0.706 c 0,0 5.722,-67.317 57.207,-61.997 C -0.603,-56.974 0,0 0,0" fill="#ff652d"/>
    </g>
    <g id="g2048" transform="translate(237.64 351.48)">
     <path id="path2050" d="m 0,0 -99.582,0.706 c 0,0 5.722,-67.317 57.207,-61.997 C -0.603,-56.974 0,0 0,0 Z" fill="none" stroke="#000" stroke-miterlimit="10"/>
    </g>
    <g id="g2052" transform="translate(273.68 363.52)">
     <path id="path2054" d="m0 0c4.19 33.579 29.214 56.036 55.893 50.16 26.678-5.876 44.909-37.86 40.718-71.44-4.189-33.578-29.213-56.036-55.892-50.16-26.678 5.876-44.909 37.861-40.719 71.44" fill="#fff"/>
    </g>
    <g id="g2056" transform="translate(273.68 363.52)">
     <path id="path2058" d="m0 0c4.19 33.579 29.214 56.036 55.893 50.16 26.678-5.876 44.909-37.86 40.718-71.44-4.189-33.578-29.213-56.036-55.892-50.16-26.678 5.876-44.909 37.861-40.719 71.44z" fill="none" stroke="#000" stroke-miterlimit="10"/>
    </g>
    <g id="g2060" transform="translate(285.91 361.28)">
     <path id="path2062" d="m0 0c-0.396 22.613 14.559 41.031 33.401 41.139 18.844 0.107 34.44-18.137 34.835-40.749 0.396-22.614-14.558-41.032-33.401-41.139s-34.439 18.137-34.835 40.749"/>
    </g>
    <g id="g2064" transform="translate(285.91 361.28)">
     <path id="path2066" d="m0 0c-0.396 22.613 14.559 41.031 33.401 41.139 18.844 0.107 34.44-18.137 34.835-40.749 0.396-22.614-14.558-41.032-33.401-41.139s-34.439 18.137-34.835 40.749z" fill="none" stroke="#000" stroke-miterlimit="10"/>
    </g>
    <g id="g2068" transform="translate(371.02 351.48)">
     <path id="path2070" d="m 0,0 -99.582,0.706 c 0,0 5.723,-67.317 57.208,-61.997 C -0.603,-56.974 0,0 0,0" fill="#ff652d"/>
    </g>
    <g id="g2072" transform="translate(371.02 351.48)">
     <path id="path2074" d="m 0,0 -99.582,0.706 c 0,0 5.723,-67.317 57.208,-61.997 C -0.603,-56.974 0,0 0,0 Z" fill="none" stroke="#000" stroke-miterlimit="10"/>
    </g>
    <g id="g2076" transform="translate(328.29 149.37)">
     <path id="path2078" d="m0 0c-10.199-1.651-18.421 5.262-18.363 15.44 0.057 10.179 8.372 19.768 18.571 21.419 10.199 1.652 18.421-5.261 18.363-15.44-0.056-10.179-8.372-19.769-18.571-21.419m32.838 22.48c0.097 17.017-13.65 28.575-30.701 25.814-17.052-2.76-30.953-18.792-31.049-35.81-0.097-17.016 13.649-28.574 30.701-25.814 17.052 2.761 30.953 18.793 31.049 35.81" fill="#00a3f7"/>
    </g>
    <g id="g2080" transform="translate(328.29 149.37)">
     <path id="path2082" d="m0 0c-10.199-1.651-18.421 5.262-18.363 15.44 0.057 10.179 8.372 19.768 18.571 21.419 10.199 1.652 18.421-5.261 18.363-15.44-0.056-10.179-8.372-19.769-18.571-21.419zm32.838 22.48c0.097 17.017-13.65 28.575-30.701 25.814-17.052-2.76-30.953-18.792-31.049-35.81-0.097-17.016 13.649-28.574 30.701-25.814 17.052 2.761 30.953 18.793 31.049 35.81z" fill="none" stroke="#000" stroke-miterlimit="10"/>
    </g>
    <g id="g2084" transform="translate(321.69 213.46)">
     <path id="path2086" d="m0 0s-3.388-100.28-81.75-94.836c-74.326 5.168-63.187 105.04-63.187 105.04z" fill="#00a3f7"/>
    </g>
    <g id="g2088" transform="translate(321.69 213.46)">
     <path id="path2090" d="m0 0s-3.388-100.28-81.75-94.836c-74.326 5.168-63.187 105.04-63.187 105.04z" fill="none" stroke="#000" stroke-miterlimit="10"/>
    </g>
    <g id="g2092" transform="translate(176.75 223.66)">
     <path id="path2094" d="m0 0c-0.816-11.589 30.967-23.269 70.991-26.088 40.023-2.818 73.13 4.29 73.946 15.879 0.817 11.588-30.967 23.268-70.99 26.087-40.024 2.819-73.131-4.29-73.947-15.878" fill="#00a3f7"/>
    </g>
    <g id="g2096" transform="translate(176.75 223.66)">
     <path id="path2098" d="m0 0c-0.816-11.589 30.967-23.269 70.991-26.088 40.023-2.818 73.13 4.29 73.946 15.879 0.817 11.588-30.967 23.268-70.99 26.087-40.024 2.819-73.131-4.29-73.947-15.878z" fill="none" stroke="#000" stroke-miterlimit="10"/>
    </g>
    <g id="g2100" transform="translate(228.38 160.13)">
     <path id="path2102" d="m0 0-11.521 12.5 16.791-1.831 2.717 16.041 8.698-13.607 13.918 7.835-4.956-15.469 16.581-4.408-16.818-7.544 4.909-16.517-14.169 9.245-9.232-13.251-2.076 16.137-15.849-0.869z" fill="#fff"/>
    </g>
    <g id="g2104" transform="translate(180.57 216.2)">
     <path id="path2106" d="m0 0c-2.368 2.188-3.707 4.441-3.828 6.695l-1e-3 0.011c11.546 10.024 27.503 12.405 43.842 5.7 12.748-5.225 21.426-11.974 35.438-7.165 14.342 4.925 25.629 9.457 40.982 3.111 7.891-3.248 17.442-6.027 24.655-11.398-1.373-11.421-34.245-18.378-73.915-15.582-30.134 2.126-55.593 9.264-65.988 17.616" stroke="#000" stroke-miterlimit="10"/>
    </g>
    <g id="g2108" transform="translate(280.42 222.04)">
     <path id="path2110" d="m0 0c5.644 1.093 11.369 0.498 16.745-1.494 5.359-1.985 10.185-5.193 14.655-8.707 0.798-0.628-0.213-1.84-1.013-1.211-4.285 3.368-8.879 6.421-13.996 8.368-5.208 1.983-10.753 2.534-16.232 1.473-0.999-0.194-1.149 1.379-0.159 1.571" fill="#fff"/>
    </g>
    <g id="g2112" transform="translate(180.57 216.2)">
     <path id="path2114" d="m0 0c2.483 3.134 5.559 5.756 9.142 7.634 4.609 2.411 9.821 3.518 15.009 3.439 3.111-0.039 6.189-0.482 9.209-1.264 0.97-0.252 0.728-1.809-0.253-1.557-9.7 2.519-20.415 1.269-28.229-5.392-1.361-1.16-2.595-2.465-3.693-3.872z" fill="#fff"/>
    </g>
    <g id="g2116" transform="translate(274.31 222.14)">
     <path id="path2118" d="m0 0c0.753 0.195 1.519 0.349 2.289 0.453 0.41 0.056 0.841-0.29 0.865-0.706 0.026-0.438-0.268-0.806-0.706-0.865-0.568-0.076-1.133-0.182-1.691-0.311-0.069-0.016-0.137-0.033-0.204-0.05-0.209-0.055-0.4-0.072-0.604 0.021-0.177 0.08-0.351 0.254-0.412 0.441-0.063 0.195-0.074 0.417 0.022 0.605 0.088 0.175 0.243 0.36 0.441 0.412" fill="#fff"/>
    </g>
    <g id="g2120" transform="translate(218.4 224.71)">
     <path id="path2122" d="m0 0c0.896-0.118 1.73-0.507 2.411-1.1 0.311-0.27 0.39-0.793 0.099-1.112-0.284-0.31-0.779-0.389-1.113-0.099-0.128 0.112-0.266 0.21-0.406 0.306-0.231 0.139-0.474 0.251-0.729 0.337-0.169 0.044-0.338 0.086-0.512 0.108-0.409 0.055-0.739 0.496-0.655 0.906 0.089 0.427 0.467 0.712 0.905 0.654" fill="#fff"/>
    </g>
    <g id="g2124" transform="translate(305.27 208.64)">
     <path id="path2126" d="m0 0c2.622-5.418 4.816-11.188 6.259-17.032 1.091-4.419 2.979-10.975-1.257-14.361-2.409-1.925-6.038-1.768-8.195 0.47-2.525 2.619-2.17 6.885-1.901 10.211 0.548 6.745 2.49 13.467 4.767 19.817 0.107 0.299 0.215 0.598 0.327 0.895"/>
    </g>
    <g id="g2128" transform="translate(305.27 208.64)">
     <path id="path2130" d="m0 0c2.622-5.418 4.816-11.188 6.259-17.032 1.091-4.419 2.979-10.975-1.257-14.361-2.409-1.925-6.038-1.768-8.195 0.47-2.525 2.619-2.17 6.885-1.901 10.211 0.548 6.745 2.49 13.467 4.767 19.817 0.107 0.299 0.215 0.598 0.327 0.895z" fill="none" stroke="#000" stroke-miterlimit="10"/>
    </g>
    <g id="g2132" transform="translate(302.06 190.79)">
     <path id="path2134" d="m0 0c0.177 0.513 0.665 0.866 1.222 0.725 0.493-0.125 0.903-0.706 0.725-1.222-0.546-1.579-0.62-3.202-0.445-4.875 0.162-1.553 0.646-3.212 1.833-4.176 0.421-0.342 0.381-1.052 0.027-1.42-0.402-0.418-0.998-0.37-1.42-0.027-1.572 1.277-2.176 3.394-2.419 5.324-0.232 1.857-0.137 3.892 0.477 5.671" fill="#fff"/>
    </g>
    <g id="g2136" transform="translate(502.84 162.01)">
     <path id="path2138" d="m0 0c-14.28-17.319-41.109-19.75-61.83-20.819-8.01-0.41-16.01-0.46-24.01-0.301-3.71 0.06-7.41 0.181-11.12 0.32-0.17 0.01-0.34 0.01-0.51 0.021-4.24 0.17-8.48 0.369-12.719 0.59h-0.011c-2.32 0.12-4.64 0.229-6.949 0.349-1.901 0.1-3.811 0.2-5.71 0.29-12.351 0.63-24.711 1.151-37.091 0.981-5.4-0.08-10.46 2.779-11.23 8.59-0.09 0.709-0.09 1.439-9e-3 2.189 0.5 4.37 3.949 8.98 8.589 9.04 1.67 0.021 3.34 0.04 5 0.04 0.73 0 1.46 0 2.19-0.01 15.261-0.08 30.49-0.96 45.721-1.69 3.549-0.17 7.099-0.33 10.649-0.47 1.391-0.059 2.78-0.11 4.17-0.16 4.23-0.149 8.471-0.26 12.7-0.31 12.59-0.15 25.25 0.451 37.72 2.29 8.61 1.27 16.13 2.741 23.36 7.05 2.58 1.54 4.77 3.34 6.231 5.51-0.54-0.67 0.979 2.931 0.839 1.94 0.3 1.38 0.14 2.081-0.01 2.69-2.04 7.66-9.64 13.78-15.74 18.19-15.85 11.48-35.05 17.91-53.32 24.38-22.05 7.821-44.2 13.92-67.22 17.071l-2.53 3.879 39.91 9.18h0.01c11.5-2.92 22.86-6.45 34.1-10.45 20.7-7.359 41.93-14.65 60.08-27.38 16.14-11.31 34.57-33.81 18.74-53"/>
    </g>
    <g id="g2140" transform="translate(393 176.35)">
     <path id="path2142" d="m0 0s11.224 8.78 13.696-0.545c1.884-7.102 1.228-22.816 0.808-29.898-0.193-3.268-2.104-6.29-5.127-7.544-1.956-0.812-7.167 0.209-9.705 2.017-4.845-3.667-11.229-10.703-23.851-12.26-9.441-1.166-19.651-0.198-28.556 3.23-4.579 1.763-8.741 4.309-11.44 8.501-1.5 2.33-2.612 5.094-2.598 7.9 7e-3 1.398 0.316 2.776 0.973 4.014 0.191 0.361 1.614 2.844 1.614 2.844s-8.567 11.897 4.767 17.858c0 0-11.958 19.584 18.053 15.563 1.818-0.244 3.37 7.815 10.268 11.493 1.024 0.546 8.197 4.241 15.799 1.97 9.045-2.703 15.651-12.939 15.299-25.143" fill="#fff"/>
    </g>
    <g id="g2144" transform="translate(393 176.35)">
     <path id="path2146" d="m0 0s11.224 8.78 13.696-0.545c1.884-7.102 1.228-22.816 0.808-29.898-0.193-3.268-2.104-6.29-5.127-7.544-1.956-0.812-7.167 0.209-9.705 2.017-4.845-3.667-11.229-10.703-23.851-12.26-9.441-1.166-19.651-0.198-28.556 3.23-4.579 1.763-8.741 4.309-11.44 8.501-1.5 2.33-2.612 5.094-2.598 7.9 7e-3 1.398 0.316 2.776 0.973 4.014 0.191 0.361 1.614 2.844 1.614 2.844s-8.567 11.897 4.767 17.858c0 0-11.958 19.584 18.053 15.563 1.818-0.244 3.37 7.815 10.268 11.493 1.024 0.546 8.197 4.241 15.799 1.97 9.045-2.703 15.651-12.939 15.299-25.143z" fill="none" stroke="#000" stroke-miterlimit="10"/>
    </g>
    <g id="g2148" transform="translate(333.87 172.32)">
     <path id="path2150" d="m0 0 11.371-2.537" fill="none" stroke="#000" stroke-miterlimit="10"/>
    </g>
    <g id="g2152" transform="translate(328.82 154.61)">
     <path id="path2154" d="m0 0 12.015-1.666" fill="none" stroke="#000" stroke-miterlimit="10"/>
    </g>
    <g id="g2156" transform="translate(351.64 188.03)">
     <path id="path2158" d="m0 0 16.583-2.839" fill="none" stroke="#000" stroke-miterlimit="10"/>
    </g>
    <g id="g2160" transform="translate(393 176.35)">
     <path id="path2162" d="m0 0 0.04-11.833" fill="none" stroke="#000" stroke-miterlimit="10"/>
    </g>
    <g id="g2164" transform="translate(392.47 149.01)">
     <path id="path2166" d="m0 0 0.202-8.633" fill="none" stroke="#000" stroke-miterlimit="10"/>
    </g>
    <g id="g2168" transform="translate(191.39 152.23)">
     <path id="path2170" d="m0 0c-0.81-5.801-5.89-8.62-11.29-8.511-11.14 0.231-22.27-0.09-33.4-0.55-4.86-0.2-9.72-0.429-14.58-0.65-1.43-0.06-2.85-0.119-4.28-0.18-1.04-0.04-2.09-0.089-3.13-0.13-5.93-0.229-11.86-0.419-17.8-0.509-4.35-0.061-8.7-0.071-13.05 0.019-3.96 0.061-7.93 0.21-11.9 0.441-20.7 1.219-47.52 3.83-61.68 21.259-15.69 19.3 2.9 41.67 19.11 52.871 18.24 12.599 39.52 19.74 60.28 26.95 8.8 3.059 17.67 5.84 26.61 8.26l34.05-7.84-3.8-5.83c-17.88-3.29-35.33-8.26-52.73-14.29-18.32-6.35-37.56-12.64-53.49-24.01-6.13-4.37-13.77-10.431-15.86-18.08-0.17-0.611-0.33-1.321-0.03-2.741-0.19 1.151 1.37-2.589 0.82-1.9 1.45-2.18 3.62-3.989 6.19-5.55 7.2-4.359 14.71-5.889 23.31-7.219 12.45-1.92 25.11-2.611 37.71-2.55 1.44 0.01 2.89 0.019 4.33 0.04 4.07 0.059 8.14 0.17 12.21 0.3 3.32 0.099 6.63 0.229 9.95 0.37 11.42 0.46 22.84 1.019 34.27 1.269 1.32 0.031 2.63 0.05 3.95 0.071h0.01c5.23 0.089 10.47 0.099 15.72-0.01 2.52-0.05 4.68-1.441 6.21-3.401 1.75-2.269 2.66-5.299 2.29-7.899"/>
    </g>
    <g id="g2172" transform="translate(147.61 180.34)">
     <path id="path2174" d="m0 0c1.511-0.193 3.049 3.222 3.768 4.626 4.665 9.111 15.988 13.949 22.924 15.25 2.805 0.525 12.176 2.595 16.2-0.797 8.612-7.259-8.148-17.574-13.289-20.984 2.795-0.404 3.479-0.521 4.207-0.621 1.395-0.194 2.791-0.372 4.19-0.53 2.494-0.278 4.995-0.479 7.501-0.597 5.89-0.279 11.794 0.078 17.677-0.274 3.95-0.236 10.012-0.56 12.203-4.521 1.465-2.65-0.128-5.835-1.482-8.173-0.035-0.06-0.069-0.119-0.104-0.18 0 0 9.41-7.438-2.558-14.982 0.871-1 2.02-2.012 2.124-3.414 0.373-5.046-7.17-9.426-10.835-11.391-9.293-4.983-20.984-8.475-31.568-9.132-8.783-0.545-17.207 1.84-24.355 6.993-1.39 1.002-2.719 2.086-3.994 3.231-1.079 0.969-2.681 3.428-3.967 3.936-0.025 0.01-1.329-1.551-1.425-1.646-1.205-1.187-2.632-2.19-4.224-2.781-3.713-1.377-8.126-0.564-10.54 2.745-3.632 4.979-2.608 11.553-1.885 17.251 0.869 6.84 1.09 13.721 1.585 20.606 1.488 20.67 14.042 10.745 15.53 8.65 2.203-3.103 1.503-3.161 2.317-3.265" fill="#fff"/>
    </g>
    <g id="g2176" transform="translate(147.61 180.34)">
     <path id="path2178" d="m0 0c1.511-0.193 3.049 3.222 3.768 4.626 4.665 9.111 15.988 13.949 22.924 15.25 2.805 0.525 12.176 2.595 16.2-0.797 8.612-7.259-8.148-17.574-13.289-20.984 2.795-0.404 3.479-0.521 4.207-0.621 1.395-0.194 2.791-0.372 4.19-0.53 2.494-0.278 4.995-0.479 7.501-0.597 5.89-0.279 11.794 0.078 17.677-0.274 3.95-0.236 10.012-0.56 12.203-4.521 1.465-2.65-0.128-5.835-1.482-8.173-0.035-0.06-0.069-0.119-0.104-0.18 0 0 9.41-7.438-2.558-14.982 0.871-1 2.02-2.012 2.124-3.414 0.373-5.046-7.17-9.426-10.835-11.391-9.293-4.983-20.984-8.475-31.568-9.132-8.783-0.545-17.207 1.84-24.355 6.993-1.39 1.002-2.719 2.086-3.994 3.231-1.079 0.969-2.681 3.428-3.967 3.936-0.025 0.01-1.329-1.551-1.425-1.646-1.205-1.187-2.632-2.19-4.224-2.781-3.713-1.377-8.126-0.564-10.54 2.745-3.632 4.979-2.608 11.553-1.885 17.251 0.869 6.84 1.09 13.721 1.585 20.606 1.488 20.67 14.042 10.745 15.53 8.65 2.203-3.103 1.503-3.161 2.317-3.265z" fill="none" stroke="#000" stroke-miterlimit="10"/>
    </g>
    <g id="g2180" transform="translate(182.57 160.61)">
     <path id="path2182" d="m0 0s23.883-2.666 38.839 2.928" fill="none" stroke="#000" stroke-miterlimit="10"/>
    </g>
    <g id="g2184" transform="translate(219.25 148.25)">
     <path id="path2186" d="m0 0s-20.783-6.062-34.991-5.078" fill="none" stroke="#000" stroke-miterlimit="10"/>
    </g>
    <g id="g2188" transform="translate(148.23 180.38)">
     <path id="path2190" d="m0 0-0.501-7.889" fill="none" stroke="#000" stroke-miterlimit="10"/>
    </g>
    <g id="g2192" transform="translate(147.07 145.89)">
     <path id="path2194" d="m0 0-0.95-7.061" fill="none" stroke="#000" stroke-miterlimit="10"/>
    </g>
   </g>
  </g>
 </g>
</svg>
