<?xml version="1.0" encoding="UTF-8"?>
<!-- Created with Inkscape (http://www.inkscape.org/) -->
<svg id="svg2" width="682.67" height="682.67" version="1.1" viewBox="0 0 682.67 682.67" xmlns="http://www.w3.org/2000/svg">
 <defs id="defs6">
  <clipPath id="clipPath1586">
   <path id="path1584" d="m0 512h512v-512h-512z"/>
  </clipPath>
 </defs>
 <g id="g1578" transform="matrix(1.3333 0 0 -1.3333 -1.3936e-5 682.67)">
  <g id="g1580">
   <g id="g1582" clip-path="url(#clipPath1586)">
    <g id="g1588" transform="translate(305.2 46.727)">
     <path id="path1590" d="m0 0c-21.098 48.04-54.296 104.9-89.182 140.49l24.584 5.639c29.267-33.854 65.302-90.74 85.167-134.76-6.937-3.609-13.789-7.412-20.569-11.366"/>
    </g>
    <g id="g1592" transform="translate(305.2 46.727)">
     <path id="path1594" d="m0 0c-21.098 48.04-54.296 104.9-89.182 140.49l24.584 5.639c29.267-33.854 65.302-90.74 85.167-134.76-6.937-3.609-13.789-7.412-20.569-11.366z" fill="none" stroke="#000" stroke-miterlimit="10"/>
    </g>
    <g id="g1596" transform="translate(292 21.436)">
     <path id="path1598" d="m0 0 13.131-0.589c14.589-0.664 29.195 1.291 43.058 5.855 0.171 0.067 0.339 0.113 0.499 0.172 6.436 2.131 12.126 4.698 17.103 7.524 25.66 14.5 32.98 35.406 32.98 35.406-19.715 30.252-45.586-9.074-45.586-9.074l-20.123-1.299c2.709 4.989 3.863 10.242 2.534 15.115-5.623 20.535-24.235-17.225-24.235-17.225-1.335 1.072-3.972 2.863-7.647 3.314-4.433 0.545-11.597-0.71-14.317-6.655-2.037-4.451-0.905-10.05 2.857-14.021z" fill="#ff9fda"/>
    </g>
    <g id="g1600" transform="translate(292 21.436)">
     <path id="path1602" d="m0 0 13.131-0.589c14.589-0.664 29.195 1.291 43.058 5.855 0.171 0.067 0.339 0.113 0.499 0.172 6.436 2.131 12.126 4.698 17.103 7.524 25.66 14.5 32.98 35.406 32.98 35.406-19.715 30.252-45.586-9.074-45.586-9.074l-20.123-1.299c2.709 4.989 3.863 10.242 2.534 15.115-5.623 20.535-24.235-17.225-24.235-17.225-1.335 1.072-3.972 2.863-7.647 3.314-4.433 0.545-11.597-0.71-14.317-6.655-2.037-4.451-0.905-10.05 2.857-14.021z" fill="none" stroke="#000" stroke-miterlimit="10"/>
    </g>
    <g id="g1604" transform="translate(311.69 .7617)">
     <path id="path1606" d="m0 0c23.201 4.873 67.358 16.214 84.918 34.823 24.346 25.767 2.16 34.219 2.16 34.219s-10.447-29.822-50.083-42.929c-0.159-0.059-0.327-0.105-0.498-0.172-13.863-4.565-28.47-6.52-43.059-5.855l-13.13 0.589 1.904-9.043c1.695-8.133 9.664-13.34 17.788-11.632" fill="#fff"/>
    </g>
    <g id="g1608" transform="translate(311.69 .7617)">
     <path id="path1610" d="m0 0c23.201 4.873 67.358 16.214 84.918 34.823 24.346 25.767 2.16 34.219 2.16 34.219s-10.447-29.822-50.083-42.929c-0.159-0.059-0.327-0.105-0.498-0.172-13.863-4.565-28.47-6.52-43.059-5.855l-13.13 0.589 1.904-9.043c1.695-8.133 9.664-13.34 17.788-11.632z" fill="none" stroke="#000" stroke-miterlimit="10"/>
    </g>
    <g id="g1612" transform="translate(365.79 34.398)">
     <path id="path1614" d="m0 0c25.66 14.5 32.979 35.406 32.979 35.406-19.714 30.252-45.585-9.074-45.585-9.074s-1.525-18.228 12.606-26.332" fill="#fff"/>
    </g>
    <g id="g1616" transform="translate(365.79 34.398)">
     <path id="path1618" d="m0 0c25.66 14.5 32.979 35.406 32.979 35.406-19.714 30.252-45.585-9.074-45.585-9.074s-1.525-18.228 12.606-26.332z" fill="none" stroke="#000" stroke-miterlimit="10"/>
    </g>
    <g id="g1620" transform="translate(347.27 60.263)">
     <path id="path1622" d="m0 0-9.697-24.243c0.307-1.001 1.176-1.721 2.185-1.818 1.124-0.106 2.213 0.579 2.627 1.678 3.265 8.231 6.529 16.463 9.793 24.694z" fill="#fff"/>
    </g>
    <g id="g1624" transform="translate(347.27 60.263)">
     <path id="path1626" d="m0 0-9.697-24.243c0.307-1.001 1.176-1.721 2.185-1.818 1.124-0.106 2.213 0.579 2.627 1.678 3.265 8.231 6.529 16.463 9.793 24.694z" fill="none" stroke="#000" stroke-miterlimit="10"/>
    </g>
    <g id="g1628" transform="translate(339.86 59.787)">
     <path id="path1630" d="m0 0-9.696-24.243c0.035-0.068 0.749-1.4 2.264-1.499 1.029-0.067 2.016 0.46 2.548 1.359 3.264 8.231 6.529 16.463 9.792 24.694z" fill="#fff"/>
    </g>
    <g id="g1632" transform="translate(339.86 59.787)">
     <path id="path1634" d="m0 0-9.696-24.243c0.035-0.068 0.749-1.4 2.264-1.499 1.029-0.067 2.016 0.46 2.548 1.359 3.264 8.231 6.529 16.463 9.792 24.694z" fill="none" stroke="#000" stroke-miterlimit="10"/>
    </g>
    <g id="g1636" transform="translate(332.79 59.253)">
     <path id="path1638" d="m0 0-9.499-23.61c0.109-0.164 0.785-1.141 2.035-1.311 1.127-0.154 2.276 0.411 2.929 1.439 3.148 7.931 6.296 15.861 9.443 23.793z" fill="#fff"/>
    </g>
    <g id="g1640" transform="translate(332.79 59.253)">
     <path id="path1642" d="m0 0-9.499-23.61c0.109-0.164 0.785-1.141 2.035-1.311 1.127-0.154 2.276 0.411 2.929 1.439 3.148 7.931 6.296 15.861 9.443 23.793z" fill="none" stroke="#000" stroke-miterlimit="10"/>
    </g>
    <g id="g1644" transform="translate(216.67 110.99)">
     <path id="path1646" d="m0 0 1.461-0.202c16.191-1.73 32.671-0.354 48.779 1.034 17.045 1.47 40.385 5.272 41.068 28.956 0.426 14.793-17.496 46.127-28.479 58.081l17.221 18.196c13.646-17.319 36.115-66.601 30.302-88.959-6.279-24.15-26.251-34.627-47.524-37.591-20.843-2.905-42.618-4.495-63.769-2.067-0.138 7.581-0.079 15.151 0.941 22.552"/>
    </g>
    <g id="g1648" transform="translate(216.67 110.99)">
     <path id="path1650" d="m0 0 1.461-0.202c16.191-1.73 32.671-0.354 48.779 1.034 17.045 1.47 40.385 5.272 41.068 28.956 0.426 14.793-17.496 46.127-28.479 58.081l17.221 18.196c13.646-17.319 36.115-66.601 30.302-88.959-6.279-24.15-26.251-34.627-47.524-37.591-20.843-2.905-42.618-4.495-63.769-2.067-0.138 7.581-0.079 15.151 0.941 22.552z" fill="none" stroke="#000" stroke-miterlimit="10"/>
    </g>
    <g id="g1652" transform="translate(194.85 128.01)">
     <path id="path1654" d="m0 0-4.754-11.728c-5.291-13.026-8.209-26.91-8.521-40.958 5e-3 -0.177-7e-3 -0.344-5e-3 -0.507-0.134-6.527 0.367-12.515 1.333-17.94 4.914-27.947 21.535-41.306 21.535-41.306 33.79 8.171 6.412 44.286 6.412 44.286l5.288 18.68c3.657-4.062 8.053-6.798 12.903-7.156 20.443-1.496-7.845 27.527-7.845 27.527 1.401 0.868 3.874 2.685 5.464 5.876 1.919 3.848 3.083 10.752-1.439 15.131-3.385 3.279-8.83 4.051-13.642 1.912z" fill="#ff9fda"/>
    </g>
    <g id="g1656" transform="translate(194.85 128.01)">
     <path id="path1658" d="m0 0-4.754-11.728c-5.291-13.026-8.209-26.91-8.521-40.958 5e-3 -0.177-7e-3 -0.344-5e-3 -0.507-0.134-6.527 0.367-12.515 1.333-17.94 4.914-27.947 21.535-41.306 21.535-41.306 33.79 8.171 6.412 44.286 6.412 44.286l5.288 18.68c3.657-4.062 8.053-6.798 12.903-7.156 20.443-1.496-7.845 27.527-7.845 27.527 1.401 0.868 3.874 2.685 5.464 5.876 1.919 3.848 3.083 10.752-1.439 15.131-3.385 3.279-8.83 4.051-13.642 1.912z" fill="none" stroke="#000" stroke-miterlimit="10"/>
    </g>
    <g id="g1660" transform="translate(169.75 116.78)">
     <path id="path1662" d="m0 0c-3.033-22.622-6.929-66.339 4.318-88.255 15.562-30.374 30.361-12.956 30.361-12.956s-23.708 19.064-22.868 59.246c-2e-3 0.164 0.01 0.331 4e-3 0.507 0.312 14.049 3.231 27.932 8.522 40.959l4.754 11.728-8.819 1.177c-7.926 1.074-15.211-4.484-16.272-12.406" fill="#fff"/>
    </g>
    <g id="g1664" transform="translate(169.75 116.78)">
     <path id="path1666" d="m0 0c-3.033-22.622-6.929-66.339 4.318-88.255 15.562-30.374 30.361-12.956 30.361-12.956s-23.708 19.064-22.868 59.246c-2e-3 0.164 0.01 0.331 4e-3 0.507 0.312 14.049 3.231 27.932 8.522 40.959l4.754 11.728-8.819 1.177c-7.926 1.074-15.211-4.484-16.272-12.406z" fill="none" stroke="#000" stroke-miterlimit="10"/>
    </g>
    <g id="g1668" transform="translate(182.9 56.872)">
     <path id="path1670" d="m0 0c4.914-27.947 21.535-41.306 21.535-41.306 33.79 8.171 6.412 44.286 6.412 44.286s-16.052 7.241-27.947-2.98" fill="#fff"/>
    </g>
    <g id="g1672" transform="translate(182.9 56.872)">
     <path id="path1674" d="m0 0c4.914-27.947 21.535-41.306 21.535-41.306 33.79 8.171 6.412 44.286 6.412 44.286s-16.052 7.241-27.947-2.98z" fill="none" stroke="#000" stroke-miterlimit="10"/>
    </g>
    <g id="g1676" transform="translate(212.32 65.369)">
     <path id="path1678" d="m0 0-18.885 16.59c-1.008 0.043-1.94-0.514-2.352-1.4-0.458-0.985-0.186-2.193 0.678-2.922 6.421-5.608 12.843-11.215 19.264-16.822z" fill="#fff"/>
    </g>
    <g id="g1680" transform="translate(212.32 65.369)">
     <path id="path1682" d="m0 0-18.885 16.59c-1.008 0.043-1.94-0.514-2.352-1.4-0.458-0.985-0.186-2.193 0.678-2.922 6.421-5.608 12.843-11.215 19.264-16.822z" fill="none" stroke="#000" stroke-miterlimit="10"/>
    </g>
    <g id="g1684" transform="translate(214.27 72.249)">
     <path id="path1686" d="m0 0-18.885 16.59c-0.073-0.01-1.511-0.23-2.088-1.574-0.392-0.912-0.231-1.977 0.414-2.748 6.421-5.608 12.843-11.215 19.264-16.822z" fill="#fff"/>
    </g>
    <g id="g1688" transform="translate(214.27 72.249)">
     <path id="path1690" d="m0 0-18.885 16.59c-0.073-0.01-1.511-0.23-2.088-1.574-0.392-0.912-0.231-1.977 0.414-2.748 6.421-5.608 12.843-11.215 19.264-16.822z" fill="none" stroke="#000" stroke-miterlimit="10"/>
    </g>
    <g id="g1692" transform="translate(216.06 78.832)">
     <path id="path1694" d="m0 0-18.375 16.207c-0.184-0.047-1.287-0.346-1.843-1.425-0.502-0.974-0.359-2.198 0.364-3.121 6.187-5.406 12.373-10.81 18.559-16.216z" fill="#fff"/>
    </g>
    <g id="g1696" transform="translate(216.06 78.832)">
     <path id="path1698" d="m0 0-18.375 16.207c-0.184-0.047-1.287-0.346-1.843-1.425-0.502-0.974-0.359-2.198 0.364-3.121 6.187-5.406 12.373-10.81 18.559-16.216z" fill="none" stroke="#000" stroke-miterlimit="10"/>
    </g>
    <g id="g1700" transform="translate(15.049 409.96)">
     <path id="path1702" d="m0 0 41.061-264.6 367.84 38.019 44.577 21.726-31.611 256.06-208.09-35.8z" fill="#009a00"/>
    </g>
    <g id="g1704" transform="translate(15.049 409.96)">
     <path id="path1706" d="m0 0 41.061-264.6 367.84 38.019 44.577 21.726-31.611 256.06-208.09-35.8z" fill="none" stroke="#000" stroke-miterlimit="10"/>
    </g>
    <g id="g1708" transform="translate(447.12 183.72)">
     <path id="path1710" d="m0 0s-127.36-34.725-182.81-16.884c-90.484-46.212-183.75-31.827-183.75-31.827l-45.753 290.38s26.181 13.215 63.436 20.288c8.319 1.569 17.199 2.845 26.462 3.589 31.641 2.58 67.774-0.983 101.64-19.25 16.331 12.071 41.848 27.812 75.964 37.623 47.922 13.773 88.776 8.881 111.08 4.441 11.253-96.119 22.48-192.24 33.734-288.36" fill="#fff"/>
    </g>
    <g id="g1712" transform="translate(447.12 183.72)">
     <path id="path1714" d="m0 0s-127.36-34.725-182.81-16.884c-90.484-46.212-183.75-31.827-183.75-31.827l-45.753 290.38s26.181 13.215 63.436 20.288c8.319 1.569 17.199 2.845 26.462 3.589 31.641 2.58 67.774-0.983 101.64-19.25 16.331 12.071 41.848 27.812 75.964 37.623 47.922 13.773 88.776 8.881 111.08 4.441 11.253-96.119 22.48-192.24 33.734-288.36z" fill="none" stroke="#000" stroke-miterlimit="10"/>
    </g>
    <g id="g1716" transform="translate(226.83 430.02)">
     <path id="path1718" d="m0 0 37.248-262.94" fill="none" stroke="#000" stroke-miterlimit="10"/>
    </g>
    <g id="g1720" transform="translate(97.345 311.22)">
     <path id="path1722" d="m0 0 104.84 14.793" fill="none" stroke="#000" stroke-miterlimit="10"/>
    </g>
    <g id="g1724" transform="translate(102.81 275.95)">
     <path id="path1726" d="m0 0 104.84 14.793" fill="none" stroke="#000" stroke-miterlimit="10"/>
    </g>
    <g id="g1728" transform="translate(109.36 234.98)">
     <path id="path1730" d="m0 0 104.84 14.793" fill="none" stroke="#000" stroke-miterlimit="10"/>
    </g>
    <g id="g1732" transform="translate(114.82 192.87)">
     <path id="path1734" d="m0 0 104.84 14.794" fill="none" stroke="#000" stroke-miterlimit="10"/>
    </g>
    <g id="g1736" transform="translate(287.22 338.65)">
     <path id="path1738" d="m0 0 104.84 14.794" fill="none" stroke="#000" stroke-miterlimit="10"/>
    </g>
    <g id="g1740" transform="translate(292.68 303.37)">
     <path id="path1742" d="m0 0 104.84 14.794" fill="none" stroke="#000" stroke-miterlimit="10"/>
    </g>
    <g id="g1744" transform="translate(299.23 262.41)">
     <path id="path1746" d="m0 0 104.84 14.793" fill="none" stroke="#000" stroke-miterlimit="10"/>
    </g>
    <g id="g1748" transform="translate(304.69 220.3)">
     <path id="path1750" d="m0 0 104.84 14.793" fill="none" stroke="#000" stroke-miterlimit="10"/>
    </g>
    <g id="g1752" transform="translate(413.39 472.08)">
     <path id="path1754" d="m0 0 14.308-6.37 31.069-270.23-11.658-11.753z" fill="#fff"/>
    </g>
    <g id="g1756" transform="translate(413.39 472.08)">
     <path id="path1758" d="m0 0 14.308-6.37 31.069-270.23-11.658-11.753z" fill="none" stroke="#000" stroke-miterlimit="10"/>
    </g>
    <g id="g1760" transform="translate(420.99 468.63)">
     <path id="path1762" d="m0 0 32.474-279.13" fill="none" stroke="#000" stroke-miterlimit="10"/>
    </g>
    <g id="g1764" transform="translate(24.544 416.54)">
     <path id="path1766" d="m0 0 16.173-104.66 7.054-45.757 18.192-117.7 14.297-12.424-24.889 158.6-6.484 41.278-14.059 89.509z" fill="#fff"/>
    </g>
    <g id="g1768" transform="translate(24.544 416.54)">
     <path id="path1770" d="m0 0 16.173-104.66 7.054-45.757 18.192-117.7 14.297-12.424-24.889 158.6-6.484 41.278-14.059 89.509z" fill="none" stroke="#000" stroke-miterlimit="10"/>
    </g>
    <g id="g1772" transform="translate(29.544 420.92)">
     <path id="path1774" d="m0 0 43.867-279.68" fill="none" stroke="#000" stroke-miterlimit="10"/>
    </g>
    <g id="g1776" transform="translate(493.53 296.78)">
     <path id="path1778" d="m0 0c-9.74-8.85-22.45-11.13-35.05-10.32l-2.54 20.56c4.15-0.49 8.27-0.56 12.27 0 4.96 0.69 10.969 2.79 13.299 7.61 3.291 6.83 1.59 16.58 0.981 23.82-0.75 8.96-2.07 17.86-3.65 26.73-0.65 3.66-1.36 7.329-2.09 10.98-0.27 1.36-0.54 2.73-0.821 4.09-1.17 5.759-2.37 11.509-3.549 17.25-0.781 3.8 0.389 6.93 2.5 9.13 2.1 2.23 5.129 3.52 8.1 3.6h0.01c1.46 0.05 2.89-0.2 4.18-0.76 0.219-0.09 0.42-0.19 0.63-0.29h9e-3c2.16-1.15 3.881-3.26 4.531-6.48 0.14-0.68 0.28-1.36 0.419-2.04v-0.01c1.63-7.99 3.271-15.98 4.791-24v-0.01c0.58-3 1.12-6 1.639-9.01v-0.01c1.461-8.44 2.711-16.91 3.57-25.46 1.521-15.09 3.18-34.1-9.229-45.38"/>
    </g>
    <g id="g1780" transform="translate(460.64 411.1)">
     <path id="path1782" d="m0 0c0.059 0.064-1.261 2.056-1.606 4.546-0.521 3.746 0.475 9.221 2.016 12.719 1.347 3.056 3.793 5.539 7.212 6.185 3.775 0.713 7.068-2.069 8.001-5.63 0.115 0.368 0.315 0.891 0.649 1.473 0.215 0.373 0.396 0.614 0.449 0.678 0.737 0.904 1.607 1.708 2.593 2.334 2.301 1.46 5.169 1.603 7.682 0.618 2.862-1.123 4.653-3.52 6.359-5.958 0.067 0.049 0.761 0.625 0.828 0.673 4.592 3.327 10.563 1.704 13.727-3.002 7.56-11.242-1.892-24.874-1.892-24.874 11.357-16.411-5.277-22.91-5.277-22.91 4.336-11.179-6.734-15.429-27.201-12.145s-8.291 16.077-8.291 16.077c-24.282 8.783-8.617 25.565-5.249 29.216" fill="#fff"/>
    </g>
    <g id="g1784" transform="translate(460.64 411.1)">
     <path id="path1786" d="m0 0c0.059 0.064-1.261 2.056-1.606 4.546-0.521 3.746 0.475 9.221 2.016 12.719 1.347 3.056 3.793 5.539 7.212 6.185 3.775 0.713 7.068-2.069 8.001-5.63 0.115 0.368 0.315 0.891 0.649 1.473 0.215 0.373 0.396 0.614 0.449 0.678 0.737 0.904 1.607 1.708 2.593 2.334 2.301 1.46 5.169 1.603 7.682 0.618 2.862-1.123 4.653-3.52 6.359-5.958 0.067 0.049 0.761 0.625 0.828 0.673 4.592 3.327 10.563 1.704 13.727-3.002 7.56-11.242-1.892-24.874-1.892-24.874 11.357-16.411-5.277-22.91-5.277-22.91 4.336-11.179-6.734-15.429-27.201-12.145s-8.291 16.077-8.291 16.077c-24.282 8.783-8.617 25.565-5.249 29.216z" fill="none" stroke="#000" stroke-miterlimit="10"/>
    </g>
    <g id="g1788" transform="translate(506.63 416.68)">
     <path id="path1790" d="m0 0s-8.484-21.19-16.615-14.878c-8.251 6.403 3.984 26.263 3.984 26.263" fill="#fff" stroke="#000" stroke-miterlimit="10"/>
    </g>
    <g id="g1792" transform="translate(491.61 423.6)">
     <path id="path1794" d="m0 0c-7.301-14.917-1.861-21.9-1.861-21.9-24.335-8.442-13.349 27.726-13.349 27.726-3.659-12.029-2.338-19.758-2.338-19.758-20.798-6.838-16.493 15.768-10.557 22.188" fill="#fff" stroke="#000" stroke-miterlimit="10"/>
    </g>
    <g id="g1796" transform="translate(465.12 380.91)">
     <path id="path1798" d="m0 0c-5.629 2.642-9.158 6.296-10.595 8.313-3.663 5.142-1.576 11.108 3.011 17.663 5.998 8.572 9.772 11.801 14.086 14.711 3.077 2.075 7.303 2.047 10.056-0.442 7.932-7.171-6.68-23.975-6.68-23.975s19.438 0.366 10.291-17.503" fill="#fff" stroke="#000" stroke-miterlimit="10"/>
    </g>
    <g id="g1800" transform="translate(501.34 377.87)">
     <path id="path1802" d="m0 0c-3.06-1.486-7.312-1.967-12.206-1.712" fill="none" stroke="#000" stroke-miterlimit="10"/>
    </g>
    <g id="g1804" transform="translate(480.49 375.84)">
     <path id="path1806" d="m0 0c-6.274-0.148-12.54 3.523-15.497 5.253" fill="none" stroke="#000" stroke-miterlimit="10"/>
    </g>
    <g id="g1808" transform="translate(129.85 198.1)">
     <path id="path1810" d="m0 0c-0.99-0.969-1.99-1.938-3-2.897-7.042-6.733-14.332-13.218-21.817-19.477-6.063-5.072-12.259-10.001-18.559-14.774-1.34-1.032-2.681-2.042-4.031-3.042-14.126-10.527-32.458-23.034-50.975-20.456-28.663 4-24.003 41.345-19.57 61.564 4.898 22.322 15.178 43.603 26.539 63.657l5.517-34.107c-5.135-11.053-9.403-22.457-11.981-34.241-1.289-5.929-2.331-11.96-2.712-18.023-0.288-4.723-0.835-10.331 1.062-14.806 0.083-0.175 0.918-1.711 1.021-2.01 0.165-0.197 0.371-0.382 0.567-0.557 0.268-0.176 0.928-0.619 1.258-0.805 0.103-0.041 0.196-0.072 0.247-0.092 1.444-0.547 4.898-0.279 6.331 0.062 5.011 1.195 9.898 3.237 14.662 5.804 10.134 5.454 19.713 13.301 28.734 20.467 3.599 2.856 7.146 5.763 10.641 8.743 3.98 3.361 7.888 6.805 11.733 10.321 2.939 2.691 5.826 5.423 8.692 8.196 3.103-2.381 6.063-4.928 8.991-7.526 2.227-1.98 4.433-3.99 6.65-6.001"/>
    </g>
    <g id="g1812" transform="translate(232.23 163.71)">
     <path id="path1814" d="m0 0-7.936 1.275-1.447-7.535-4.018 6.603-6.712-3.44 2.509 7.222-7.415 3.2 7.642 2.449-1.92 7.487 6.404-4.225 4.527 6.09 0.838-7.672 8.049 1.29-5.843-6.524zm-105.43 176.63c-2.282-0.474-4.516 0.992-4.99 3.274-0.474 2.283 0.991 4.517 3.274 4.991 2.282 0.474 4.517-0.992 4.991-3.274 0.474-2.283-0.992-4.517-3.275-4.991m112.02-169.04-76.107 185.48c-3.423 8.343-12.949 12.348-21.306 8.958l-48.63-19.729c-8.277-3.358-12.336-12.729-9.124-21.063l71.907-186.57c3.27-8.483 12.823-12.679 21.282-9.347l52.83 20.81c8.499 3.348 12.616 13.002 9.148 21.453" fill="#ffd900"/>
    </g>
    <g id="g1816" transform="translate(232.23 163.71)">
     <path id="path1818" d="m0 0-7.936 1.275-1.447-7.535-4.018 6.603-6.712-3.44 2.509 7.222-7.415 3.2 7.642 2.449-1.92 7.487 6.404-4.225 4.527 6.09 0.838-7.672 8.049 1.29-5.843-6.524zm-105.43 176.63c-2.282-0.474-4.516 0.992-4.99 3.274-0.474 2.283 0.991 4.517 3.274 4.991 2.282 0.474 4.517-0.992 4.991-3.274 0.474-2.283-0.992-4.517-3.275-4.991zm112.02-169.04-76.107 185.48c-3.423 8.343-12.949 12.348-21.306 8.958l-48.63-19.729c-8.277-3.358-12.336-12.729-9.124-21.063l71.907-186.57c3.27-8.483 12.823-12.679 21.282-9.347l52.83 20.81c8.499 3.348 12.616 13.002 9.148 21.453z" fill="none" stroke="#000" stroke-linecap="round" stroke-miterlimit="10"/>
    </g>
    <g id="g1820" transform="translate(113.92 362.32)">
     <path id="path1822" d="m0 0c-5.807 3.693-13.227 4.811-19.71 2.289-6.553-2.549-11.707-8.262-15.176-14.223-2.978-5.117-4.109-10.928-4-16.803 0.217-11.626 5.138-23.021 3.591-34.708-0.864-6.52-4.729-12.085-10.18-15.667-5.023-3.301-11.138-5.394-14.952-10.275-3.709-4.746-3.096-10.813-0.378-15.894 1.901-3.553 4.827-6.851 8.517-8.447-1.08-1.506-1.587-3.309-1.717-5.175-0.346-4.944 1.63-9.798 4.464-13.764 1.226-1.714 3.851 0.247 2.622 1.966-2.132 2.983-3.707 6.516-3.858 10.222-0.057 1.383 0.174 3.313 0.782 4.318 0.146 0.241 0.316 0.473 0.492 0.696-0.046-0.344-0.078-0.69-0.074-1.045 0.018-1.688 0.66-3.42 1.405-4.913 1.736-3.48 4.583-6.002 7.71-8.219 1.713-1.214 3.755 1.349 2.028 2.573-2.537 1.798-5.068 3.795-6.56 6.591-0.636 1.193-1.219 2.559-1.311 3.923-0.044 0.652 0.143 1.345 0.396 2.033 1.879-0.796 3.525-2.489 4.866-3.85 2.321-2.356 4.269-5.059 6.377-7.601 1.34-1.615 3.973 0.337 2.622 1.966-2.356 2.841-4.545 5.82-7.18 8.417-1.343 1.324-2.881 2.742-4.614 3.684 5.623 3.167 13.011-0.803 16.893-5.563 1.328-1.627 3.96 0.325 2.622 1.966-2.967 3.638-7.017 6.486-11.604 7.625-2.961 0.734-5.885 0.456-8.475-0.711 0.873 1.855 2.099 3.484 3.903 4.122 1.59 0.562 3.42 0.34 5.032 6e-3 1.778-0.369 3.495-1.019 5.091-1.883 1.856-1.004 3.153 2.006 1.309 3.003-3.656 1.978-8.825 3.45-12.865 1.835-3.781-1.514-5.699-5.682-6.805-9.525-0.447 0.045-0.895 0.069-1.29 0.137-3.633 0.626-6.158 3.9-7.803 6.95-2.147 3.982-2.981 8.746-0.024 12.529 3.509 4.49 9.379 6.494 14.043 9.486 4.943 3.171 8.952 7.977 10.751 13.605 3.419 10.698-0.444 22.146-1.951 32.83-0.74 5.245-1.002 10.614 0.379 15.781 1.573 5.888 5.507 11.435 10.148 15.321 2.723 2.28 5.928 4.043 9.473 4.586 3.665 0.561 7.466-0.083 10.829-1.615 6.418-2.925 10.645-9.225 13.597-15.384 0.905-1.89 3.961-0.708 3.049 1.198-2.874 5.998-6.743 11.969-12.464 15.607"/>
    </g>
    <g id="g1824" transform="translate(113.92 362.32)">
     <path id="path1826" d="m0 0c-5.807 3.693-13.227 4.811-19.71 2.289-6.553-2.549-11.707-8.262-15.176-14.223-2.978-5.117-4.109-10.928-4-16.803 0.217-11.626 5.138-23.021 3.591-34.708-0.864-6.52-4.729-12.085-10.18-15.667-5.023-3.301-11.138-5.394-14.952-10.275-3.709-4.746-3.096-10.813-0.378-15.894 1.901-3.553 4.827-6.851 8.517-8.447-1.08-1.506-1.587-3.309-1.717-5.175-0.346-4.944 1.63-9.798 4.464-13.764 1.226-1.714 3.851 0.247 2.622 1.966-2.132 2.983-3.707 6.516-3.858 10.222-0.057 1.383 0.174 3.313 0.782 4.318 0.146 0.241 0.316 0.473 0.492 0.696-0.046-0.344-0.078-0.69-0.074-1.045 0.018-1.688 0.66-3.42 1.405-4.913 1.736-3.48 4.583-6.002 7.71-8.219 1.713-1.214 3.755 1.349 2.028 2.573-2.537 1.798-5.068 3.795-6.56 6.591-0.636 1.193-1.219 2.559-1.311 3.923-0.044 0.652 0.143 1.345 0.396 2.033 1.879-0.796 3.525-2.489 4.866-3.85 2.321-2.356 4.269-5.059 6.377-7.601 1.34-1.615 3.973 0.337 2.622 1.966-2.356 2.841-4.545 5.82-7.18 8.417-1.343 1.324-2.881 2.742-4.614 3.684 5.623 3.167 13.011-0.803 16.893-5.563 1.328-1.627 3.96 0.325 2.622 1.966-2.967 3.638-7.017 6.486-11.604 7.625-2.961 0.734-5.885 0.456-8.475-0.711 0.873 1.855 2.099 3.484 3.903 4.122 1.59 0.562 3.42 0.34 5.032 6e-3 1.778-0.369 3.495-1.019 5.091-1.883 1.856-1.004 3.153 2.006 1.309 3.003-3.656 1.978-8.825 3.45-12.865 1.835-3.781-1.514-5.699-5.682-6.805-9.525-0.447 0.045-0.895 0.069-1.29 0.137-3.633 0.626-6.158 3.9-7.803 6.95-2.147 3.982-2.981 8.746-0.024 12.529 3.509 4.49 9.379 6.494 14.043 9.486 4.943 3.171 8.952 7.977 10.751 13.605 3.419 10.698-0.444 22.146-1.951 32.83-0.74 5.245-1.002 10.614 0.379 15.781 1.573 5.888 5.507 11.435 10.148 15.321 2.723 2.28 5.928 4.043 9.473 4.586 3.665 0.561 7.466-0.083 10.829-1.615 6.418-2.925 10.645-9.225 13.597-15.384 0.905-1.89 3.961-0.708 3.049 1.198-2.874 5.998-6.743 11.969-12.464 15.607z" fill="none" stroke="#000" stroke-miterlimit="10"/>
    </g>
    <g id="g1828" transform="translate(130.09 303.81)">
     <path id="path1830" d="m0 0c-3.679 9.506-9.954 16.593-15.932 18.828-2.333 0.867-4.61 0.998-6.686 0.245-7.378-2.675-9.215-15.553-4.103-28.761s15.239-21.749 22.617-19.073c1.964 0.712 3.534 2.142 4.68 4.101 3.183 5.433 3.18 14.955-0.576 24.66" fill="#fff"/>
    </g>
    <g id="g1832" transform="translate(130.09 303.81)">
     <path id="path1834" d="m0 0c-3.679 9.506-9.954 16.593-15.932 18.828-2.333 0.867-4.61 0.998-6.686 0.245-7.378-2.675-9.215-15.553-4.103-28.761s15.239-21.749 22.617-19.073c1.964 0.712 3.534 2.142 4.68 4.101 3.183 5.433 3.18 14.955-0.576 24.66z" fill="none" stroke="#000" stroke-miterlimit="10"/>
    </g>
    <g id="g1836" transform="translate(130.66 279.15)">
     <path id="path1838" d="m0 0c-7.253-1.778-16.406 5.648-20.859 17.154-0.146 0.378-0.285 0.756-0.418 1.133l10.958 4.633-12.477 1.143c-1.593 9.044 0.768 16.953 6.288 19.424 5.978-2.235 12.253-9.321 15.932-18.827 3.756-9.705 3.759-19.227 0.576-24.66"/>
    </g>
    <g id="g1840" transform="translate(130.66 279.15)">
     <path id="path1842" d="m0 0c-7.253-1.778-16.406 5.648-20.859 17.154-0.146 0.378-0.285 0.756-0.418 1.133l10.958 4.633-12.477 1.143c-1.593 9.044 0.768 16.953 6.288 19.424 5.978-2.235 12.253-9.321 15.932-18.827 3.756-9.705 3.759-19.227 0.576-24.66z" fill="none" stroke="#000" stroke-miterlimit="10"/>
    </g>
    <g id="g1844" transform="translate(93.692 309.46)">
     <path id="path1846" d="m0 0 6.479 1.312" fill="none" stroke="#000" stroke-miterlimit="10"/>
    </g>
    <g id="g1848" transform="translate(93.986 314.73)">
     <path id="path1850" d="m0 0 6.98-0.923" fill="#fff" stroke="#000" stroke-miterlimit="10"/>
    </g>
    <g id="g1852" transform="translate(171.52 320.45)">
     <path id="path1854" d="m0 0c-3.814 9.478-10.21 16.572-16.251 18.839-2.357 0.88-4.65 1.027-6.728 0.295-7.391-2.603-9.086-15.392-3.786-28.561 5.3-13.17 15.588-21.738 22.979-19.135 1.967 0.693 3.53 2.104 4.66 4.042 3.137 5.377 3.02 14.843-0.874 24.52" fill="#fff"/>
    </g>
    <g id="g1856" transform="translate(171.52 320.45)">
     <path id="path1858" d="m0 0c-3.814 9.478-10.21 16.572-16.251 18.839-2.357 0.88-4.65 1.027-6.728 0.295-7.391-2.603-9.086-15.392-3.786-28.561 5.3-13.17 15.588-21.738 22.979-19.135 1.967 0.693 3.53 2.104 4.66 4.042 3.137 5.377 3.02 14.843-0.874 24.52z" fill="none" stroke="#000" stroke-miterlimit="10"/>
    </g>
    <g id="g1860" transform="translate(172.39 295.93)">
     <path id="path1862" d="m0 0c-7.275-1.712-16.571 5.741-21.188 17.213-0.152 0.377-0.296 0.753-0.434 1.129l10.968 4.523-12.565 1.231c-1.71 9.003 0.571 16.848 6.094 19.263 6.041-2.267 12.438-9.361 16.251-18.839 3.895-9.677 4.012-19.143 0.874-24.52"/>
    </g>
    <g id="g1864" transform="translate(172.39 295.93)">
     <path id="path1866" d="m0 0c-7.275-1.712-16.571 5.741-21.188 17.213-0.152 0.377-0.296 0.753-0.434 1.129l10.968 4.523-12.565 1.231c-1.71 9.003 0.571 16.848 6.094 19.263 6.041-2.267 12.438-9.361 16.251-18.839 3.895-9.677 4.012-19.143 0.874-24.52z" fill="none" stroke="#000" stroke-miterlimit="10"/>
    </g>
    <g id="g1868" transform="translate(168.21 338.27)">
     <path id="path1870" d="m0 0-5.234-3.73" fill="none" stroke="#000" stroke-miterlimit="10"/>
    </g>
    <g id="g1872" transform="translate(163.65 341.48)">
     <path id="path1874" d="m0 0-3.252-5.044" fill="none" stroke="#000" stroke-miterlimit="10"/>
    </g>
    <g id="g1876" transform="translate(153.54 293.24)">
     <path id="path1878" d="m0 0s12.58-27.473 2.483-31.276c-11.492-4.329-19.493 24.869-19.493 24.869 1.762-0.206 5.355-0.386 9.453 1.2 3.909 1.514 6.376 3.898 7.557 5.207" fill="#fff"/>
    </g>
    <g id="g1880" transform="translate(153.54 293.24)">
     <path id="path1882" d="m0 0s12.58-27.473 2.483-31.276c-11.492-4.329-19.493 24.869-19.493 24.869 1.762-0.206 5.355-0.386 9.453 1.2 3.909 1.514 6.376 3.898 7.557 5.207z" fill="none" stroke="#000" stroke-miterlimit="10"/>
    </g>
    <g id="g1884" transform="translate(149 289.52)">
     <path id="path1886" d="m0 0 4.799-12.649 4.841-12.751 4e-3 -0.012" fill="none" stroke="#000" stroke-miterlimit="10"/>
    </g>
    <g id="g1888" transform="translate(142.72 287.08)">
     <path id="path1890" d="m0 0 4.87-12.541 5.01-12.905" fill="none" stroke="#000" stroke-miterlimit="10"/>
    </g>
    <g id="g1892" transform="translate(158.65 278.7)">
     <path id="path1894" d="m0 0-4.854-1.833-6.204-2.334-5.474-2.055" fill="none" stroke="#000" stroke-miterlimit="10"/>
    </g>
    <g id="g1896" transform="translate(146.9 299.65)">
     <path id="path1898" d="m0 0c0.951-2.717-0.481-5.691-3.199-6.642-2.717-0.951-5.691 0.481-6.641 3.199-0.952 2.717 0.481 5.691 3.198 6.642 2.717 0.95 5.691-0.482 6.642-3.199" fill="#b687ff"/>
    </g>
    <g id="g1900" transform="translate(146.9 299.65)">
     <path id="path1902" d="m0 0c0.951-2.717-0.481-5.691-3.199-6.642-2.717-0.951-5.691 0.481-6.641 3.199-0.952 2.717 0.481 5.691 3.198 6.642 2.717 0.95 5.691-0.482 6.642-3.199z" fill="none" stroke="#000" stroke-miterlimit="10"/>
    </g>
    <g id="g1904" transform="translate(107.62 214.97)">
     <path id="path1906" d="m0 0c1.125 0.662 0.377 3.783 0.128 5.111-1.618 8.622 3.519 17.84 7.539 22.358 1.625 1.827 6.891 8.145 11.396 7.956 9.645-0.403 3.695-16.184 1.999-21.191 2.106 1.192 2.63 1.472 3.178 1.786 1.046 0.6 2.086 1.211 3.116 1.839 1.837 1.119 3.637 2.294 5.398 3.528 4.138 2.9 7.953 6.238 12.124 9.085 2.801 1.912 7.08 4.871 10.642 3.336 2.382-1.028 2.973-4.022 3.281-6.316l0.024-0.177s10.279-0.106 6.124-11.496c1.114-0.221 2.424-0.303 3.23-1.2 2.899-3.224 0.084-10.148-1.369-13.402-3.685-8.251-9.777-16.749-16.606-22.745-5.667-4.975-12.627-7.777-20.174-8.033-1.468-0.05-2.937-0.012-4.402 0.095-1.239 0.091-3.614 0.917-4.753 0.588-0.022-7e-3 -0.086-1.749-0.102-1.864-0.195-1.436-0.635-2.864-1.405-4.1-1.793-2.88-5.211-4.644-8.582-3.667-5.073 1.47-7.826 6.462-10.325 10.703-2.999 5.091-6.457 9.871-9.732 14.797-9.832 14.789 3.881 14.647 5.988 14.007 3.12-0.948 2.677-1.354 3.283-0.998" fill="#fff"/>
    </g>
    <g id="g1908" transform="translate(107.62 214.97)">
     <path id="path1910" d="m0 0c1.125 0.662 0.377 3.783 0.128 5.111-1.618 8.622 3.519 17.84 7.539 22.358 1.625 1.827 6.891 8.145 11.396 7.956 9.645-0.403 3.695-16.184 1.999-21.191 2.106 1.192 2.63 1.472 3.178 1.786 1.046 0.6 2.086 1.211 3.116 1.839 1.837 1.119 3.637 2.294 5.398 3.528 4.138 2.9 7.953 6.238 12.124 9.085 2.801 1.912 7.08 4.871 10.642 3.336 2.382-1.028 2.973-4.022 3.281-6.316l0.024-0.177s10.279-0.106 6.124-11.496c1.114-0.221 2.424-0.303 3.23-1.2 2.899-3.224 0.084-10.148-1.369-13.402-3.685-8.251-9.777-16.749-16.606-22.745-5.667-4.975-12.627-7.777-20.174-8.033-1.468-0.05-2.937-0.012-4.402 0.095-1.239 0.091-3.614 0.917-4.753 0.588-0.022-7e-3 -0.086-1.749-0.102-1.864-0.195-1.436-0.635-2.864-1.405-4.1-1.793-2.88-5.211-4.644-8.582-3.667-5.073 1.47-7.826 6.462-10.325 10.703-2.999 5.091-6.457 9.871-9.732 14.797-9.832 14.789 3.881 14.647 5.988 14.007 3.12-0.948 2.677-1.354 3.283-0.998z" fill="none" stroke="#000" stroke-miterlimit="10"/>
    </g>
    <g id="g1912" transform="translate(141.66 219.94)">
     <path id="path1914" d="m0 0s17.585 10.719 24.787 22.354" fill="none" stroke="#000" stroke-miterlimit="10"/>
    </g>
    <g id="g1916" transform="translate(173 230.8)">
     <path id="path1918" d="m0 0s-10.906-15.008-21.051-21.792" fill="none" stroke="#000" stroke-miterlimit="10"/>
    </g>
    <g id="g1920" transform="translate(108.01 215.33)">
     <path id="path1922" d="m0 0 3.797-5.609" fill="none" stroke="#000" stroke-miterlimit="10"/>
    </g>
    <g id="g1924" transform="translate(125.31 191.34)">
     <path id="path1926" d="m0 0 3.06-5.284" fill="none" stroke="#000" stroke-miterlimit="10"/>
    </g>
    <g id="g1928" transform="translate(192.08 442.83)">
     <path id="path1930" d="m0 0c3.283-28.629-7.998-53.89-25.681-59.61-1.554-0.525-3.18-0.865-4.824-1.054-20.416-2.341-39.87 21.011-43.444 52.185-3.57 31.135 10.092 58.284 30.509 60.625 1.644 0.189 3.304 0.226 4.937 0.067 18.519-1.57 35.22-23.583 38.503-52.213" fill="#fff"/>
    </g>
    <g id="g1932" transform="translate(192.08 442.83)">
     <path id="path1934" d="m0 0c3.283-28.629-7.998-53.89-25.681-59.61-1.554-0.525-3.18-0.865-4.824-1.054-20.416-2.341-39.87 21.011-43.444 52.185-3.57 31.135 10.092 58.284 30.509 60.625 1.644 0.189 3.304 0.226 4.937 0.067 18.519-1.57 35.22-23.583 38.503-52.213z" fill="none" stroke="#000" stroke-miterlimit="10"/>
    </g>
    <g id="g1936" transform="translate(153.57 495.04)">
     <path id="path1938" d="m0 0c-3.205-10.793-7.363-35.324-6.802-51.388l15.264-4.489-13.223-11.834c3.089-15.761 12.019-34.303 17.583-44.112 17.683 5.72 28.964 30.981 25.681 59.61-3.283 28.63-19.984 50.643-38.503 52.213"/>
    </g>
    <g id="g1940" transform="translate(153.57 495.04)">
     <path id="path1942" d="m0 0c-3.205-10.793-7.363-35.324-6.802-51.388l15.264-4.489-13.223-11.834c3.089-15.761 12.019-34.303 17.583-44.112 17.683 5.72 28.964 30.981 25.681 59.61-3.283 28.63-19.984 50.643-38.503 52.213z" fill="none" stroke="#000" stroke-miterlimit="10"/>
    </g>
    <g id="g1944" transform="translate(333.14 458.88)">
     <path id="path1946" d="m0 0c3.283-28.629-7.997-53.89-25.681-59.61-1.554-0.525-3.18-0.865-4.824-1.054-20.417-2.341-39.869 21.011-43.444 52.185-3.57 31.135 10.093 58.284 30.51 60.625 1.643 0.189 3.303 0.226 4.936 0.066 18.52-1.569 35.221-23.582 38.503-52.212" fill="#fff"/>
    </g>
    <g id="g1948" transform="translate(333.14 458.88)">
     <path id="path1950" d="m0 0c3.283-28.629-7.997-53.89-25.681-59.61-1.554-0.525-3.18-0.865-4.824-1.054-20.417-2.341-39.869 21.011-43.444 52.185-3.57 31.135 10.093 58.284 30.51 60.625 1.643 0.189 3.303 0.226 4.936 0.066 18.52-1.569 35.221-23.582 38.503-52.212z" fill="none" stroke="#000" stroke-miterlimit="10"/>
    </g>
    <g id="g1952" transform="translate(294.63 511.09)">
     <path id="path1954" d="m0 0c-3.205-10.793-7.422-36.435-6.86-52.498l13.825-3.667-13.078-9.839c3.089-15.761 13.371-36.01 18.935-45.819 17.684 5.721 28.964 30.981 25.681 59.611-3.282 28.629-19.983 50.643-38.503 52.212"/>
    </g>
    <g id="g1956" transform="translate(294.63 511.09)">
     <path id="path1958" d="m0 0c-3.205-10.793-7.422-36.435-6.86-52.498l13.825-3.667-13.078-9.839c3.089-15.761 13.371-36.01 18.935-45.819 17.684 5.721 28.964 30.981 25.681 59.611-3.282 28.629-19.983 50.643-38.503 52.212z" fill="none" stroke="#000" stroke-miterlimit="10"/>
    </g>
    <g id="g1960" transform="translate(263.28 451.97)">
     <path id="path1962" d="m0 0c3.282-28.629-7.998-53.89-25.681-59.61-1.554-0.525-3.18-0.865-4.824-1.054-20.417-2.34-39.87 21.011-43.444 52.185-3.57 31.136 10.092 58.284 30.509 60.625 1.644 0.189 3.304 0.226 4.937 0.066 18.519-1.569 35.22-23.582 38.503-52.212" fill="#fff"/>
    </g>
    <g id="g1964" transform="translate(263.28 451.97)">
     <path id="path1966" d="m0 0c3.282-28.629-7.998-53.89-25.681-59.61-1.554-0.525-3.18-0.865-4.824-1.054-20.417-2.34-39.87 21.011-43.444 52.185-3.57 31.136 10.092 58.284 30.509 60.625 1.644 0.189 3.304 0.226 4.937 0.066 18.519-1.569 35.22-23.582 38.503-52.212z" fill="none" stroke="#000" stroke-miterlimit="10"/>
    </g>
    <g id="g1968" transform="translate(224.77 504.18)">
     <path id="path1970" d="m0 0c-3.206-10.792-8.075-36.341-7.513-52.405l15.474-3.172-13.99-11.618c3.09-15.761 13.287-34.819 18.851-44.628 17.683 5.721 28.963 30.981 25.681 59.611-3.283 28.629-19.984 50.643-38.503 52.212"/>
    </g>
    <g id="g1972" transform="translate(224.77 504.18)">
     <path id="path1974" d="m0 0c-3.206-10.792-8.075-36.341-7.513-52.405l15.474-3.172-13.99-11.618c3.09-15.761 13.287-34.819 18.851-44.628 17.683 5.721 28.963 30.981 25.681 59.611-3.283 28.629-19.984 50.643-38.503 52.212z" fill="none" stroke="#000" stroke-miterlimit="10"/>
    </g>
    <g id="g1976" transform="translate(301.91 380.74)">
     <path id="path1978" d="m0 0c0.889-5.043-0.723-10.416-4.774-15.024-14.1-16.036-36.057-23.894-58.929-26.648-20.709-2.493-48.377 0.297-65.29 14.369-11.501 9.569-6.151 23.378 5.947 28.847 18.164 8.211 36.929-0.678 55.692 1.057 12.261 1.133 23.73 7.899 35.351 11.331 8.468 2.501 17.233 2.681 24.483-2.6 4.282-3.119 6.777-7.11 7.52-11.332" fill="#ff1930"/>
    </g>
    <g id="g1980" transform="translate(301.91 380.74)">
     <path id="path1982" d="m0 0c0.889-5.043-0.723-10.416-4.774-15.024-14.1-16.036-36.057-23.894-58.929-26.648-20.709-2.493-48.377 0.297-65.29 14.369-11.501 9.569-6.151 23.378 5.947 28.847 18.164 8.211 36.929-0.678 55.692 1.057 12.261 1.133 23.73 7.899 35.351 11.331 8.468 2.501 17.233 2.681 24.483-2.6 4.282-3.119 6.777-7.11 7.52-11.332z" fill="none" stroke="#000" stroke-miterlimit="10"/>
    </g>
    <g id="g1984" transform="translate(197.18 372.42)">
     <path id="path1986" d="m0 0c4.888-3.62 18.179-12.398 35.783-10.963 18.008 1.468 29.82 12.75 33.968 17.148" fill="none" stroke="#000" stroke-miterlimit="10"/>
    </g>
    <g id="g1988" transform="translate(87.25 60.995)">
     <path id="path1990" d="m0 0h53.747" fill="none" stroke="#000" stroke-miterlimit="10"/>
    </g>
    <g id="g1992" transform="translate(61.958 46.451)">
     <path id="path1994" d="m0 0h66.393" fill="none" stroke="#000" stroke-miterlimit="10"/>
    </g>
   </g>
  </g>
 </g>
</svg>
