<?xml version="1.0" encoding="UTF-8"?>
<!-- Created with Inkscape (http://www.inkscape.org/) -->
<svg id="svg2" width="682.67" height="682.67" version="1.1" viewBox="0 0 682.67 682.67" xmlns="http://www.w3.org/2000/svg">
 <defs id="defs6">
  <clipPath id="clipPath1800">
   <path id="path1798" d="m0 512h512v-512h-512z"/>
  </clipPath>
 </defs>
 <g id="g1792" transform="matrix(1.3333 0 0 -1.3333 9.2275e-6 682.67)">
  <g id="g1794">
   <g id="g1796" clip-path="url(#clipPath1800)">
    <g id="g1802" transform="translate(264.09 453.39)">
     <path id="path1804" d="m0 0c-9.891-6.412-12.079-10.683-13.213-25.793-5.765 14.014-9.169 17.396-20.56 20.424 9.89 6.412 12.078 10.683 13.212 25.793 5.765-14.013 9.17-17.395 20.561-20.424" fill="#fff"/>
    </g>
    <g id="g1806" transform="translate(264.09 453.39)">
     <path id="path1808" d="m0 0c-9.891-6.412-12.079-10.683-13.213-25.793-5.765 14.014-9.169 17.396-20.56 20.424 9.89 6.412 12.078 10.683 13.212 25.793 5.765-14.013 9.17-17.395 20.561-20.424z" fill="none" stroke="#000" stroke-miterlimit="10"/>
    </g>
    <g id="g1810" transform="translate(264.09 453.39)">
     <path id="path1812" d="m0 0c-9.891-6.412-12.079-10.683-13.213-25.793-5.765 14.014-9.169 17.396-20.56 20.424 9.89 6.412 12.078 10.683 13.212 25.793 5.765-14.013 9.17-17.395 20.561-20.424" fill="#fff"/>
    </g>
    <g id="g1814" transform="translate(264.09 453.39)">
     <path id="path1816" d="m0 0c-9.891-6.412-12.079-10.683-13.213-25.793-5.765 14.014-9.169 17.396-20.56 20.424 9.89 6.412 12.078 10.683 13.212 25.793 5.765-14.013 9.17-17.395 20.561-20.424z" fill="none" stroke="#000" stroke-miterlimit="10"/>
    </g>
    <g id="g1818" transform="translate(313.43 69.396)">
     <path id="path1820" d="m0 0c-9.891-6.412-12.079-10.683-13.214-25.793-5.764 14.014-9.169 17.396-20.56 20.424 9.89 6.412 12.079 10.683 13.213 25.793 5.764-14.013 9.169-17.395 20.561-20.424" fill="#fff"/>
    </g>
    <g id="g1822" transform="translate(313.43 69.396)">
     <path id="path1824" d="m0 0c-9.891-6.412-12.079-10.683-13.214-25.793-5.764 14.014-9.169 17.396-20.56 20.424 9.89 6.412 12.079 10.683 13.213 25.793 5.764-14.013 9.169-17.395 20.561-20.424z" fill="none" stroke="#000" stroke-miterlimit="10"/>
    </g>
    <g id="g1826" transform="translate(313.43 69.396)">
     <path id="path1828" d="m0 0c-9.891-6.412-12.079-10.683-13.214-25.793-5.764 14.014-9.169 17.396-20.56 20.424 9.89 6.412 12.079 10.683 13.213 25.793 5.764-14.013 9.169-17.395 20.561-20.424" fill="#fff"/>
    </g>
    <g id="g1830" transform="translate(313.43 69.396)">
     <path id="path1832" d="m0 0c-9.891-6.412-12.079-10.683-13.214-25.793-5.764 14.014-9.169 17.396-20.56 20.424 9.89 6.412 12.079 10.683 13.213 25.793 5.764-14.013 9.169-17.395 20.561-20.424z" fill="none" stroke="#000" stroke-miterlimit="10"/>
    </g>
    <g id="g1834" transform="translate(483.29 294.57)">
     <path id="path1836" d="m0 0c-7.641-1.337-10.066-3.36-14.644-12.219 0.117 9.971-1.074 12.897-7.194 17.664 7.642 1.336 10.067 3.361 14.645 12.219-0.118-9.971 1.074-12.896 7.193-17.664" fill="#fff"/>
    </g>
    <g id="g1838" transform="translate(483.29 294.57)">
     <path id="path1840" d="m0 0c-7.641-1.337-10.066-3.36-14.644-12.219 0.117 9.971-1.074 12.897-7.194 17.664 7.642 1.336 10.067 3.361 14.645 12.219-0.118-9.971 1.074-12.896 7.193-17.664z" fill="none" stroke="#000" stroke-miterlimit="10"/>
    </g>
    <g id="g1842" transform="translate(483.29 294.57)">
     <path id="path1844" d="m0 0c-7.641-1.337-10.066-3.36-14.644-12.219 0.117 9.971-1.074 12.897-7.194 17.664 7.642 1.336 10.067 3.361 14.645 12.219-0.118-9.971 1.074-12.896 7.193-17.664" fill="#fff"/>
    </g>
    <g id="g1846" transform="translate(483.29 294.57)">
     <path id="path1848" d="m0 0c-7.641-1.337-10.066-3.36-14.644-12.219 0.117 9.971-1.074 12.897-7.194 17.664 7.642 1.336 10.067 3.361 14.645 12.219-0.118-9.971 1.074-12.896 7.193-17.664z" fill="none" stroke="#000" stroke-miterlimit="10"/>
    </g>
    <g id="g1850" transform="translate(36.031 306.46)">
     <path id="path1852" d="m0 0c-5.423-4.067-6.51-6.604-6.568-15.318-3.858 7.814-5.944 9.621-12.599 10.911 5.423 4.067 6.511 6.603 6.568 15.318 3.858-7.814 5.944-9.621 12.599-10.911" fill="#fff"/>
    </g>
    <g id="g1854" transform="translate(36.031 306.46)">
     <path id="path1856" d="m0 0c-5.423-4.067-6.51-6.604-6.568-15.318-3.858 7.814-5.944 9.621-12.599 10.911 5.423 4.067 6.511 6.603 6.568 15.318 3.858-7.814 5.944-9.621 12.599-10.911z" fill="none" stroke="#000" stroke-miterlimit="10"/>
    </g>
    <g id="g1858" transform="translate(36.031 306.46)">
     <path id="path1860" d="m0 0c-5.423-4.067-6.51-6.604-6.568-15.318-3.858 7.814-5.944 9.621-12.599 10.911 5.423 4.067 6.511 6.603 6.568 15.318 3.858-7.814 5.944-9.621 12.599-10.911" fill="#fff"/>
    </g>
    <g id="g1862" transform="translate(36.031 306.46)">
     <path id="path1864" d="m0 0c-5.423-4.067-6.51-6.604-6.568-15.318-3.858 7.814-5.944 9.621-12.599 10.911 5.423 4.067 6.511 6.603 6.568 15.318 3.858-7.814 5.944-9.621 12.599-10.911z" fill="none" stroke="#000" stroke-miterlimit="10"/>
    </g>
    <g id="g1866" transform="translate(510.53 95.64)">
     <path id="path1868" d="m0 0c-56.015-11.616-73.422-27.09-105.12-93.446-1.438 73.525-10.893 94.81-57.099 128.54 56.016 11.616 73.423 27.09 105.12 93.446 1.439-73.524 10.894-94.81 57.099-128.54" fill="#00a3f7"/>
    </g>
    <g id="g1870" transform="translate(510.53 95.64)">
     <path id="path1872" d="m0 0c-56.015-11.616-73.422-27.09-105.12-93.446-1.438 73.525-10.893 94.81-57.099 128.54 56.016 11.616 73.423 27.09 105.12 93.446 1.439-73.524 10.894-94.81 57.099-128.54z" fill="none" stroke="#000" stroke-miterlimit="10"/>
    </g>
    <g id="g1874" transform="translate(510.53 95.64)">
     <path id="path1876" d="m0 0c-56.015-11.616-73.422-27.09-105.12-93.446-1.438 73.525-10.893 94.81-57.099 128.54 56.016 11.616 73.423 27.09 105.12 93.446 1.439-73.524 10.894-94.81 57.099-128.54" fill="#00a3f7"/>
    </g>
    <g id="g1878" transform="translate(510.53 95.64)">
     <path id="path1880" d="m0 0c-56.015-11.616-73.422-27.09-105.12-93.446-1.438 73.525-10.893 94.81-57.099 128.54 56.016 11.616 73.423 27.09 105.12 93.446 1.439-73.524 10.894-94.81 57.099-128.54z" fill="none" stroke="#000" stroke-miterlimit="10"/>
    </g>
    <g id="g1882" transform="translate(412.88 156.77)">
     <path id="path1884" d="m0 0c-6.339 1.098-13.7-7.256-16.893-17.223l5.67-3.24-7.22-2.879c-0.7-9.571 3.126-18.174 9.126-19.213 7.03-1.217 14.815 7.322 17.388 19.073s-1.041 22.264-8.071 23.482"/>
    </g>
    <g id="g1886" transform="translate(412.88 156.77)">
     <path id="path1888" d="m0 0c-6.339 1.098-13.7-7.256-16.893-17.223l5.67-3.24-7.22-2.879c-0.7-9.571 3.126-18.174 9.126-19.213 7.03-1.217 14.815 7.322 17.388 19.073s-1.041 22.264-8.071 23.482z" fill="none" stroke="#000" stroke-miterlimit="10"/>
    </g>
    <g id="g1890" transform="translate(399.83 160.87)">
     <path id="path1892" d="m0 0c0.279-1.157 0.797-2.749 1.8-4.394 0.792-1.3 1.654-2.25 2.364-2.912" fill="none" stroke="#000" stroke-miterlimit="10"/>
    </g>
    <g id="g1894" transform="translate(408.13 164.15)">
     <path id="path1896" d="m0 0c-0.062-1.036-0.06-2.308 0.118-3.73 0.196-1.567 0.55-2.868 0.897-3.868" fill="none" stroke="#000" stroke-miterlimit="10"/>
    </g>
    <g id="g1898" transform="translate(416.87 163.38)">
     <path id="path1900" d="m0 0c-0.402-0.912-0.827-2.043-1.165-3.368-0.393-1.535-0.559-2.897-0.623-3.985" fill="none" stroke="#000" stroke-miterlimit="10"/>
    </g>
    <g id="g1902" transform="translate(416.68 135.97)">
     <path id="path1904" d="m0 0c-8.604 0.27-6.483-3.446-9.506-11.45 0.649 8.412 2.868 12.179-5.212 14.783 8.603-0.27 6.806-2.143 9.828 5.86-0.648-8.412-3.191-6.589 4.89-9.193" fill="#fff"/>
    </g>
    <g id="g1906" transform="translate(416.68 135.97)">
     <path id="path1908" d="m0 0c-8.604 0.27-6.483-3.446-9.506-11.45 0.649 8.412 2.868 12.179-5.212 14.783 8.603-0.27 6.806-2.143 9.828 5.86-0.648-8.412-3.191-6.589 4.89-9.193z" fill="none" stroke="#fff" stroke-miterlimit="10"/>
    </g>
    <g id="g1910" transform="translate(462.04 146.9)">
     <path id="path1912" d="m0 0c6.261-1.333 9.096-11.638 7.402-21.877l-6.64-0.861 5.228-5.275c-3.775-8.963-11.211-15.381-17.136-14.12-6.945 1.478-10.078 12.108-7 23.742 3.079 11.634 11.203 19.869 18.146 18.391"/>
    </g>
    <g id="g1914" transform="translate(462.04 146.9)">
     <path id="path1916" d="m0 0c6.261-1.333 9.096-11.638 7.402-21.877l-6.64-0.861 5.228-5.275c-3.775-8.963-11.211-15.381-17.136-14.12-6.945 1.478-10.078 12.108-7 23.742 3.079 11.634 11.203 19.869 18.146 18.391z" fill="none" stroke="#000" stroke-miterlimit="10"/>
    </g>
    <g id="g1918" transform="translate(475.77 145.83)">
     <path id="path1920" d="m0 0c-0.787-0.95-1.99-2.208-3.658-3.335-1.319-0.892-2.538-1.437-3.488-1.779" fill="none" stroke="#000" stroke-miterlimit="10"/>
    </g>
    <g id="g1922" transform="translate(469.75 151.86)">
     <path id="path1924" d="m0 0c-0.421-0.965-1.009-2.121-1.826-3.35-0.9-1.352-1.82-2.405-2.596-3.187" fill="none" stroke="#000" stroke-miterlimit="10"/>
    </g>
    <g id="g1926" transform="translate(461.46 154.38)">
     <path id="path1928" d="m0 0c-0.055-0.979-0.191-2.164-0.494-3.493-0.352-1.54-0.828-2.84-1.271-3.853" fill="none" stroke="#000" stroke-miterlimit="10"/>
    </g>
    <g id="g1930" transform="translate(462.83 121.14)">
     <path id="path1932" d="m0 0c-8.55 0.52-7.191 0.505-10.43-7.407 0.889 8.389 2.981 10.666-4.982 13.504 8.55-0.52 6.934-0.916 10.172 6.996-0.889-8.39-2.723-10.255 5.24-13.093" fill="#fff"/>
    </g>
    <g id="g1934" transform="translate(462.83 121.14)">
     <path id="path1936" d="m0 0c-8.55 0.52-7.191 0.505-10.43-7.407 0.889 8.389 2.981 10.666-4.982 13.504 8.55-0.52 6.934-0.916 10.172 6.996-0.889-8.39-2.723-10.255 5.24-13.093z" fill="none" stroke="#fff" stroke-miterlimit="10"/>
    </g>
    <g id="g1938" transform="translate(429.43 78.001)">
     <path id="path1940" d="m0 0c-2.804-3.063-6.206-4.923-10.253-4.115-3.935 0.778-6.176 3.657-7.355 7.406l3e-3 0.011c-3.094 9.818 1.062 25.634 1.062 25.634l8.608-1.868 10.769-2.341 7.481-1.629s-3.247-15.392-10.315-23.098"/>
    </g>
    <g id="g1942" transform="translate(429.43 78.001)">
     <path id="path1944" d="m0 0c-2.804-3.063-6.206-4.923-10.253-4.115-3.935 0.778-6.176 3.657-7.355 7.406l3e-3 0.011c-3.094 9.818 1.062 25.634 1.062 25.634l8.608-1.868 10.769-2.341 7.481-1.629s-3.247-15.392-10.315-23.098z" fill="none" stroke="#000" stroke-miterlimit="10"/>
    </g>
    <g id="g1946" transform="translate(429.59 78.606)">
     <path id="path1948" d="m0 0c-2.886-3.379-6.35-5.468-10.401-4.682-3.941 0.757-6.131 3.827-7.236 7.862l3e-3 0.011c1.403 5.338 6.433 8.635 11.228 7.375 4.373-1.149 7.052-5.712 6.406-10.566" fill="#ff652d"/>
    </g>
    <g id="g1950" transform="translate(429.59 78.606)">
     <path id="path1952" d="m0 0c-2.886-3.379-6.35-5.468-10.401-4.682-3.941 0.757-6.131 3.827-7.236 7.862l3e-3 0.011c1.403 5.338 6.433 8.635 11.228 7.375 4.373-1.149 7.052-5.712 6.406-10.566z" fill="none" stroke="#000" stroke-miterlimit="10"/>
    </g>
    <g id="g1954" transform="translate(413.39 111.98)">
     <path id="path1956" d="m0 0c0.698-1.909 2.17-6.729 0.844-12.692-1.411-6.344-5.151-10.219-6.614-11.593" fill="#00a3f7" stroke="#000" stroke-miterlimit="10"/>
    </g>
    <g id="g1958" transform="translate(441.69 106.46)">
     <path id="path1960" d="m0 0c-1.295-1.566-4.29-5.618-5.03-11.684-0.787-6.45 1.444-11.35 2.366-13.134" fill="#00a3f7" stroke="#000" stroke-miterlimit="10"/>
    </g>
    <g id="g1962" transform="translate(510.51 422.01)">
     <path id="path1964" d="m0 0c-37.751-10.19-50.334-31.168-68.068-75.75-5.451 47.669-11.662 71.15-45.431 90.864 37.751 10.191 50.863 28.163 68.598 72.745 5.45-47.669 11.132-68.144 44.901-87.859" fill="#00b8f9"/>
    </g>
    <g id="g1966" transform="translate(510.51 422.01)">
     <path id="path1968" d="m0 0c-37.751-10.19-50.334-31.168-68.068-75.75-5.451 47.669-11.662 71.15-45.431 90.864 37.751 10.191 50.863 28.163 68.598 72.745 5.45-47.669 11.132-68.144 44.901-87.859z" fill="none" stroke="#000" stroke-miterlimit="10"/>
    </g>
    <g id="g1970" transform="translate(461.84 417.64)">
     <path id="path1972" d="m0 0c-1.306-3.785-4.714-8.678-9.634-8.169-4.866 0.502-7.743 5.755-8.684 9.707" fill="none" stroke="#000" stroke-miterlimit="10"/>
    </g>
    <g id="g1974" transform="translate(442.76 424.5)">
     <path id="path1976" d="m0 0c0.744-1.485 2.389-5.26 1.868-10.226-0.555-5.282-3.228-8.776-4.289-10.028" fill="#00b8f9" stroke="#000" stroke-miterlimit="10"/>
    </g>
    <g id="g1978" transform="translate(463.63 423.08)">
     <path id="path1980" d="m0 0c-0.906-1.393-2.96-4.961-2.995-9.954-0.037-5.31 2.231-9.08 3.145-10.442" fill="#00b8f9" stroke="#000" stroke-miterlimit="10"/>
    </g>
    <g id="g1982" transform="translate(439.88 453.37)">
     <path id="path1984" d="m0 0c-4.162 0.467-8.286-5.144-9.807-12.921l5.62-3.958-6.222-2.558c0.071-7.331 2.769-13.076 6.709-13.518 4.616-0.519 9.186 6.438 10.209 15.539 1.021 9.1-1.893 16.897-6.509 17.416"/>
    </g>
    <g id="g1986" transform="translate(439.88 453.37)">
     <path id="path1988" d="m0 0c-4.162 0.467-8.286-5.144-9.807-12.921l5.62-3.958-6.222-2.558c0.071-7.331 2.769-13.076 6.709-13.518 4.616-0.519 9.186 6.438 10.209 15.539 1.021 9.1-1.893 16.897-6.509 17.416z" fill="none" stroke="#000" stroke-miterlimit="10"/>
    </g>
    <g id="g1990" transform="translate(472.15 449.87)">
     <path id="path1992" d="m0 0c4.17-0.396 7.056-6.731 6.949-14.656l-6.311-2.722 5.566-3.779c-1.573-7.16-5.391-12.231-9.338-11.857-4.625 0.44-7.672 8.186-6.806 17.302 0.865 9.117 5.315 16.151 9.94 15.712"/>
    </g>
    <g id="g1994" transform="translate(472.15 449.87)">
     <path id="path1996" d="m0 0c4.17-0.396 7.056-6.731 6.949-14.656l-6.311-2.722 5.566-3.779c-1.573-7.16-5.391-12.231-9.338-11.857-4.625 0.44-7.672 8.186-6.806 17.302 0.865 9.117 5.315 16.151 9.94 15.712z" fill="none" stroke="#000" stroke-miterlimit="10"/>
    </g>
    <g id="g1998" transform="translate(62.312 49.509)">
     <path id="path2000" d="m0 0c-17.757-11.512-21.686-19.18-23.722-46.307-10.349 25.159-16.462 31.23-36.913 36.667 17.757 11.512 21.685 19.18 23.722 46.307 10.349-25.158 16.461-31.23 36.913-36.667" fill="#00a3f7"/>
    </g>
    <g id="g2002" transform="translate(62.312 49.509)">
     <path id="path2004" d="m0 0c-17.757-11.512-21.686-19.18-23.722-46.307-10.349 25.159-16.462 31.23-36.913 36.667 17.757 11.512 21.685 19.18 23.722 46.307 10.349-25.158 16.461-31.23 36.913-36.667z" fill="none" stroke="#000" stroke-miterlimit="10"/>
    </g>
    <g id="g2006" transform="translate(62.312 49.509)">
     <path id="path2008" d="m0 0c-17.757-11.512-21.686-19.18-23.722-46.307-10.349 25.159-16.462 31.23-36.913 36.667 17.757 11.512 21.685 19.18 23.722 46.307 10.349-25.158 16.461-31.23 36.913-36.667" fill="#00b7f9"/>
    </g>
    <g id="g2010" transform="translate(62.312 49.509)">
     <path id="path2012" d="m0 0c-17.757-11.512-21.686-19.18-23.722-46.307-10.349 25.159-16.462 31.23-36.913 36.667 17.757 11.512 21.685 19.18 23.722 46.307 10.349-25.158 16.461-31.23 36.913-36.667z" fill="none" stroke="#000" stroke-miterlimit="10"/>
    </g>
    <g id="g2014" transform="translate(38.659 37.361)">
     <path id="path2016" d="m0 0c-0.873-2.278-2.911-3.899-5.295-4.205-3.439-0.441-5.679 2.104-5.838 2.292" fill="none" stroke="#000" stroke-miterlimit="10"/>
    </g>
    <g id="g2018" transform="translate(20.211 56.11)">
     <path id="path2020" d="m0 0c-2.544-0.417-4.053-4.429-3.658-9.291l3.991-1.408-3.262-2.553c1.264-4.332 3.82-7.287 6.228-6.893 2.823 0.462 4.371 5.347 3.46 10.91-0.911 5.562-3.937 9.697-6.759 9.235"/>
    </g>
    <g id="g2022" transform="translate(20.211 56.11)">
     <path id="path2024" d="m0 0c-2.544-0.417-4.053-4.429-3.658-9.291l3.991-1.408-3.262-2.553c1.264-4.332 3.82-7.287 6.228-6.893 2.823 0.462 4.371 5.347 3.46 10.91-0.911 5.562-3.937 9.697-6.759 9.235z" fill="none" stroke="#000" stroke-miterlimit="10"/>
    </g>
    <g id="g2026" transform="translate(38.711 58.936)">
     <path id="path2028" d="m0 0c2.537 0.461 5.303-2.813 6.561-7.526l-3.287-2.665 3.928-1.312c0.261-4.506-1.156-8.146-3.557-8.582-2.814-0.511-5.911 3.572-6.917 9.118s0.459 10.456 3.272 10.967"/>
    </g>
    <g id="g2030" transform="translate(38.711 58.936)">
     <path id="path2032" d="m0 0c2.537 0.461 5.303-2.813 6.561-7.526l-3.287-2.665 3.928-1.312c0.261-4.506-1.156-8.146-3.557-8.582-2.814-0.511-5.911 3.572-6.917 9.118s0.459 10.456 3.272 10.967z" fill="none" stroke="#000" stroke-miterlimit="10"/>
    </g>
    <g id="g2034" transform="translate(95.674 451.77)">
     <path id="path2036" d="m0 0c-27.884-17.256-34.22-29.008-38.259-70.968-15.214 39.313-24.486 48.919-55.992 58.009 27.884 17.256 34.22 29.007 38.259 70.967 15.213-39.313 24.485-48.918 55.992-58.008" fill="#00a3f7"/>
    </g>
    <g id="g2038" transform="translate(95.674 451.77)">
     <path id="path2040" d="m0 0c-27.884-17.256-34.22-29.008-38.259-70.968-15.214 39.313-24.486 48.919-55.992 58.009 27.884 17.256 34.22 29.007 38.259 70.967 15.213-39.313 24.485-48.918 55.992-58.008z" fill="none" stroke="#000" stroke-miterlimit="10"/>
    </g>
    <g id="g2042" transform="translate(95.674 451.77)">
     <path id="path2044" d="m0 0c-27.884-17.256-34.22-29.008-38.259-70.968-15.214 39.313-24.486 48.919-55.992 58.009 27.884 17.256 34.22 29.007 38.259 70.967 15.213-39.313 24.485-48.918 55.992-58.008" fill="#7fd6fc"/>
    </g>
    <g id="g2046" transform="translate(95.674 451.77)">
     <path id="path2048" d="m0 0c-27.884-17.256-34.22-29.008-38.259-70.968-15.214 39.313-24.486 48.919-55.992 58.009 27.884 17.256 34.22 29.007 38.259 70.967 15.213-39.313 24.485-48.918 55.992-58.008z" fill="none" stroke="#000" stroke-miterlimit="10"/>
    </g>
    <g id="g2050" transform="translate(62.385 441.4)">
     <path id="path2052" d="m0 0c4.386 0.604 7.048 8.287 6.6 16.219l-4.494 1.094 3.953 3.684c-1.964 7.093-6.617 12.484-10.768 11.912-4.864-0.671-7.754-8.582-6.454-17.67 1.301-9.087 6.298-15.91 11.163-15.239"/>
    </g>
    <g id="g2054" transform="translate(62.385 441.4)">
     <path id="path2056" d="m0 0c4.386 0.604 7.048 8.287 6.6 16.219l-4.494 1.094 3.953 3.684c-1.964 7.093-6.617 12.484-10.768 11.912-4.864-0.671-7.754-8.582-6.454-17.67 1.301-9.087 6.298-15.91 11.163-15.239z" fill="none" stroke="#000" stroke-miterlimit="10"/>
    </g>
    <g id="g2058" transform="translate(71.878 441.31)">
     <path id="path2060" d="m0 0c-0.473 0.777-1.211 1.816-2.276 2.788-0.843 0.768-1.641 1.265-2.268 1.588" fill="none" stroke="#000" stroke-miterlimit="10"/>
    </g>
    <g id="g2062" transform="translate(67.325 437.1)">
     <path id="path2064" d="m0 0c-0.222 0.764-0.544 1.686-1.019 2.678-0.523 1.092-1.081 1.957-1.558 2.605" fill="none" stroke="#000" stroke-miterlimit="10"/>
    </g>
    <g id="g2066" transform="translate(61.467 435.72)">
     <path id="path2068" d="m0 0c0.03 0.75 0.02 1.664-0.096 2.699-0.133 1.2-0.369 2.224-0.602 3.027" fill="none" stroke="#000" stroke-miterlimit="10"/>
    </g>
    <g id="g2070" transform="translate(35.34 436.73)">
     <path id="path2072" d="m0 0c-4.391-0.565-9.012 6.146-10.7 13.912l4.04 2.234-4.797 2.515c-1e-3 7.356 3.043 13.774 7.2 14.309 4.87 0.627 9.771-6.245 10.946-15.35 1.176-9.103-1.818-16.993-6.689-17.62"/>
    </g>
    <g id="g2074" transform="translate(35.34 436.73)">
     <path id="path2076" d="m0 0c-4.391-0.565-9.012 6.146-10.7 13.912l4.04 2.234-4.797 2.515c-1e-3 7.356 3.043 13.774 7.2 14.309 4.87 0.627 9.771-6.245 10.946-15.35 1.176-9.103-1.818-16.993-6.689-17.62z" fill="none" stroke="#000" stroke-miterlimit="10"/>
    </g>
    <g id="g2078" transform="translate(26.209 434.16)">
     <path id="path2080" d="m0 0c0.249 0.874 0.682 2.069 1.449 3.285 0.608 0.961 1.244 1.65 1.763 2.126" fill="none" stroke="#000" stroke-miterlimit="10"/>
    </g>
    <g id="g2082" transform="translate(31.725 431.29)">
     <path id="path2084" d="m0 0c0.01 0.795 0.074 1.769 0.267 2.85 0.212 1.19 0.519 2.17 0.805 2.921" fill="none" stroke="#000" stroke-miterlimit="10"/>
    </g>
    <g id="g2086" transform="translate(37.743 431.5)">
     <path id="path2088" d="m0 0c-0.23 0.716-0.464 1.601-0.629 2.629-0.192 1.191-0.238 2.24-0.228 3.076" fill="none" stroke="#000" stroke-miterlimit="10"/>
    </g>
    <g id="g2090" transform="translate(52.04 435.65)">
     <path id="path2092" d="m0 0c0.411-2.399 0.121-4.451-0.647-4.582-0.768-0.132-1.723 1.707-2.134 4.106-0.41 2.401-0.12 4.453 0.647 4.583 0.768 0.132 1.723-1.707 2.134-4.107"/>
    </g>
    <g id="g2094" transform="translate(52.04 435.65)">
     <path id="path2096" d="m0 0c0.411-2.399 0.121-4.451-0.647-4.582-0.768-0.132-1.723 1.707-2.134 4.106-0.41 2.401-0.12 4.453 0.647 4.583 0.768 0.132 1.723-1.707 2.134-4.107z" fill="none" stroke="#000" stroke-miterlimit="10"/>
    </g>
    <g id="g2098" transform="translate(372.44 285.17)">
     <path id="path2100" d="m0 0c-104.96-70.183-127.87-116.77-138.38-281.33-63.057 152.36-99.781 189.06-221.77 221.62 104.96 70.182 127.87 116.77 138.38 281.33 63.057-152.36 99.781-189.06 221.77-221.62" fill="#52cbfb"/>
    </g>
    <g id="g2102" transform="translate(372.44 285.17)">
     <path id="path2104" d="m0 0c-104.96-70.183-127.87-116.77-138.38-281.33-63.057 152.36-99.781 189.06-221.77 221.62 104.96 70.182 127.87 116.77 138.38 281.33 63.057-152.36 99.781-189.06 221.77-221.62z" fill="none" stroke="#000" stroke-miterlimit="10"/>
    </g>
    <g id="g2106" transform="translate(372.44 285.17)">
     <path id="path2108" d="m0 0c-104.96-70.183-127.87-116.77-138.38-281.33-63.057 152.36-99.781 189.06-221.77 221.62 104.96 70.182 127.87 116.77 138.38 281.33 63.057-152.36 99.781-189.06 221.77-221.62" fill="#52cbfb"/>
    </g>
    <g id="g2110" transform="translate(372.44 285.17)">
     <path id="path2112" d="m0 0c-104.96-70.183-127.87-116.77-138.38-281.33-63.057 152.36-99.781 189.06-221.77 221.62 104.96 70.182 127.87 116.77 138.38 281.33 63.057-152.36 99.781-189.06 221.77-221.62z" fill="none" stroke="#000" stroke-miterlimit="10"/>
    </g>
    <g id="g2114" transform="translate(210.54,272.79)">
     <path id="path2116" d="m0 0c-13.479-1.902-26.943-4.099-40.326-6.669-11.53-2.215-42.123-3.285-39.195-25.135 1.409-10.519 11.105-17.436 18.632-21.622 20.022-11.134 43.422-13.12 65.225-6.565 17.986 5.407 37.905 16.279 47.938 35.481 5.123 9.804 5.808 22.868-4.628 26.889-7.507 2.891-16.174 1.593-23.969 0.676-7.888-0.929-15.785-1.942-23.677-3.055" fill="#ff45b7"/>
    </g>
    <g id="g2118" transform="translate(210.54,272.79)">
     <path id="path2120" d="m0 0c-13.479-1.902-26.943-4.099-40.326-6.669-11.53-2.215-42.123-3.285-39.195-25.135 1.409-10.519 11.105-17.436 18.632-21.622 20.022-11.134 43.422-13.12 65.225-6.565 17.986 5.407 37.905 16.279 47.938 35.481 5.123 9.804 5.808 22.868-4.628 26.889-7.507 2.891-16.174 1.593-23.969 0.676-7.888-0.929-15.785-1.942-23.677-3.055z" fill="none" stroke="#000" stroke-miterlimit="10"/>
    </g>
    <g id="g2122" transform="translate(206.33 264.59)">
     <path id="path2124" d="m0 0c-10.634-1.592-21.245-3.386-31.778-5.436-9.075-1.765-33.332-3.151-30.187-18.087 1.513-7.191 9.474-11.733 15.609-14.446 16.319-7.217 34.979-8.082 52.05-3.118 14.082 4.094 29.495 11.982 36.744 25.376 3.7 6.838 3.754 15.82-4.686 18.358-6.07 1.825-12.905 0.749-19.061-0.046-6.231-0.805-12.465-1.668-18.691-2.601" fill="#fff"/>
    </g>
    <g id="g2126" transform="translate(206.33 264.59)">
     <path id="path2128" d="m0 0c-10.634-1.592-21.245-3.386-31.778-5.436-9.075-1.765-33.332-3.151-30.187-18.087 1.513-7.191 9.474-11.733 15.609-14.446 16.319-7.217 34.979-8.082 52.05-3.118 14.082 4.094 29.495 11.982 36.744 25.376 3.7 6.838 3.754 15.82-4.686 18.358-6.07 1.825-12.905 0.749-19.061-0.046-6.231-0.805-12.465-1.668-18.691-2.601z" fill="none" stroke="#000" stroke-miterlimit="10"/>
    </g>
    <g id="g2130" transform="translate(165.63 257.69)">
     <path id="path2132" d="m0 0c-1.167-3.538-2.414-8.668-2.45-14.922-0.049-8.296 2.052-14.849 3.661-18.772" fill="none" stroke="#000" stroke-miterlimit="10"/>
    </g>
    <g id="g2134" transform="translate(188.77 261.47)">
     <path id="path2136" d="m0 0c-0.322-5.251-0.368-11.215 0.13-17.746 0.684-8.97 2.225-16.817 3.944-23.304" fill="none" stroke="#000" stroke-miterlimit="10"/>
    </g>
    <g id="g2138" transform="translate(208.46 264.9)">
     <path id="path2140" d="m0 0c2.595-3.807 5.864-9.525 8.074-17.031 2.696-9.155 2.672-17.084 2.258-22.125" fill="none" stroke="#000" stroke-miterlimit="10"/>
    </g>
    <g id="g2142" transform="translate(228.72 267.66)">
     <path id="path2144" d="m0 0c2.279-2.468 5.637-6.73 7.941-12.861 2.823-7.514 2.667-14.119 2.324-17.681" fill="none" stroke="#000" stroke-miterlimit="10"/>
    </g>
    <g id="g2146" transform="translate(155.71 333.7)">
     <path id="path2148" d="m0 0c4.496-25.456 1.575-48.644-6.448-60.721-3.135-4.703-7.03-7.707-11.587-8.511-16.207-2.862-34.41 23.497-40.656 58.868-6.247 35.37 1.827 66.369 18.034 69.23 4.313 0.763 8.761-0.539 13.07-3.514 11.956-8.25 22.997-29.364 27.587-55.352" fill="#ffca42"/>
    </g>
    <g id="g2150" transform="translate(155.71 333.7)">
     <path id="path2152" d="m0 0c4.496-25.456 1.575-48.644-6.448-60.721-3.135-4.703-7.03-7.707-11.587-8.511-16.207-2.862-34.41 23.497-40.656 58.868-6.247 35.37 1.827 66.369 18.034 69.23 4.313 0.763 8.761-0.539 13.07-3.514 11.956-8.25 22.997-29.364 27.587-55.352z" fill="none" stroke="#000" stroke-miterlimit="10"/>
    </g>
    <g id="g2154" transform="translate(128.12 389.05)">
     <path id="path2156" d="m0 0c-14.942-4.702-22.58-32.07-17.139-62.883 0.179-1.012 0.37-2.013 0.572-3.008l24.835 2.785-20.832-17.4c7.665-21.946 21.034-36.666 33.704-35.566 8.023 12.077 10.943 35.264 6.447 60.72-4.589 25.989-15.631 47.102-27.587 55.352"/>
    </g>
    <g id="g2158" transform="translate(128.12 389.05)">
     <path id="path2160" d="m0 0c-14.942-4.702-22.58-32.07-17.139-62.883 0.179-1.012 0.37-2.013 0.572-3.008l24.835 2.785-20.832-17.4c7.665-21.946 21.034-36.666 33.704-35.566 8.023 12.077 10.943 35.264 6.447 60.72-4.589 25.989-15.631 47.102-27.587 55.352z" fill="none" stroke="#000" stroke-miterlimit="10"/>
    </g>
    <g id="g2162" transform="translate(262.48 352.55)">
     <path id="path2164" d="m0 0c4.495-25.455 1.575-48.644-6.447-60.721-3.136-4.703-7.031-7.706-11.588-8.51-16.207-2.863-34.41 23.496-40.656 58.867-6.247 35.371 1.827 66.369 18.034 69.231 4.313 0.762 8.761-0.539 13.07-3.514 11.956-8.251 22.998-29.364 27.587-55.353" fill="#ffca42"/>
    </g>
    <g id="g2166" transform="translate(262.48 352.55)">
     <path id="path2168" d="m0 0c4.495-25.455 1.575-48.644-6.447-60.721-3.136-4.703-7.031-7.706-11.588-8.51-16.207-2.863-34.41 23.496-40.656 58.867-6.247 35.371 1.827 66.369 18.034 69.231 4.313 0.762 8.761-0.539 13.07-3.514 11.956-8.251 22.998-29.364 27.587-55.353z" fill="none" stroke="#000" stroke-miterlimit="10"/>
    </g>
    <g id="g2170" transform="translate(234.89 407.9)">
     <path id="path2172" d="m0 0c-14.942-4.702-22.58-32.07-17.139-62.884 0.179-1.012 0.37-2.013 0.573-3.008l24.834 2.786-20.832-17.401c7.665-21.946 21.035-36.666 33.704-35.566 8.023 12.077 10.943 35.265 6.447 60.72-4.588 25.99-15.63 47.102-27.587 55.353"/>
    </g>
    <g id="g2174" transform="translate(234.89 407.9)">
     <path id="path2176" d="m0 0c-14.942-4.702-22.58-32.07-17.139-62.884 0.179-1.012 0.37-2.013 0.573-3.008l24.834 2.786-20.832-17.401c7.665-21.946 21.035-36.666 33.704-35.566 8.023 12.077 10.943 35.265 6.447 60.72-4.588 25.99-15.63 47.102-27.587 55.353z" fill="none" stroke="#000" stroke-miterlimit="10"/>
    </g>
    <g id="g2178" transform="translate(202.08 291.37)">
     <path id="path2180" d="m0 0c0.543-6.36-4.172-11.957-10.532-12.501s-11.957 4.172-12.501 10.532c-0.543 6.361 4.172 11.957 10.533 12.5 6.36 0.544 11.957-4.171 12.5-10.531" fill="#9d64f7"/>
    </g>
    <g id="g2182" transform="translate(202.08 291.37)">
     <path id="path2184" d="m0 0c0.543-6.36-4.172-11.957-10.532-12.501s-11.957 4.172-12.501 10.532c-0.543 6.361 4.172 11.957 10.533 12.5 6.36 0.544 11.957-4.171 12.5-10.531z" fill="none" stroke="#000" stroke-miterlimit="10"/>
    </g>
    <g id="g2186" transform="translate(402.1 276.36)">
     <path id="path2188" d="m0 0c-1.739 29.05-7.29 58.72-15.739 86.53-9.99 32.88-21.301 65.361-30.321 98.531-1.419 5.219-7.879 7.849-12.73 6.169-5.399-1.87-7.59-7.5-6.17-12.73 7.32-26.91 16.13-53.37 24.55-79.95 8.12-25.68 14.58-51.029 18-77.779 0.221-1.75 0.471-3.511 0.721-5.291 9e-3 -0.089 0.019-0.19 0.04-0.29 1.45-10.35 2.979-21.07 1.139-31.31-0.809-4.489-1.42-6.58-3.469-10.359-0.101-0.181-0.17-0.321-0.231-0.441-0.069-0.08-0.149-0.17-0.239-0.28-0.341-0.4-0.691-0.79-1.03-1.19-0.191-0.219-0.311-0.36-0.401-0.45-0.01-0.01-0.03-0.01-0.05-0.019 0.05 0.059 0.111 0.139 0.17 0.219-0.09-0.089-0.25-0.21-0.42-0.31-0.17-0.06-0.349-0.119-0.519-0.18 0.099 0.03 0.179 0.04 0.229 0.05 0.06 0.02 0.12 0.05 0.191 0.08-0.04-0.03-0.091-0.05-0.141-0.069 0.3 0-0.109-0.29-0.62-0.271-0.09 0-0.189-0.01-0.279-0.01-0.071-0.03-0.141-0.049-0.21-0.07 0.059 0.03 0.109 0.05 0.159 0.07-0.47-9e-3 -0.97-0.04-1.44-0.08-1.24 0.21-2.45 0.48-3.669 0.821-0.071 0.04-0.141 0.069-0.231 0.109-0.89 0.4-1.79 0.78-2.68 1.22-6.059 3-9.77 6.08-15.469 11.24-2.261 2.05-4.411 4.09-6.481 6.15-5.49-4.19-10.689-8.35-15.609-12.509 2.159-2.241 4.369-4.431 6.609-6.551 10.481-9.93 25.101-21.94 40.601-20.35 22.909 2.361 26.819 31.191 25.739 49.3"/>
    </g>
    <g id="g2190" transform="translate(402.1 276.36)">
     <path id="path2192" d="m0 0c-1.739 29.05-7.29 58.72-15.739 86.53-9.99 32.88-21.301 65.361-30.321 98.531-1.419 5.219-7.879 7.849-12.73 6.169-5.399-1.87-7.59-7.5-6.17-12.73 7.32-26.91 16.13-53.37 24.55-79.95 8.12-25.68 14.58-51.029 18-77.779 0.221-1.75 0.471-3.511 0.721-5.291 9e-3 -0.089 0.019-0.19 0.04-0.29 1.45-10.35 2.979-21.07 1.139-31.31-0.809-4.489-1.42-6.58-3.469-10.359-0.101-0.181-0.17-0.321-0.231-0.441-0.069-0.08-0.149-0.17-0.239-0.28-0.341-0.4-0.691-0.79-1.03-1.19-0.191-0.219-0.311-0.36-0.401-0.45-0.01-0.01-0.03-0.01-0.05-0.019 0.05 0.059 0.111 0.139 0.17 0.219-0.09-0.089-0.25-0.21-0.42-0.31-0.17-0.06-0.349-0.119-0.519-0.18 0.099 0.03 0.179 0.04 0.229 0.05 0.06 0.02 0.12 0.05 0.191 0.08-0.04-0.03-0.091-0.05-0.141-0.069 0.3 0-0.109-0.29-0.62-0.271-0.09 0-0.189-0.01-0.279-0.01-0.071-0.03-0.141-0.049-0.21-0.07 0.059 0.03 0.109 0.05 0.159 0.07-0.47-9e-3 -0.97-0.04-1.44-0.08-1.24 0.21-2.45 0.48-3.669 0.821-0.071 0.04-0.141 0.069-0.231 0.109-0.89 0.4-1.79 0.78-2.68 1.22-6.059 3-9.77 6.08-15.469 11.24-2.261 2.05-4.411 4.09-6.481 6.15-5.49-4.19-10.689-8.35-15.609-12.509 2.159-2.241 4.369-4.431 6.609-6.551 10.481-9.93 25.101-21.94 40.601-20.35 22.909 2.361 26.819 31.191 25.739 49.3z" fill="none" stroke="#000" stroke-miterlimit="10"/>
    </g>
    <g id="g2194" transform="translate(375.68 247.29)">
     <path id="path2196" d="m0 0c-0.015-1e-3 -0.032-2e-3 -0.051-4e-3 -0.922-0.378-0.47-0.261 0.051 4e-3"/>
    </g>
    <g id="g2198" transform="translate(375.68 247.29)">
     <path id="path2200" d="m0 0c-0.015-1e-3 -0.032-2e-3 -0.051-4e-3 -0.922-0.378-0.47-0.261 0.051 4e-3z" fill="none" stroke="#000" stroke-miterlimit="10"/>
    </g>
    <g id="g2202" transform="translate(375.39 247.23)">
     <path id="path2204" d="m0 0c-0.162-0.042-0.377-0.111-0.665-0.224 0.016 0 0.032 1e-3 0.047 1e-3 0.206 0.076 0.408 0.154 0.618 0.223"/>
    </g>
    <g id="g2206" transform="translate(375.39 247.23)">
     <path id="path2208" d="m0 0c-0.162-0.042-0.377-0.111-0.665-0.224 0.016 0 0.032 1e-3 0.047 1e-3 0.206 0.076 0.408 0.154 0.618 0.223z" fill="none" stroke="#000" stroke-miterlimit="10"/>
    </g>
    <g id="g2210" transform="translate(335.5 426.58)">
     <path id="path2212" d="m0 0s-6.729-18.921 15.761-11.211c22.491 7.711 31.313 14.216 16.81 21.483 0 0 19.304 9.503-8.525 64.26-1.435 2.823-3.711 5.936-6.608 5.868-4.056-0.095-6.709-8.523-1.598-32.403 0 0-10.421 41.494-20.225 36.419-1.863-0.964-2.698-3.383-2.799-5.67-0.206-4.7 3.801-23.504 8.366-36.465 0 0-9.511 24.238-15.362 30.859-5.849 6.621-13.134 5.816-8.981-10.426 1.072-4.194 2.46-8.292 4.057-12.294l7.541-18.893s-16.3 15.924-22.115 7.764c-3.651-5.126 12.453-39.415 33.678-39.291" fill="#fff"/>
    </g>
    <g id="g2214" transform="translate(335.5 426.58)">
     <path id="path2216" d="m0 0s-6.729-18.921 15.761-11.211c22.491 7.711 31.313 14.216 16.81 21.483 0 0 19.304 9.503-8.525 64.26-1.435 2.823-3.711 5.936-6.608 5.868-4.056-0.095-6.709-8.523-1.598-32.403 0 0-10.421 41.494-20.225 36.419-1.863-0.964-2.698-3.383-2.799-5.67-0.206-4.7 3.801-23.504 8.366-36.465 0 0-9.511 24.238-15.362 30.859-5.849 6.621-13.134 5.816-8.981-10.426 1.072-4.194 2.46-8.292 4.057-12.294l7.541-18.893s-16.3 15.924-22.115 7.764c-3.651-5.126 12.453-39.415 33.678-39.291z" fill="none" stroke="#000" stroke-miterlimit="10"/>
    </g>
    <g id="g2218" transform="translate(329.62 466.2)">
     <path id="path2220" d="m0 0 29.306 9.723" fill="none" stroke="#000" stroke-miterlimit="10"/>
    </g>
    <g id="g2222" transform="translate(325.91 455.47)">
     <path id="path2224" d="m0 0s17.277 6.829 23.479-10.828" fill="none" stroke="#000" stroke-miterlimit="10"/>
    </g>
    <g id="g2226" transform="translate(348.2 430.29)">
     <path id="path2228" d="m0 0c-1.39-0.988-3.474-2.218-6.204-3.007-2.28-0.658-4.3-0.804-5.817-0.785" fill="none" stroke="#000" stroke-miterlimit="10"/>
    </g>
    <g id="g2230" transform="translate(360.37 433.88)">
     <path id="path2232" d="m0 0 7.704 2.971" fill="none" stroke="#000" stroke-miterlimit="10"/>
    </g>
    <g id="g2234" transform="translate(185.62 120.78)">
     <path id="path2236" d="m0 0c-1.47-0.84-2.94-1.66-4.41-2.479-20.37-11.291-41.57-20.92-63.51-28.791-16.02-5.74-34.54-13.56-51.52-6.98-9.14 3.54-16.42 10.42-19.98 19.601-3.24 8.359-2.65 17.609-1.06 26.259 1.56 8.46 4.53 16.59 7.61 24.59 3.45 8.95 6.76 17.95 10.39 26.83 3.59 8.79 7.36 17.48 11.23 26.13 6.35-2.52 12.4-5.139 18.2-7.92-4.03-8.96-7.93-17.969-11.58-27.08-5.94-14.809-12.82-30.16-16.16-45.809-2.42-11.391-0.5-24.351 13.68-24.991 7.36-0.32 14.5 1.88 21.4 4.21 7.9 2.66 15.76 5.54 23.53 8.57 15.92 6.2 31.31 13.62 46.26 21.86 1.95 1.08 3.89 2.17 5.83 3.271 11.21 6.379 21.28-10.901 10.09-17.271"/>
    </g>
    <g id="g2238" transform="translate(185.62 120.78)">
     <path id="path2240" d="m0 0c-1.47-0.84-2.94-1.66-4.41-2.479-20.37-11.291-41.57-20.92-63.51-28.791-16.02-5.74-34.54-13.56-51.52-6.98-9.14 3.54-16.42 10.42-19.98 19.601-3.24 8.359-2.65 17.609-1.06 26.259 1.56 8.46 4.53 16.59 7.61 24.59 3.45 8.95 6.76 17.95 10.39 26.83 3.59 8.79 7.36 17.48 11.23 26.13 6.35-2.52 12.4-5.139 18.2-7.92-4.03-8.96-7.93-17.969-11.58-27.08-5.94-14.809-12.82-30.16-16.16-45.809-2.42-11.391-0.5-24.351 13.68-24.991 7.36-0.32 14.5 1.88 21.4 4.21 7.9 2.66 15.76 5.54 23.53 8.57 15.92 6.2 31.31 13.62 46.26 21.86 1.95 1.08 3.89 2.17 5.83 3.271 11.21 6.379 21.28-10.901 10.09-17.271z" fill="none" stroke="#000" stroke-miterlimit="10"/>
    </g>
    <g id="g2242" transform="translate(151.45 139.91)">
     <path id="path2244" d="m0 0c1.436 0.492 1.31 4.223 1.335 5.795 0.165 10.202 8.164 19.51 13.797 23.724 2.277 1.704 9.748 7.677 14.839 6.414 10.897-2.705 0.443-19.304-2.655-24.616 2.678 0.869 3.34 1.065 4.037 1.295 1.332 0.441 2.66 0.895 3.98 1.37 2.353 0.848 4.678 1.769 6.972 2.765 5.39 2.341 10.515 5.258 15.932 7.531 3.637 1.527 9.201 3.903 12.903 1.324 2.476-1.726 2.452-5.276 2.27-7.962l-0.015-0.207s11.689-2.514 4.303-14.526c1.219-0.511 2.692-0.911 3.402-2.12 2.552-4.349-2.267-11.584-4.681-14.954-6.12-8.545-15.041-16.811-24.219-22.054-7.617-4.351-16.2-5.923-24.861-4.458-1.683 0.285-3.349 0.67-4.993 1.133-1.391 0.393-3.906 1.887-5.28 1.776-0.026-2e-3 -0.505-1.972-0.55-2.1-0.557-1.591-1.391-3.116-2.556-4.346-2.714-2.864-7.02-4.078-10.634-2.18-5.439 2.856-7.414 9.186-9.274 14.601-2.232 6.499-5.061 12.753-7.646 19.129-7.762 19.142 7.833 15.787 10.085 14.567 3.335-1.806 2.735-2.167 3.509-1.901" fill="#fff"/>
    </g>
    <g id="g2246" transform="translate(151.45 139.91)">
     <path id="path2248" d="m0 0c1.436 0.492 1.31 4.223 1.335 5.795 0.165 10.202 8.164 19.51 13.797 23.724 2.277 1.704 9.748 7.677 14.839 6.414 10.897-2.705 0.443-19.304-2.655-24.616 2.678 0.869 3.34 1.065 4.037 1.295 1.332 0.441 2.66 0.895 3.98 1.37 2.353 0.848 4.678 1.769 6.972 2.765 5.39 2.341 10.515 5.258 15.932 7.531 3.637 1.527 9.201 3.903 12.903 1.324 2.476-1.726 2.452-5.276 2.27-7.962l-0.015-0.207s11.689-2.514 4.303-14.526c1.219-0.511 2.692-0.911 3.402-2.12 2.552-4.349-2.267-11.584-4.681-14.954-6.12-8.545-15.041-16.811-24.219-22.054-7.617-4.351-16.2-5.923-24.861-4.458-1.683 0.285-3.349 0.67-4.993 1.133-1.391 0.393-3.906 1.887-5.28 1.776-0.026-2e-3 -0.505-1.972-0.55-2.1-0.557-1.591-1.391-3.116-2.556-4.346-2.714-2.864-7.02-4.078-10.634-2.18-5.439 2.856-7.414 9.186-9.274 14.601-2.232 6.499-5.061 12.753-7.646 19.129-7.762 19.142 7.833 15.787 10.085 14.567 3.335-1.806 2.735-2.167 3.509-1.901z" fill="none" stroke="#000" stroke-miterlimit="10"/>
    </g>
    <g id="g2250" transform="translate(191.4 137.64)">
     <path id="path2252" d="m0 0s22.535 8.12 33.451 19.702" fill="none" stroke="#000" stroke-miterlimit="10"/>
    </g>
    <g id="g2254" transform="translate(229.64 142.72)">
     <path id="path2256" d="m0 0s-15.922-14.563-29.063-19.933" fill="none" stroke="#000" stroke-miterlimit="10"/>
    </g>
    <g id="g2258" transform="translate(151.99 140.22)">
     <path id="path2260" d="m0 0 3.021-7.276" fill="none" stroke="#000" stroke-miterlimit="10"/>
    </g>
    <g id="g2262" transform="translate(166.12 108.86)">
     <path id="path2264" d="m0 0 2.256-6.734" fill="none" stroke="#000" stroke-miterlimit="10"/>
    </g>
   </g>
  </g>
 </g>
</svg>
