<?xml version="1.0" encoding="UTF-8"?>
<!-- Created with Inkscape (http://www.inkscape.org/) -->
<svg id="svg2" width="682.67" height="682.67" version="1.1" viewBox="0 0 682.67 682.67" xmlns="http://www.w3.org/2000/svg">
 <defs id="defs6">
  <clipPath id="clipPath2882">
   <path id="path2880" d="m0 512h512v-512h-512z"/>
  </clipPath>
 </defs>
 <g id="g2862" transform="matrix(1.3333 0 0 -1.3333 -3.5744e-5 682.67)">
  <g id="g2864" transform="translate(429.03 510.99)">
   <path id="path2866" d="m0 0 8.132-7.026-36.086-41.779-8.133 7.026z" fill="#00b7e4"/>
  </g>
  <g id="g2868" transform="translate(460.08 376.3)">
   <path id="path2870" d="m0 0 1.974-10.56 49.946 9.338-1.974 10.559z" fill="#00b7e4"/>
  </g>
  <g id="g2872" transform="translate(431.93 424.5)">
   <path id="path2874" d="m0 0 48.576 33.968 6.156-8.807-48.575-33.968z" fill="#00b7e4"/>
  </g>
  <g id="g2876">
   <g id="g2878" clip-path="url(#clipPath2882)">
    <g id="g2884" transform="translate(308.22 99.931)">
     <path id="path2886" d="m0 0c0.128 1.398 0.093 2.818-0.146 4.226l-0.406 11.863-27.698-1.164c-19.499-0.218-38.991 3.299-58.038 6.789-20.153 3.693-47.547 10.886-45.663 39.199 1.177 17.685 20.281 43.385 34.735 56.386l-23.539 13.906c-23.846-25.538-39.73-55.924-35.346-83.242 4.736-29.509 27.354-44.275 52.377-50.232 26.025-6.195 53.476-10.818 80.492-9.645-12.597-17.454-25.194-49.268 26.099-71.672z" fill="#ff9fda"/>
    </g>
    <g id="g2888" transform="translate(308.22 99.931)">
     <path id="path2890" d="m0 0c0.128 1.398 0.093 2.818-0.146 4.226l-0.406 11.863-27.698-1.164c-19.499-0.218-38.991 3.299-58.038 6.789-20.153 3.693-47.547 10.886-45.663 39.199 1.177 17.685 20.281 43.385 34.735 56.386l-23.539 13.906c-23.846-25.538-39.73-55.924-35.346-83.242 4.736-29.509 27.354-44.275 52.377-50.232 26.025-6.195 53.476-10.818 80.492-9.645-12.597-17.454-25.194-49.268 26.099-71.672z" fill="none" stroke="#000" stroke-miterlimit="10"/>
    </g>
    <g id="g2892" transform="translate(253.02 116.58)">
     <path id="path2894" d="m0 0c-10.446 1.308-20.832 3.189-31.089 5.069-20.153 3.694-47.547 10.886-45.663 39.2 1.176 17.684 20.281 43.384 34.735 56.385l-23.539 13.907c-23.845-25.539-39.73-55.924-35.345-83.243 4.735-29.508 27.353-44.274 52.377-50.231 14.421-3.434 29.281-6.378 44.261-8.127 1.111 9.044 2.769 18.037 4.263 27.04"/>
    </g>
    <g id="g2896" transform="translate(253.02 116.58)">
     <path id="path2898" d="m0 0c-10.446 1.308-20.832 3.189-31.089 5.069-20.153 3.694-47.547 10.886-45.663 39.2 1.176 17.684 20.281 43.384 34.735 56.385l-23.539 13.907c-23.845-25.539-39.73-55.924-35.345-83.243 4.735-29.508 27.353-44.274 52.377-50.231 14.421-3.434 29.281-6.378 44.261-8.127 1.111 9.044 2.769 18.037 4.263 27.04z" fill="none" stroke="#000" stroke-miterlimit="10"/>
    </g>
    <g id="g2900" transform="translate(308.22 99.931)">
     <path id="path2902" d="m0 0c0.127 1.398 0.093 2.818-0.146 4.226l-0.406 11.864-27.697-1.165c-5.339-0.06-10.675 0.179-16.003 0.602-1.225-8.988-2.347-17.985-3.329-26.997 8.122-0.576 16.254-0.795 24.349-0.443-12.597-17.455-25.194-49.269 26.099-71.673z" fill="#b687ff"/>
    </g>
    <g id="g2904" transform="translate(308.22 99.931)">
     <path id="path2906" d="m0 0c0.127 1.398 0.093 2.818-0.146 4.226l-0.406 11.864-27.697-1.165c-5.339-0.06-10.675 0.179-16.003 0.602-1.225-8.988-2.347-17.985-3.329-26.997 8.122-0.576 16.254-0.795 24.349-0.443-12.597-17.455-25.194-49.269 26.099-71.673z" fill="none" stroke="#000" stroke-miterlimit="10"/>
    </g>
    <g id="g2908" transform="translate(284.14 202.28)">
     <path id="path2910" d="m0 0c-36.501-36.104-93.67-119.1-118.32-166.27-0.3-0.575-0.476-1.137-0.691-1.703-7.682 20.419-27.309 49.973-71.546 11.86l82.714-45.322s10.944 20.847 11.783 22.454c27.011 51.684 80.081 126.58 122.59 163.66z" fill="#ff9fda"/>
    </g>
    <g id="g2912" transform="translate(284.14 202.28)">
     <path id="path2914" d="m0 0c-36.501-36.104-93.67-119.1-118.32-166.27-0.3-0.575-0.476-1.137-0.691-1.703-7.682 20.419-27.309 49.973-71.546 11.86l82.714-45.322s10.944 20.847 11.783 22.454c27.011 51.684 80.081 126.58 122.59 163.66z" fill="none" stroke="#000" stroke-miterlimit="10"/>
    </g>
    <g id="g2916" transform="translate(284.14 202.28)">
     <path id="path2918" d="m0 0c-30.711-30.376-76.05-93.949-104.34-141.45 6.663-5.411 13.644-10.423 20.518-15.566 28.872 49.183 73.562 109.6 110.35 141.69z"/>
    </g>
    <g id="g2920" transform="translate(284.14 202.28)">
     <path id="path2922" d="m0 0c-30.711-30.376-76.05-93.949-104.34-141.45 6.663-5.411 13.644-10.423 20.518-15.566 28.872 49.183 73.562 109.6 110.35 141.69z" fill="none" stroke="#000" stroke-miterlimit="10"/>
    </g>
    <g id="g2924" transform="translate(173.59 50.349)">
     <path id="path2926" d="m0 0c-2.645-4.733-5.245-9.506-7.772-14.341-0.3-0.574-0.476-1.137-0.691-1.702-7.683 20.419-27.309 49.973-71.546 11.859l82.714-45.322s10.943 20.848 11.783 22.454c2.124 4.065 4.31 8.081 6.524 12.074-7.08 4.881-14.064 9.904-21.012 14.978" fill="#b687ff"/>
    </g>
    <g id="g2928" transform="translate(173.59 50.349)">
     <path id="path2930" d="m0 0c-2.645-4.733-5.245-9.506-7.772-14.341-0.3-0.574-0.476-1.137-0.691-1.702-7.683 20.419-27.309 49.973-71.546 11.859l82.714-45.322s10.943 20.848 11.783 22.454c2.124 4.065 4.31 8.081 6.524 12.074-7.08 4.881-14.064 9.904-21.012 14.978z" fill="none" stroke="#000" stroke-miterlimit="10"/>
    </g>
    <g id="g2932" transform="translate(204.94 373.09)">
     <path id="path2934" d="m0 0 91.175 133.26c5.9 8.624 19.324 5.457 20.747-4.895l19.618-142.72 128.26-22.042c10.649-1.831 13.042-16.053 3.578-21.267l-119.74-65.965 22.056-152.95c1.552-10.76-11.383-17.402-19.222-9.869l-113.62 109.16-138.28-57.235c-10.193-4.218-19.853 7.028-14.146 16.468l75.818 125.39-89.713 114.58c-6.967 8.898 1.836 21.43 12.57 17.894z" fill="#ff9fda"/>
    </g>
    <g id="g2936" transform="translate(204.94 373.09)">
     <path id="path2938" d="m0 0 91.175 133.26c5.9 8.624 19.324 5.457 20.747-4.895l19.618-142.72 128.26-22.042c10.649-1.831 13.042-16.053 3.578-21.267l-119.74-65.965 22.056-152.95c1.552-10.76-11.383-17.402-19.222-9.869l-113.62 109.16-138.28-57.235c-10.193-4.218-19.853 7.028-14.146 16.468l75.818 125.39-89.713 114.58c-6.967 8.898 1.836 21.43 12.57 17.894z" fill="none" stroke="#000" stroke-miterlimit="10"/>
    </g>
    <g id="g2940" transform="translate(296.8 310.94)">
     <path id="path2942" d="m0 0c9.503 1.392 21.113 0.677 33.143-2.505 1.821-0.471 3.589-0.988 5.304-1.578 8.879-2.841 16.704-6.748 22.857-11.165 4.709 8.382 8.53 18.356 10.958 29.328 0.923 4.241 1.592 8.397 2.009 12.49 1.175 10.889 0.648 21.169-1.356 29.956-3.394 15.046-11.031 25.779-21.708 28.116-0.296 0.065-0.568 0.104-0.865 0.145-13.373 2.306-27.794-9.054-37.82-27.829-0.026-0.023-0.052-0.047-0.053-0.072-4.02-7.595-7.383-16.447-9.589-26.082-0.126-0.492-0.253-1.01-0.356-1.529-2.289-10.23-3.042-20.217-2.524-29.275" fill="#ffd900"/>
    </g>
    <g id="g2944" transform="translate(296.8 310.94)">
     <path id="path2946" d="m0 0c9.503 1.392 21.113 0.677 33.143-2.505 1.821-0.471 3.589-0.988 5.304-1.578 8.879-2.841 16.704-6.748 22.857-11.165 4.709 8.382 8.53 18.356 10.958 29.328 0.923 4.241 1.592 8.397 2.009 12.49 1.175 10.889 0.648 21.169-1.356 29.956-3.394 15.046-11.031 25.779-21.708 28.116-0.296 0.065-0.568 0.104-0.865 0.145-13.373 2.306-27.794-9.054-37.82-27.829-0.026-0.023-0.052-0.047-0.053-0.072-4.02-7.595-7.383-16.447-9.589-26.082-0.126-0.492-0.253-1.01-0.356-1.529-2.289-10.23-3.042-20.217-2.524-29.275z" fill="none" stroke="#000" stroke-miterlimit="10"/>
    </g>
    <g id="g2948" transform="translate(382.18 382.01)">
     <path id="path2950" d="m0 0s-1.834-12.179-12.461-14.551" fill="none" stroke="#000" stroke-miterlimit="10"/>
    </g>
    <g id="g2952" transform="translate(388.99 366.64)">
     <path id="path2954" d="m0 0s-5.184-12.485-17.009-11.272" fill="none" stroke="#000" stroke-miterlimit="10"/>
    </g>
    <g id="g2956" transform="translate(388.16 347.26)">
     <path id="path2958" d="m0 0s-5.194-10.721-17.075-9.743" fill="none" stroke="#000" stroke-miterlimit="10"/>
    </g>
    <g id="g2960" transform="translate(309.27 367.83)">
     <path id="path2962" d="m0 0c1e-3 0.025 0.027 0.049 0.054 0.072 10.025 18.776 24.446 30.135 37.819 27.829 5.978-8.173 8.681-19.766 6.542-31.877-1.06-5.979-3.215-11.409-6.111-16.082l-15.654 8.703 8.647-17.197c-6.863-6.229-15.521-9.359-24.244-7.816-6.673 1.177-12.387 4.922-16.642 10.286 2.206 9.636 5.569 18.487 9.589 26.082"/>
    </g>
    <g id="g2964" transform="translate(309.27 367.83)">
     <path id="path2966" d="m0 0c1e-3 0.025 0.027 0.049 0.054 0.072 10.025 18.776 24.446 30.135 37.819 27.829 5.978-8.173 8.681-19.766 6.542-31.877-1.06-5.979-3.215-11.409-6.111-16.082l-15.654 8.703 8.647-17.197c-6.863-6.229-15.521-9.359-24.244-7.816-6.673 1.177-12.387 4.922-16.642 10.286 2.206 9.636 5.569 18.487 9.589 26.082z" fill="none" stroke="#000" stroke-miterlimit="10"/>
    </g>
    <g id="g2968" transform="translate(312.95 367.72)">
     <path id="path2970" d="m0 0c15.67-7.792 9.452-8.875 6.061-27.775 8.082 17.419 5.043 20.879 22.344 18.254-15.669 7.792-11.306 8.518-7.915 27.419-8.082-17.419-3.188-20.523-20.49-17.898" fill="#fff"/>
    </g>
    <g id="g2972" transform="translate(173.15 333.89)">
     <path id="path2974" d="m0 0c0.012-0.111-4e-3 -0.22 0.038-0.308-0.011-0.081 4e-3 -0.166 0.02-0.251 0.01-0.303 0.049-0.612 0.088-0.92 1.394 0.323 2.807 0.587 4.298 0.813 0.789 0.135 1.607 0.265 2.446 0.364l0.027-4e-3c7.314 0.93 15.533 0.876 24.109-0.329 3.401-0.461 6.694-1.099 9.855-1.884 0.451-0.12 0.878-0.209 1.302-0.325 7.797-2.028 14.731-4.895 20.379-8.294 3.977 8.151 7.159 17.654 9.028 27.978 6.407 35.012-4.118 66.294-23.496 69.877-10.748 1.985-21.957-4.988-30.885-17.517 0 0-3e-3 -0.027-0.03-0.023-1.346-1.898-2.634-3.968-3.853-6.132-0.116-0.231-0.255-0.431-0.371-0.662-0.181-0.305-0.362-0.609-0.543-0.912-0.221-0.381-0.444-0.789-0.668-1.198-0.366-0.635-0.706-1.274-1.021-1.944-0.455-0.87-0.884-1.744-1.289-2.648-0.436-0.928-0.845-1.86-1.227-2.795-1.073-2.488-2.058-5.125-2.95-7.886-0.293-0.894-0.591-1.813-0.861-2.737-0.035-0.05-0.042-0.105-0.05-0.159-0.375-1.266-0.753-2.56-1.082-3.888-0.24-0.902-0.456-1.833-0.672-2.765-0.155-0.693-0.31-1.387-0.464-2.08-0.055-0.184-0.078-0.347-0.132-0.531-0.224-0.986-0.43-2.029-0.603-3.05-1.919-10.482-2.306-20.634-1.393-29.79" fill="#ffd900"/>
    </g>
    <g id="g2976" transform="translate(173.15 333.89)">
     <path id="path2978" d="m0 0c0.012-0.111-4e-3 -0.22 0.038-0.308-0.011-0.081 4e-3 -0.166 0.02-0.251 0.01-0.303 0.049-0.612 0.088-0.92 1.394 0.323 2.807 0.587 4.298 0.813 0.789 0.135 1.607 0.265 2.446 0.364l0.027-4e-3c7.314 0.93 15.533 0.876 24.109-0.329 3.401-0.461 6.694-1.099 9.855-1.884 0.451-0.12 0.878-0.209 1.302-0.325 7.797-2.028 14.731-4.895 20.379-8.294 3.977 8.151 7.159 17.654 9.028 27.978 6.407 35.012-4.118 66.294-23.496 69.877-10.748 1.985-21.957-4.988-30.885-17.517 0 0-3e-3 -0.027-0.03-0.023-1.346-1.898-2.634-3.968-3.853-6.132-0.116-0.231-0.255-0.431-0.371-0.662-0.181-0.305-0.362-0.609-0.543-0.912-0.221-0.381-0.444-0.789-0.668-1.198-0.366-0.635-0.706-1.274-1.021-1.944-0.455-0.87-0.884-1.744-1.289-2.648-0.436-0.928-0.845-1.86-1.227-2.795-1.073-2.488-2.058-5.125-2.95-7.886-0.293-0.894-0.591-1.813-0.861-2.737-0.035-0.05-0.042-0.105-0.05-0.159-0.375-1.266-0.753-2.56-1.082-3.888-0.24-0.902-0.456-1.833-0.672-2.765-0.155-0.693-0.31-1.387-0.464-2.08-0.055-0.184-0.078-0.347-0.132-0.531-0.224-0.986-0.43-2.029-0.603-3.05-1.919-10.482-2.306-20.634-1.393-29.79z" fill="none" stroke="#000" stroke-miterlimit="10"/>
    </g>
    <g id="g2980" transform="translate(184.47 421.31)">
     <path id="path2982" d="m0 0s-3.018-11.939 5.864-18.237" fill="none" stroke="#000" stroke-miterlimit="10"/>
    </g>
    <g id="g2984" transform="translate(172.25 409.77)">
     <path id="path2986" d="m0 0s-0.049-13.519 11.326-16.974" fill="none" stroke="#000" stroke-miterlimit="10"/>
    </g>
    <g id="g2988" transform="translate(165.51 391.57)">
     <path id="path2990" d="m0 0s0.645-11.896 11.979-15.588" fill="none" stroke="#000" stroke-miterlimit="10"/>
    </g>
    <g id="g2992" transform="translate(184.17 391.64)">
     <path id="path2994" d="m0 0c1e-3 0.024 0.026 0.049 0.052 0.073 9.663 18.964 23.863 30.598 37.278 28.549 6.133-8.058 9.059-19.597 7.152-31.745-0.944-5.999-2.995-11.469-5.8-16.196l-15.418 7.582 8.575-16.209c-6.743-6.36-15.338-9.656-24.09-8.281-6.694 1.048-12.478 4.683-16.836 9.965 2.022 9.677 5.214 18.591 9.087 26.262"/>
    </g>
    <g id="g2996" transform="translate(184.17 391.64)">
     <path id="path2998" d="m0 0c1e-3 0.024 0.026 0.049 0.052 0.073 9.663 18.964 23.863 30.598 37.278 28.549 6.133-8.058 9.059-19.597 7.152-31.745-0.944-5.999-2.995-11.469-5.8-16.196l-15.418 7.582 8.575-16.209c-6.743-6.36-15.338-9.656-24.09-8.281-6.694 1.048-12.478 4.683-16.836 9.965 2.022 9.677 5.214 18.591 9.087 26.262z" fill="none" stroke="#000" stroke-miterlimit="10"/>
    </g>
    <g id="g3000" transform="translate(188.55 393.78)">
     <path id="path3002" d="m0 0c15.67-7.792 9.452-8.875 6.061-27.775 8.082 17.418 5.043 20.879 22.344 18.254-15.669 7.792-11.306 8.518-7.915 27.419-8.082-17.419-3.188-20.523-20.49-17.898" fill="#fff"/>
    </g>
    <g id="g3004" transform="translate(267.87 339.51)">
     <path id="path3006" d="m0 0-1.614-14.645s-22.787 12.384-24.232 1.102c-1.444-11.28 22.813-17.56 22.813-17.56" fill="#ff606f" stroke="#000" stroke-miterlimit="10"/>
    </g>
    <g id="g3008" transform="translate(256.65 297.78)">
     <path id="path3010" d="m0 0c15.427-3.306 27.652 2.182 41.872-0.666 7.982-1.599 15.405-4.727 14.103-13.622-2.387-16.29-16.698-25.185-32.922-29.34-20.956-5.366-44.128-2.381-61.176 10.451-20.622 15.524-27.671 34.182-22.903 43.199 4.223 7.99 10.874 8.48 18.827 6.755 14.167-3.073 28.083-13.752 42.199-16.777" fill="#fff"/>
    </g>
    <g id="g3012" transform="translate(256.65 297.78)">
     <path id="path3014" d="m0 0c15.427-3.306 27.652 2.182 41.872-0.666 7.982-1.599 15.405-4.727 14.103-13.622-2.387-16.29-16.698-25.185-32.922-29.34-20.956-5.366-44.128-2.381-61.176 10.451-20.622 15.524-27.671 34.182-22.903 43.199 4.223 7.99 10.874 8.48 18.827 6.755 14.167-3.073 28.083-13.752 42.199-16.777z" fill="none" stroke="#000" stroke-miterlimit="10"/>
    </g>
    <g id="g3016" transform="translate(221.05 313.02)">
     <path id="path3018" d="m0 0c-7.56-12.177-12.336-26.6-10.995-41.054" fill="none" stroke="#000" stroke-miterlimit="10"/>
    </g>
    <g id="g3020" transform="translate(247.42 300.11)">
     <path id="path3022" d="m0 0c-2.627-5.105-5.529-11.973-7.446-20.381-2.207-9.676-2.358-18.089-1.975-24.259" fill="none" stroke="#000" stroke-miterlimit="10"/>
    </g>
    <g id="g3024" transform="translate(279.86 297.53)">
     <path id="path3026" d="m0 0c-2.541-5.341-5.451-12.945-6.908-22.393-1.316-8.528-0.91-16.795-0.271-22.28" fill="none" stroke="#000" stroke-miterlimit="10"/>
    </g>
    <g id="g3028" transform="translate(161.19 280.43)">
     <path id="path3030" d="m0 0-8.5-14.06c-9.489-3.89-19.6-5.96-30.1-4.83-24.46 2.62-44.2 19.54-55.58 40.661-11.219 20.839-16.849 44.859-21.599 67.889-6.361 30.84-8.01 62.33-9.26 93.71-0.521 12.89 19.479 12.83 20 0 1.279-32.189 2.88-64.47 10.21-95.96 4.68-20.17 9.309-41.26 20.01-59.229 9.519-16.011 25.969-28.381 44.469-27.311 7.981 0.46 15.92 3.57 23.441 7.96z"/>
    </g>
    <g id="g3032" transform="translate(60.075 445.24)">
     <path id="path3034" d="m0 0-1.966-0.117c18.977 1.461 20.869 33.552 14.528 41.149-8.963 9.348-15.11-11.33-15.11-11.33s-3.537 14.087-14.829 28.209c-13.445 16.816-14.564 1.294-14.564 1.294s-4.746 8.327-12.903 6.586c-6.504-2.321-1.815-10.1-1.815-10.1-2.895 2.413-9.181 6.711-11.909 2.172-2.571-4.276 0.703-9.633 2.495-13.111 2.498-4.85 5.297-9.517 8.201-14.131 0.841-1.334 2.71-3.436 2.72-5.124 0.147-24.733 17.724-28.768 17.724-28.768-1.189-2.14-2.214-5.927-1.409-7.383 1.244-2.251 3.772-3.477 6.34-3.341 5.567 0.293 17.893 1.159 23.273 3.253 7.065 2.749-0.776 10.742-0.776 10.742" fill="#fff"/>
    </g>
    <g id="g3036" transform="translate(60.075 445.24)">
     <path id="path3038" d="m0 0-1.966-0.117c18.977 1.461 20.869 33.552 14.528 41.149-8.963 9.348-15.11-11.33-15.11-11.33s-3.537 14.087-14.829 28.209c-13.445 16.816-14.564 1.294-14.564 1.294s-4.746 8.327-12.903 6.586c-6.504-2.321-1.815-10.1-1.815-10.1-2.895 2.413-9.181 6.711-11.909 2.172-2.571-4.276 0.703-9.633 2.495-13.111 2.498-4.85 5.297-9.517 8.201-14.131 0.841-1.334 2.71-3.436 2.72-5.124 0.147-24.733 17.724-28.768 17.724-28.768-1.189-2.14-2.214-5.927-1.409-7.383 1.244-2.251 3.772-3.477 6.34-3.341 5.567 0.293 17.893 1.159 23.273 3.253 7.065 2.749-0.776 10.742-0.776 10.742z" fill="none" stroke="#000" stroke-miterlimit="10"/>
    </g>
    <g id="g3040" transform="translate(28.134 504.45)">
     <path id="path3042" d="m0 0 13.687-22.918" fill="none" stroke="#000" stroke-miterlimit="10"/>
    </g>
    <g id="g3044" transform="translate(13.416 500.94)">
     <path id="path3046" d="m0 0 14.502-24.049" fill="none" stroke="#000" stroke-miterlimit="10"/>
    </g>
    <g id="g3048" transform="translate(22.449 475.05)">
     <path id="path3050" d="m0 0 21.785 7.197" fill="none" stroke="#000" stroke-miterlimit="10"/>
    </g>
    <g id="g3052" transform="translate(57.527 474.95)">
     <path id="path3054" d="m0 0-0.495-3.869s-14.831 5.504-17.313-8.51" fill="none" stroke="#000" stroke-miterlimit="10"/>
    </g>
    <g id="g3056" transform="translate(38.791 443.05)">
     <path id="path3058" d="m0 0-6.602-1.136" fill="none" stroke="#000" stroke-miterlimit="10"/>
    </g>
    <g id="g3060" transform="translate(274.92 224.48)">
     <path id="path3062" d="m0 0 0.998-19.741 0.397-6.093 0.096-1.622 0.855-13.386 1.206-18.916 1.285-20.327 1.099-17.223 0.521-8.176 0.129-2.072c0.167-2.715 1.865-4.94 4.229-5.519l0.223-0.045c0.4-0.081 0.81-0.109 1.204-0.094 1.885 0.072 3.714 1.192 4.818 3.068l6.061 10.303 3.868 6.564 5.35 9.094 10.074 17.102 9.841 16.733 9.645 16.372 2.841 4.826 3.724 6.33 2e-3 0.013 0.615 1.036 1.905 3.232c-21.718-0.937-54.331 3.724-70.986 18.541" fill="#ffd900"/>
    </g>
    <g id="g3064" transform="translate(274.92 224.48)">
     <path id="path3066" d="m0 0 0.998-19.741 0.397-6.093 0.096-1.622 0.855-13.386 1.206-18.916 1.285-20.327 1.099-17.223 0.521-8.176 0.129-2.072c0.167-2.715 1.865-4.94 4.229-5.519l0.223-0.045c0.4-0.081 0.81-0.109 1.204-0.094 1.885 0.072 3.714 1.192 4.818 3.068l6.061 10.303 3.868 6.564 5.35 9.094 10.074 17.102 9.841 16.733 9.645 16.372 2.841 4.826 3.724 6.33 2e-3 0.013 0.615 1.036 1.905 3.232c-21.718-0.937-54.331 3.724-70.986 18.541z" fill="none" stroke="#000" stroke-miterlimit="10"/>
    </g>
    <g id="g3068" transform="translate(302.57 131.97)">
     <path id="path3070" d="m0 0 3.51 9.124 6.542 17.047 6.694 17.43 0.012-2e-3 6.537 17.019 5.32 13.557" fill="none" stroke="#000" stroke-miterlimit="10"/>
    </g>
    <g id="g3072" transform="translate(287.82 112.04)">
     <path id="path3074" d="m0 0 3.157 14.115 3.571 15.898 3.945 17.561 4.126 18.383 3.975 17.708 2.892 13.565" fill="none" stroke="#000" stroke-miterlimit="10"/>
    </g>
    <g id="g3076" transform="translate(290.05 215.63)">
     <path id="path3078" d="m0 0-8.825-96.225" fill="none" stroke="#000" stroke-miterlimit="10"/>
    </g>
    <g id="g3080" transform="translate(337.48 191.27)">
     <path id="path3082" d="m0 0c-2.17 0.207-4.373 0.436-6.617 0.699-0.695 0.072-1.386 0.158-2.078 0.244-0.657 0.078-1.325 0.16-1.99 0.253-0.31 0.036-0.621 0.072-0.929 0.12-1.263 0.162-2.535 0.338-3.817 0.53-5.003 0.702-10.159 1.559-15.451 2.583-0.129 0.026-0.27 0.054-0.411 0.083-5.833 1.134-11.884 2.574-17.652 4.082-2.727 0.72-12.596 3.575-12.711 3.612" fill="none" stroke="#000" stroke-miterlimit="10"/>
    </g>
    <g id="g3084" transform="translate(277.93 184.41)">
     <path id="path3086" d="m0 0c2.886-0.962 5.922-1.898 9.127-2.786 4.836-1.345 10.036-2.584 15.569-3.629 0.223-0.046 0.457-0.094 0.693-0.142 5.605-1.046 10.955-1.79 16.002-2.28l0.011-2e-3c2.945-0.309 5.774-0.527 8.507-0.67" fill="none" stroke="#000" stroke-miterlimit="10"/>
    </g>
    <g id="g3088" transform="translate(279.13 165.49)">
     <path id="path3090" d="m0 0c1.941-0.852 4.093-1.691 6.413-2.482 3.824-1.331 8.163-2.535 12.95-3.4 0.306-0.061 0.599-0.121 0.908-0.171 4.748-0.815 9.178-1.207 13.218-1.298 1.885-0.052 3.672-0.043 5.372 0.025" fill="none" stroke="#000" stroke-miterlimit="10"/>
    </g>
    <g id="g3092" transform="translate(280.42 145.16)">
     <path id="path3094" d="m0 0c1.149-0.358 2.351-0.7 3.596-1.009 3.228-0.838 6.747-1.569 10.537-2.106 0.307-0.049 0.615-0.098 0.937-0.136 3.738-0.499 7.284-0.738 10.592-0.818 0.617-0.03 1.229-0.03 1.84-0.03" fill="none" stroke="#000" stroke-miterlimit="10"/>
    </g>
    <g id="g3096" transform="translate(298.7 125.41)">
     <path id="path3098" d="m0 0c-2.345 0.133-4.806 0.357-7.353 0.697-0.12 0.01-0.249 0.036-0.369 0.047-2.936 0.405-5.706 0.914-8.309 1.515-0.4 0.081-0.784 0.173-1.155 0.276" fill="none" stroke="#000" stroke-miterlimit="10"/>
    </g>
    <g id="g3100" transform="translate(348.91 209.28)">
     <path id="path3102" d="m0 0c-2.724 4.219-3.251 8.032-3.77 12.374 0.444-0.544 0.999-0.964 1.716-1.161 1.351-0.372 2.743 0.345 3.12 1.666 0.442 1.546-0.593 3.264-1.398 4.604-1.624 2.706-3.786 5.155-6.003 7.39-3.886 11.333-12.266 21.622-24.152 24.244-0.155 0.036-0.773 0.163-0.928 0.193-13.888 2.665-27.527-6.041-35.377-17.204l-0.062-0.032c-2.788-1.49-5.587-3.203-7.945-5.322-1.162-1.046-2.656-2.384-2.688-3.992-0.028-1.374 1.092-2.468 2.493-2.509 0.22-6e-3 0.43 0.018 0.635 0.053-1.205-1.445-2.63-2.791-4.491-4.039-2.602-1.744-7.933-4.658-7.534-8.492 0.425-4.084 5.236-3.421 8.353-3.831 0.028-1.476 0.289-2.762 0.732-3.875-0.453-1.577-1.144-3.085-1.516-4.694-0.413-1.782-0.666-4.798 2.095-4.441 2.131 0.279 3.455 2.847 5.219 3.981 4.772-1.508 11.092-0.181 15.156 2.918 0.275 0.21 1.591-4.244 1.68-4.58 0.687-2.614 1.106-5.022 0.879-7.756-0.255-3.054-1.792-5.886-1.897-8.953-0.109-3.236 3.494-4.687 5.267-1.881 1.115 1.764 1.691 3.975 2.49 5.892 1.023 2.451 3.771 9.434 7.25 5.712 1.298-1.388 3.241-2.913 5.273-2.415 1.867 0.457 2.88 2.135 3.74 3.709 0.606 1.106 1.893 4.185 3.454 4.266 0.696 0.037 1.611-1.534 2.133-2.088 0.798-0.847 1.651-1.642 2.554-2.377 1.833-1.492 3.897-2.778 6.156-3.513 0.693-0.226 1.405-0.384 2.121-0.478 1.212-1.73 1.391-4.677 3.262-5.791 2.395-1.42 3.356 1.45 3.682 3.249 0.296 1.627 0.256 3.286 0.465 4.915 0.848 0.847 1.598 1.92 2.208 3.266 3.024-0.858 7.181-3.37 9.187 0.213 1.883 3.363-1.86 8.147-3.559 10.779" fill="#a5daa4"/>
    </g>
    <g id="g3104" transform="translate(348.91 209.28)">
     <path id="path3106" d="m0 0c-2.724 4.219-3.251 8.032-3.77 12.374 0.444-0.544 0.999-0.964 1.716-1.161 1.351-0.372 2.743 0.345 3.12 1.666 0.442 1.546-0.593 3.264-1.398 4.604-1.624 2.706-3.786 5.155-6.003 7.39-3.886 11.333-12.266 21.622-24.152 24.244-0.155 0.036-0.773 0.163-0.928 0.193-13.888 2.665-27.527-6.041-35.377-17.204l-0.062-0.032c-2.788-1.49-5.587-3.203-7.945-5.322-1.162-1.046-2.656-2.384-2.688-3.992-0.028-1.374 1.092-2.468 2.493-2.509 0.22-6e-3 0.43 0.018 0.635 0.053-1.205-1.445-2.63-2.791-4.491-4.039-2.602-1.744-7.933-4.658-7.534-8.492 0.425-4.084 5.236-3.421 8.353-3.831 0.028-1.476 0.289-2.762 0.732-3.875-0.453-1.577-1.144-3.085-1.516-4.694-0.413-1.782-0.666-4.798 2.095-4.441 2.131 0.279 3.455 2.847 5.219 3.981 4.772-1.508 11.092-0.181 15.156 2.918 0.275 0.21 1.591-4.244 1.68-4.58 0.687-2.614 1.106-5.022 0.879-7.756-0.255-3.054-1.792-5.886-1.897-8.953-0.109-3.236 3.494-4.687 5.267-1.881 1.115 1.764 1.691 3.975 2.49 5.892 1.023 2.451 3.771 9.434 7.25 5.712 1.298-1.388 3.241-2.913 5.273-2.415 1.867 0.457 2.88 2.135 3.74 3.709 0.606 1.106 1.893 4.185 3.454 4.266 0.696 0.037 1.611-1.534 2.133-2.088 0.798-0.847 1.651-1.642 2.554-2.377 1.833-1.492 3.897-2.778 6.156-3.513 0.693-0.226 1.405-0.384 2.121-0.478 1.212-1.73 1.391-4.677 3.262-5.791 2.395-1.42 3.356 1.45 3.682 3.249 0.296 1.627 0.256 3.286 0.465 4.915 0.848 0.847 1.598 1.92 2.208 3.266 3.024-0.858 7.181-3.37 9.187 0.213 1.883 3.363-1.86 8.147-3.559 10.779z" fill="none" stroke="#000" stroke-miterlimit="10"/>
    </g>
    <g id="g3108" transform="translate(294.7 184.43)">
     <path id="path3110" d="m0 0c0.566-0.309 1.205-0.514 1.849-0.334 0.575 0.161 1.026 0.569 1.366 1.049 0.775 1.093 1.112 2.473 1.429 3.756 0.142 0.577 0.259 1.168 0.455 1.731 0.166 0.48-0.572 0.759-0.739 0.278-0.35-1.01-0.515-2.084-0.826-3.109-0.286-0.947-0.69-2.282-1.571-2.808-0.47-0.28-1.002-0.195-1.504 0.078-0.188 0.102-0.414 0.095-0.551-0.091-0.113-0.155-0.095-0.449 0.092-0.55" fill="#fff"/>
    </g>
    <g id="g3112" transform="translate(349.32 198.07)">
     <path id="path3114" d="m0 0c0.628 0.147 1.242 0.42 1.603 0.982 0.322 0.503 0.386 1.109 0.321 1.692-0.149 1.332-0.817 2.587-1.434 3.754-0.278 0.526-0.584 1.045-0.812 1.595-0.196 0.468-0.932 0.186-0.737-0.283 0.412-0.988 1.003-1.899 1.454-2.871 0.416-0.897 1.002-2.163 0.696-3.141-0.164-0.522-0.618-0.813-1.175-0.944-0.209-0.049-0.372-0.204-0.35-0.433 0.019-0.193 0.227-0.399 0.434-0.351" fill="#fff"/>
    </g>
    <g id="g3116" transform="translate(311.89 194.27)">
     <path id="path3118" d="m0 0c1.385 0.171 3.07 0.834 3.489 2.311 0.047 0.164-8e-3 0.342-0.176 0.41-0.147 0.057-0.365-0.012-0.412-0.177-0.358-1.265-1.82-1.773-2.996-1.919-0.404-0.05-0.308-0.675 0.095-0.625" fill="#fff"/>
    </g>
    <g id="g3120" transform="translate(338.16 188.22)">
     <path id="path3122" d="M 0,0 C 0.898,1.067 1.685,2.699 0.987,4.066 0.91,4.219 0.749,4.313 0.579,4.247 0.433,4.19 0.32,3.991 0.398,3.838 0.995,2.667 0.269,1.3 -0.495,0.394 -0.757,0.083 -0.263,-0.311 0,0" fill="#fff"/>
    </g>
    <g id="g3124" transform="translate(265.57 215.84)">
     <path id="path3126" d="m0 0c-0.519 0.384-0.975 0.877-1.083 1.536-0.097 0.589 0.083 1.171 0.374 1.681 0.663 1.164 1.773 2.053 2.802 2.88 0.464 0.373 0.95 0.728 1.378 1.143 0.364 0.354 0.928-0.198 0.564-0.552-0.768-0.744-1.673-1.346-2.471-2.06-0.738-0.66-1.777-1.59-1.881-2.61-0.057-0.544 0.245-0.991 0.705-1.331 0.173-0.127 0.26-0.334 0.149-0.538-0.093-0.169-0.366-0.275-0.537-0.149" fill="#fff"/>
    </g>
    <g id="g3128" transform="translate(271.64 201.72)">
     <path id="path3130" d="M 0,0 C -0.403,1.336 -0.479,3.146 0.701,4.126 0.833,4.234 1.019,4.258 1.148,4.13 1.261,4.02 1.284,3.792 1.152,3.683 0.142,2.844 0.268,1.3 0.61,0.166 0.728,-0.224 0.117,-0.389 0,0" fill="#fff"/>
    </g>
    <g id="g3132" transform="translate(326.94 262.28)">
     <path id="path3134" d="m0 0c-0.859-4.167-4.935-6.849-9.102-5.989s-6.848 4.934-5.988 9.102c0.86 4.167 4.935 6.849 9.102 5.989s6.848-4.935 5.988-9.102" fill="#ff1930"/>
    </g>
    <g id="g3136" transform="translate(326.94 262.28)">
     <path id="path3138" d="m0 0c-0.859-4.167-4.935-6.849-9.102-5.989s-6.848 4.934-5.988 9.102c0.86 4.167 4.935 6.849 9.102 5.989s6.848-4.935 5.988-9.102z" fill="none" stroke="#000" stroke-miterlimit="10"/>
    </g>
    <g id="g3140" transform="translate(325.09 274.82)">
     <path id="path3142" d="m0 0-2.29-4.033" fill="#fff" stroke="#000" stroke-miterlimit="10"/>
    </g>
    <g id="g3144" transform="translate(318.29 270.11)">
     <path id="path3146" d="m0 0c-2.094-0.217-3.492-1.965-4.079-3.866-0.108-0.349 0.194-0.766 0.541-0.821 0.401-0.065 0.706 0.166 0.821 0.54 0.016 0.05 0.032 0.101 0.048 0.151 0.047 0.142-0.051-0.127 0.01 0.025 0.033 0.083 0.064 0.167 0.099 0.25 0.079 0.183 0.164 0.362 0.261 0.535 0.052 0.095 0.108 0.189 0.165 0.281 0.025 0.039 0.05 0.076 0.074 0.114 0.046 0.072-0.074-0.099 6e-3 8e-3 0.125 0.165 0.252 0.327 0.395 0.478 0.067 0.072 0.137 0.141 0.209 0.208 0.013 0.014 0.128 0.114 0.052 0.049-0.076-0.064 0.061 0.048 0.077 0.06 0.153 0.12 0.316 0.228 0.486 0.322 0.039 0.021 0.078 0.042 0.118 0.062-0.153-0.078 0.01 0 0.034 0.011 0.09 0.038 0.183 0.072 0.277 0.102 0.095 0.031 0.192 0.053 0.289 0.078-0.162-0.042 0.013 0 0.041 5e-3 0.055 8e-3 0.111 0.013 0.167 0.019 0.361 0.038 0.69 0.357 0.648 0.741-0.04 0.362-0.352 0.688-0.739 0.648" fill="#fff"/>
    </g>
    <g id="g3148" transform="translate(420.03 154.79)">
     <path id="path3150" d="m0 0c-11.34-16.95-30.76-22.28-50.08-23.61-7.91-0.55-16.12-0.5-24.26 0.34-11.72 1.22-23.3 4.08-33.63 9.19-11.55 5.71-1.4 22.96 10.1 17.27 6.03-2.99 13.13-4.91 20.58-6.02 10.45-1.54 21.57-1.47 31.36-0.43 13.28 1.42 26.87 6 31.701 19.11 5.269 14.3-1.471 28.71-10.431 40.95-12.12 16.56-29.069 28.43-47.31 38.05l20.39 11.23c3.02-1.809 5.99-3.71 8.91-5.7 17.17-11.72 32.49-26.46 42.49-44.87 9.19-16.92 11.33-38.86 0.18-55.51"/>
    </g>
    <g id="g3152" transform="translate(342.74 165.38)">
     <path id="path3154" d="m0 0s7.81 5.765 9.725-1.954-10.521-43.857-22.126-43.245c-7.41 0.389-3.557 8.349-3.557 8.349-39.698-9.671-64.898 17.003-56.593 25.053 0.911 0.883 1.581 1.276 1.581 1.276-4.745 12.325 5.533 14.256 5.533 14.256-2.534 5.871-0.734 9.021 1.597 10.693 2.168 1.555 5.094 1.273 7.121-0.46 12.394-10.591 38.307-8.419 38.307-8.419s6.578 21.32 13.104 18.788c3.747-1.454 5.548-14.581 4.778-25.481" fill="#fff" stroke="#000" stroke-miterlimit="10"/>
    </g>
    <g id="g3156" transform="translate(306.06 157.67)">
     <path id="path3158" d="m0 0s-15.183-0.615-28.759 11.444" fill="none" stroke="#000" stroke-miterlimit="10"/>
    </g>
    <g id="g3160" transform="translate(302.45 142.76)">
     <path id="path3162" d="m0 0s-15.056 0.244-30.678 12.097" fill="none" stroke="#000" stroke-miterlimit="10"/>
    </g>
    <g id="g3164" transform="translate(342.91 164.85)">
     <path id="path3166" d="m0 0-3.942-10.914" fill="none" stroke="#000" stroke-miterlimit="10"/>
    </g>
    <g id="g3168" transform="translate(331.04 136.19)">
     <path id="path3170" d="m0 0-4.254-7.658" fill="#fff" stroke="#000" stroke-miterlimit="10"/>
    </g>
   </g>
  </g>
 </g>
</svg>
