<?xml version="1.0" encoding="UTF-8"?>
<!-- Created with Inkscape (http://www.inkscape.org/) -->
<svg id="svg2" width="682.67" height="682.67" version="1.1" viewBox="0 0 682.67 682.67" xmlns="http://www.w3.org/2000/svg">
 <defs id="defs6">
  <clipPath id="clipPath934">
   <path id="path932" d="m0 512h512v-512h-512z"/>
  </clipPath>
 </defs>
 <g id="g926" transform="matrix(1.3333 0 0 -1.3333 -1.3936e-5 682.67)">
  <g id="g928">
   <g id="g930" clip-path="url(#clipPath934)">
    <g id="g936" transform="translate(163.8 362.04)">
     <path id="path938" d="m0 0c-14.016-13.649-28.626-26.816-45.336-37.116-13.708-8.449-30.476-17.014-46.954-16.895-6.301 0.046-12.439 1.907-16.719 7.278-4.991 6.264-7.535 14.526-9.186 22.23-3.937 18.371-2.282 38.019-0.966 56.602 1.803 25.461 5.454 50.704 11.491 75.515 3.041 12.503-16.24 17.837-19.286 5.317-5.993-24.636-9.717-49.794-11.767-75.056-1.774-21.873-3.328-44.448 0.923-66.135 3.786-19.322 14.29-40.317 35.296-44.641 19.46-4.006 39.902 3.79 56.93 12.644 22.419 11.656 41.72 28.59 59.716 46.115 9.237 8.996-4.912 23.131-14.142 14.142"/>
    </g>
    <g id="g940" transform="translate(61.534 427.52)">
     <path id="path942" d="m0 0s15.895-14.973-11.748-18.198-40.083-1.152-27.874 12.669c0 0-25.049 0-20.348 65.673 0.242 3.387 1.254 7.447 4.389 8.75 4.392 1.824 11.102-5.008 16.581-30.331 0 0-7.87 44.729 4.966 44.491 2.439-0.046 4.444-1.971 5.601-4.118 2.377-4.412 6.711-24.343 7.766-38.933 0 0-0.927 27.743 2.304 36.858 3.232 9.116 11.409 11.784 14.411-5.759 0.775-4.53 1.167-9.117 1.292-13.71l0.587-21.686s10.164 22.974 20.139 17.892c6.266-3.193 4.74-43.693-18.066-53.598" fill="#fff"/>
    </g>
    <g id="g944" transform="translate(61.534 427.52)">
     <path id="path946" d="m0 0s15.895-14.973-11.748-18.198-40.083-1.152-27.874 12.669c0 0-25.049 0-20.348 65.673 0.242 3.387 1.254 7.447 4.389 8.75 4.392 1.824 11.102-5.008 16.581-30.331 0 0-7.87 44.729 4.966 44.491 2.439-0.046 4.444-1.971 5.601-4.118 2.377-4.412 6.711-24.343 7.766-38.933 0 0-0.927 27.743 2.304 36.858 3.232 9.116 11.409 11.784 14.411-5.759 0.775-4.53 1.167-9.117 1.292-13.71l0.587-21.686s10.164 22.974 20.139 17.892c6.266-3.193 4.74-43.693-18.066-53.598z" fill="none" stroke="#000" stroke-miterlimit="10"/>
    </g>
    <g id="g948" transform="translate(49.663 468.31)">
     <path id="path950" d="m0 0-35.87-4.513" fill="none" stroke="#000" stroke-miterlimit="10"/>
    </g>
    <g id="g952" transform="translate(58.554 459.77)">
     <path id="path954" d="m0 0s-21.65-1.609-20.195-21.477" fill="none" stroke="#000" stroke-miterlimit="10"/>
    </g>
    <g id="g956" transform="translate(46.22 425.09)">
     <path id="path958" d="m0 0c1.943-0.291 4.741-0.486 8.029 0.046 2.746 0.446 4.977 1.26 6.595 1.995" fill="none" stroke="#000" stroke-miterlimit="10"/>
    </g>
    <g id="g960" transform="translate(31.532 422.78)">
     <path id="path962" d="m0 0-9.62-0.79" fill="none" stroke="#000" stroke-miterlimit="10"/>
    </g>
    <g id="g964" transform="translate(353.16 366.41)">
     <path id="path966" d="m0 0c14.017-13.649 28.626-26.816 45.336-37.116 13.708-8.449 30.476-17.014 46.954-16.895 6.302 0.046 12.439 1.907 16.719 7.278 4.991 6.264 7.535 14.526 9.186 22.23 3.938 18.371 2.283 38.019 0.966 56.602-1.804 25.461-5.455 50.704-11.491 75.515-3.041 12.503 16.24 17.837 19.286 5.317 5.993-24.636 9.717-49.794 11.767-75.056 1.774-21.873 3.328-44.448-0.922-66.135-3.787-19.322-14.291-40.317-35.296-44.641-19.461-4.006-39.902 3.79-56.931 12.644-22.419 11.656-41.72 28.59-59.716 46.115-9.237 8.996 4.912 23.131 14.142 14.142"/>
    </g>
    <g id="g968" transform="translate(454.9 424.03)">
     <path id="path970" d="m0 0s-14.112-16.664 13.718-16.764c27.83-0.099 39.958 3.358 26.274 15.721 0 0 24.891 2.813 12.843 67.542-0.621 3.338-2.082 7.26-5.345 8.202-4.568 1.32-10.469-6.223-13.069-32.001 0 0 2.797 45.33-9.932 43.651-2.418-0.319-4.193-2.458-5.102-4.722-1.867-4.65-3.935-24.942-3.345-39.558 0 0-2.194 27.672-6.429 36.367-4.235 8.694-12.661 10.426-13.673-7.343-0.26-4.588-0.135-9.19 0.257-13.768l1.853-21.615s-12.681 21.688-22.023 15.517c-5.867-3.876 0.199-43.948 23.973-51.229" fill="#fff"/>
    </g>
    <g id="g972" transform="translate(454.9 424.03)">
     <path id="path974" d="m0 0s-14.112-16.664 13.718-16.764c27.83-0.099 39.958 3.358 26.274 15.721 0 0 24.891 2.813 12.843 67.542-0.621 3.338-2.082 7.26-5.345 8.202-4.568 1.32-10.469-6.223-13.069-32.001 0 0 2.797 45.33-9.932 43.651-2.418-0.319-4.193-2.458-5.102-4.722-1.867-4.65-3.935-24.942-3.345-39.558 0 0-2.194 27.672-6.429 36.367-4.235 8.694-12.661 10.426-13.673-7.343-0.26-4.588-0.135-9.19 0.257-13.768l1.853-21.615s-12.681 21.688-22.023 15.517c-5.867-3.876 0.199-43.948 23.973-51.229z" fill="none" stroke="#000" stroke-miterlimit="10"/>
    </g>
    <g id="g976" transform="translate(462.11 465.89)">
     <path id="path978" d="m0 0 36.149-0.456" fill="none" stroke="#000" stroke-miterlimit="10"/>
    </g>
    <g id="g980" transform="translate(454.24 456.4)">
     <path id="path982" d="m0 0s21.694 0.833 22.479-19.072" fill="none" stroke="#000" stroke-miterlimit="10"/>
    </g>
    <g id="g984" transform="translate(470.39 423.33)">
     <path id="path986" d="m0 0c-1.898-0.507-4.656-1.016-7.984-0.856-2.778 0.134-5.087 0.693-6.777 1.241" fill="none" stroke="#000" stroke-miterlimit="10"/>
    </g>
    <g id="g988" transform="translate(485.24 422.69)">
     <path id="path990" d="m0 0 9.648 0.296" fill="none" stroke="#000" stroke-miterlimit="10"/>
    </g>
    <g id="g992" transform="translate(181.57 233.24)">
     <path id="path994" d="m0 0c-8.46 12.912 11.271 26.525 19.735 13.607 36.165-55.19 36.732-127.92 28.725-191.16-0.813-6.424-8.035-10.63-14.076-9.446-6.717 1.316-10.262 7.633-9.447 14.076 3.75 29.609 4.827 59.623 1.715 89.347-3.059 29.228-10.385 58.751-26.652 83.575"/>
    </g>
    <g id="g996" transform="translate(253 75.516)">
     <path id="path998" d="m0 0-60.434-0.939-1.29-72.971 112.76-0.821s5.928 43.459-51.97 38.7z" fill="#ae7ff9"/>
    </g>
    <g id="g1000" transform="translate(253 75.516)">
     <path id="path1002" d="m0 0-60.434-0.939-1.29-72.971 112.76-0.821s5.928 43.459-51.97 38.7z" fill="none" stroke="#000" stroke-miterlimit="10"/>
    </g>
    <g id="g1004" transform="translate(287.26 9.7627)">
     <path id="path1006" d="m0 0s-3.685 18.951-24.215 18.425" fill="none" stroke="#fff" stroke-linecap="round" stroke-miterlimit="10"/>
    </g>
    <g id="g1008" transform="translate(324.57 275.62)">
     <path id="path1010" d="m0 0c21.483-30.55 40.778-62.888 52.918-98.368 13.21-38.61 16.634-77.892 15.45-118.45-0.189-6.475-7.76-10.961-13.619-10.095-7.025 1.039-10.283 7.125-10.094 13.62 1.073 36.753-2.39 72.943-14.6 107.81-11.512 32.872-29.176 62.595-49.133 90.975-8.87 12.614 10.192 27.15 19.078 14.514"/>
    </g>
    <g id="g1012" transform="translate(405.99 75.516)">
     <path id="path1014" d="m0 0-60.434-0.939-1.29-72.971 112.76-0.821s5.927 43.459-51.97 38.7z" fill="#ae7ff9"/>
    </g>
    <g id="g1016" transform="translate(405.99 75.516)">
     <path id="path1018" d="m0 0-60.434-0.939-1.29-72.971 112.76-0.821s5.927 43.459-51.97 38.7z" fill="none" stroke="#000" stroke-miterlimit="10"/>
    </g>
    <g id="g1020" transform="translate(445.83 9.7627)">
     <path id="path1022" d="m0 0s-3.686 18.951-24.216 18.425" fill="none" stroke="#fff" stroke-linecap="round" stroke-miterlimit="10"/>
    </g>
    <g id="g1024" transform="translate(60.396 398.44)">
     <path id="path1026" d="m0 0 47.969-81.886-50.466-80.371 91.822-23.983 21.147-92.516 81.885 47.969 80.372-50.465 23.983 91.821 92.516 21.147-47.969 81.886 50.465 80.371-91.822 23.983-21.146 92.516-81.886-47.969-80.371 50.465-23.983-91.821z" fill="#00a3f7"/>
    </g>
    <g id="g1028" transform="translate(60.396 398.44)">
     <path id="path1030" d="m0 0 47.969-81.886-50.466-80.371 91.822-23.983 21.147-92.516 81.885 47.969 80.372-50.465 23.983 91.821 92.516 21.147-47.969 81.886 50.465 80.371-91.822 23.983-21.146 92.516-81.886-47.969-80.371 50.465-23.983-91.821z" fill="none" stroke="#000" stroke-miterlimit="10"/>
    </g>
    <g id="g1032" transform="translate(247.17 334.39)">
     <path id="path1034" d="m0 0 2.204-12.439s20.856 6.648 23.768-3.721c2.91-10.367-21.096-11.975-21.096-11.975" fill="#84d7fc" stroke="#000" stroke-miterlimit="10"/>
    </g>
    <g id="g1036" transform="translate(352.7 290.14)">
     <path id="path1038" d="m0 0c0.906-3.663 0.987-7.641 0.018-11.776-4.926-21.016-27.659-37.298-45.727-46.557-14.674-7.519-31.124-10.837-47.577-9.756-20.759 1.365-43.071 4.301-61.68 14.198-12.563 6.682-29.409 24.386-19.323 39.326 8.942 13.243 30.653 16.789 45.393 17.271 13.658 0.446 27.238-0.566 40.852 1.121 17.03 2.107 32.745 9.376 49.079 14.169 15.677 4.6 34.592-0.34 38.965-17.996"/>
    </g>
    <g id="g1040" transform="translate(352.7 290.14)">
     <path id="path1042" d="m0 0c0.906-3.663 0.987-7.641 0.018-11.776-4.926-21.016-27.659-37.298-45.727-46.557-14.674-7.519-31.124-10.837-47.577-9.756-20.759 1.365-43.071 4.301-61.68 14.198-12.563 6.682-29.409 24.386-19.323 39.326 8.942 13.243 30.653 16.789 45.393 17.271 13.658 0.446 27.238-0.566 40.852 1.121 17.03 2.107 32.745 9.376 49.079 14.169 15.677 4.6 34.592-0.34 38.965-17.996z" fill="none" stroke="#000" stroke-miterlimit="10"/>
    </g>
    <g id="g1044" transform="translate(219.28 228.13)">
     <path id="path1046" d="m0 0s3.744 66.756 116.48 57.777c23.177-1.845 45.257-10.667 68.508-10.53 25.494 0.149 58.362 7.926 80.189-9.352 19.19-15.19 22.257-44.395 13.467-65.99-10.382-25.509-34.739-43.745-58.859-55.297-29.091-13.932-58.445-12.444-89.812-2.24-31.663 10.299-49.154 31.601-69.967 54.53-15.895 17.512-44.006 28.34-60.009 31.102" fill="#ff652d"/>
    </g>
    <g id="g1048" transform="translate(219.28 228.13)">
     <path id="path1050" d="m0 0s3.744 66.756 116.48 57.777c23.177-1.845 45.257-10.667 68.508-10.53 25.494 0.149 58.362 7.926 80.189-9.352 19.19-15.19 22.257-44.395 13.467-65.99-10.382-25.509-34.739-43.745-58.859-55.297-29.091-13.932-58.445-12.444-89.812-2.24-31.663 10.299-49.154 31.601-69.967 54.53-15.895 17.512-44.006 28.34-60.009 31.102z" fill="none" stroke="#000" stroke-miterlimit="10"/>
    </g>
    <g id="g1052" transform="translate(378.74 149.36)">
     <path id="path1054" d="m0 0c29.997 1.422 60.007 7.131 82.597 28.414 2.293 2.16 5.943-1.138 3.634-3.313-11.339-10.684-24.837-18.417-39.715-23.016-14.973-4.627-30.695-6.259-46.288-6.998-3.162-0.15-3.394 4.763-0.228 4.913" fill="#fff"/>
    </g>
    <g id="g1056" transform="translate(469.33 185.36)">
     <path id="path1058" d="m0 0c0.086 0.309 0.242 0.58 0.472 0.814 0.212 0.249 0.466 0.431 0.767 0.544 0.285 0.168 0.598 0.253 0.936 0.256 0.22-0.02 0.438-0.039 0.657-0.058 0.422-0.098 0.793-0.291 1.113-0.581 0.136-0.161 0.272-0.32 0.408-0.48 0.24-0.373 0.371-0.781 0.392-1.224l0.02-0.421c0.028-0.338-0.028-0.657-0.168-0.956-0.085-0.31-0.243-0.581-0.471-0.814-0.212-0.25-0.467-0.432-0.768-0.545-0.285-0.167-0.597-0.252-0.936-0.255l-0.657 0.057c-0.421 0.098-0.792 0.292-1.113 0.582-0.135 0.16-0.271 0.319-0.407 0.479-0.24 0.373-0.371 0.782-0.392 1.225l-0.02 0.421c-0.028 0.337 0.027 0.656 0.167 0.956" fill="#fff"/>
    </g>
    <g id="g1060" transform="translate(438.99 268.35)">
     <path id="path1062" d="m0 0c8.752 1.429 17.599 2.458 26.302 0.18 8.467-2.217 16.395-7.581 19.817-15.892 0.968-2.35-2.625-4-3.595-1.646-3.155 7.664-10.618 12.256-18.443 14.044-7.765 1.773-15.7 0.678-23.45-0.587-2.51-0.41-3.145 3.491-0.631 3.901" fill="#fff"/>
    </g>
    <g id="g1064" transform="translate(308.12 192.26)">
     <path id="path1066" d="m0 0c-12.198 7.956-19.496 20.957-30.236 30.5-11.437 10.163-27.21 16.249-42.456 12.865-2.988-0.663-1.657-5.233 1.328-4.571 15.115 3.355 30.461-4.133 40.98-14.711 9.41-9.464 16.682-20.818 28.039-28.225 2.573-1.677 4.9 2.475 2.345 4.142" fill="#fff"/>
    </g>
    <g id="g1068" transform="translate(411.98 193.67)">
     <path id="path1070" d="m0 0-18.402-24.28-4.894 24.25-32.409-7.18 21.963 21.165-22.159 13.745 32.428 3.723 0.201 25.715 23.051-17.916 29.496 17.952-10.771-25.696 30.283-3.644-30.184-13.812 9.646-21.125z" fill="#ffca42"/>
    </g>
    <g id="g1072" transform="translate(321.62 245.05)">
     <path id="path1074" d="m0 0-10.041-13.249-2.67 13.233-17.685-3.919 11.985 11.55-12.091 7.5 17.694 2.031 0.11 14.031 12.578-9.776 16.095 9.796-5.878-14.022 16.524-1.987-16.471-7.537 5.264-11.526z" fill="#ffca42"/>
    </g>
    <g id="g1076" transform="translate(267.74 355.51)">
     <path id="path1078" d="m0 0c5.174-27.372 31.554-45.343 58.892-40.16 2.198 0.417 4.386 0.961 6.464 1.66 1.99 0.666 3.926 1.433 5.773 2.327 0.724 0.319 1.423 0.682 2.103 1.057 0.611 0.329 1.22 0.658 1.824 1.018 4.403 2.587 8.345 5.806 11.705 9.535 10.299 11.297 15.331 27.144 12.269 43.322-4.369 23.05-23.767 39.41-46.109 40.898-2.039 0.16-4.097 0.172-6.177 0.051-0.176-3e-3 -0.334-0.018-0.507-0.036-2.03-0.128-4.083-0.388-6.111-0.772-27.338-5.182-45.312-31.546-40.126-58.9" fill="#fff"/>
    </g>
    <g id="g1080" transform="translate(267.74 355.51)">
     <path id="path1082" d="m0 0c5.174-27.372 31.554-45.343 58.892-40.16 2.198 0.417 4.386 0.961 6.464 1.66 1.99 0.666 3.926 1.433 5.773 2.327 0.724 0.319 1.423 0.682 2.103 1.057 0.611 0.329 1.22 0.658 1.824 1.018 4.403 2.587 8.345 5.806 11.705 9.535 10.299 11.297 15.331 27.144 12.269 43.322-4.369 23.05-23.767 39.41-46.109 40.898-2.039 0.16-4.097 0.172-6.177 0.051-0.176-3e-3 -0.334-0.018-0.507-0.036-2.03-0.128-4.083-0.388-6.111-0.772-27.338-5.182-45.312-31.546-40.126-58.9z" fill="none" stroke="#000" stroke-miterlimit="10"/>
    </g>
    <g id="g1084" transform="translate(351.1 435.84)">
     <path id="path1086" d="m0 0c-2.827-3.412-4.673-5.544-7.453-12.468-2.199-5.475-3.225-10.44-3.719-14.279" fill="none" stroke="#000" stroke-miterlimit="10"/>
    </g>
    <g id="g1088" transform="translate(372.89 419.76)">
     <path id="path1090" d="m0 0c-3.167-1.978-6.907-4.683-10.711-8.306-1.611-1.527-3.061-3.062-4.359-4.556-1.151-1.312-2.193-2.607-3.117-3.835-0.567-0.759-1.106-1.496-1.584-2.209-0.171-0.234-0.311-0.463-0.468-0.679" fill="none" stroke="#000" stroke-miterlimit="10"/>
    </g>
    <g id="g1092" transform="translate(362.47 386.51)">
     <path id="path1094" d="m0 0c0.219 0.129 0.436 0.275 0.654 0.405 0.366 0.217 0.73 0.433 1.111 0.652 3.051 1.799 6.796 3.66 11.217 5.259 4.589 1.658 8.78 2.599 12.281 3.162" fill="none" stroke="#000" stroke-miterlimit="10"/>
    </g>
    <g id="g1096" transform="translate(310.54 365.17)">
     <path id="path1098" d="m0 0c4.484-22.738 17.863-40.093 32.253-43.759 4.403 2.587 8.346 5.805 11.705 9.534 10.299 11.298 15.331 27.144 12.27 43.322-4.37 23.05-23.768 39.411-46.11 40.899-9.801-9.995-14.193-29.329-10.118-49.996"/>
    </g>
    <g id="g1100" transform="translate(310.54 365.17)">
     <path id="path1102" d="m0 0c4.484-22.738 17.863-40.093 32.253-43.759 4.403 2.587 8.346 5.805 11.705 9.534 10.299 11.298 15.331 27.144 12.27 43.322-4.37 23.05-23.768 39.411-46.11 40.899-9.801-9.995-14.193-29.329-10.118-49.996z" fill="none" stroke="#000" stroke-miterlimit="10"/>
    </g>
    <g id="g1104" transform="translate(131.08 334.08)">
     <path id="path1106" d="m0 0c3.929-27.578 29.468-46.725 57.012-42.786 2.215 0.318 4.426 0.763 6.534 1.367 2.017 0.574 3.986 1.252 5.871 2.062 0.738 0.287 1.454 0.617 2.15 0.961 0.624 0.301 1.248 0.602 1.868 0.935 4.516 2.384 8.6 5.421 12.125 8.995 10.798 10.819 16.544 26.422 14.217 42.721-3.32 23.224-21.957 40.447-44.209 42.945-2.03 0.252-4.085 0.357-6.168 0.33-0.176 5e-3 -0.335-3e-3 -0.508-0.013-2.035-0.036-4.097-0.202-6.14-0.494-27.544-3.939-46.693-29.462-42.752-57.023" fill="#fff"/>
    </g>
    <g id="g1108" transform="translate(131.08 334.08)">
     <path id="path1110" d="m0 0c3.929-27.578 29.468-46.725 57.012-42.786 2.215 0.318 4.426 0.763 6.534 1.367 2.017 0.574 3.986 1.252 5.871 2.062 0.738 0.287 1.454 0.617 2.15 0.961 0.624 0.301 1.248 0.602 1.868 0.935 4.516 2.384 8.6 5.421 12.125 8.995 10.798 10.819 16.544 26.422 14.217 42.721-3.32 23.224-21.957 40.447-44.209 42.945-2.03 0.252-4.085 0.357-6.168 0.33-0.176 5e-3 -0.335-3e-3 -0.508-0.013-2.035-0.036-4.097-0.202-6.14-0.494-27.544-3.939-46.693-29.462-42.752-57.023z" fill="none" stroke="#000" stroke-miterlimit="10"/>
    </g>
    <g id="g1112" transform="translate(123.31 398.12)">
     <path id="path1114" d="m0 0c3.905-2.094 6.418-3.374 11.604-8.738 4.1-4.242 6.922-8.455 8.827-11.824" fill="none" stroke="#000" stroke-miterlimit="10"/>
    </g>
    <g id="g1116" transform="translate(134.9 364.4)">
     <path id="path1118" d="m0 0c-0.228 0.141-0.443 0.3-0.689 0.453-0.712 0.479-1.489 0.96-2.301 1.448-1.319 0.79-2.772 1.597-4.332 2.378-1.765 0.895-3.687 1.769-5.756 2.576-4.888 1.923-9.372 3.019-13.051 3.656" fill="none" stroke="#000" stroke-miterlimit="10"/>
    </g>
    <g id="g1120" transform="translate(103.98 347.29)">
     <path id="path1122" d="m0 0c3.454 0.798 7.69 1.506 12.565 1.701 4.7 0.185 8.869-0.127 12.373-0.643 0.436-0.06 0.855-0.123 1.274-0.186 0.252-0.038 0.508-0.091 0.759-0.128" fill="none" stroke="#000" stroke-miterlimit="10"/>
    </g>
    <g id="g1124" transform="translate(174.28 341.79)">
     <path id="path1126" d="m0 0c3.45-22.918 16.03-40.861 30.238-45.175 4.516 2.385 8.6 5.422 12.125 8.995 10.799 10.819 16.545 26.422 14.218 42.722-3.32 23.224-21.957 40.446-44.209 42.944-10.243-9.54-15.508-28.655-12.372-49.486"/>
    </g>
    <g id="g1128" transform="translate(174.28 341.79)">
     <path id="path1130" d="m0 0c3.45-22.918 16.03-40.861 30.238-45.175 4.516 2.385 8.6 5.422 12.125 8.995 10.799 10.819 16.545 26.422 14.218 42.722-3.32 23.224-21.957 40.446-44.209 42.944-10.243-9.54-15.508-28.655-12.372-49.486z" fill="none" stroke="#000" stroke-miterlimit="10"/>
    </g>
   </g>
  </g>
 </g>
</svg>
