<?xml version="1.0" encoding="UTF-8"?>
<!-- Created with Inkscape (http://www.inkscape.org/) -->
<svg id="svg2" width="682.67" height="682.67" version="1.1" viewBox="0 0 682.67 682.67" xmlns="http://www.w3.org/2000/svg">
 <defs id="defs6">
  <clipPath id="clipPath982">
   <path id="path980" d="m0 512h512v-512h-512z"/>
  </clipPath>
 </defs>
 <g id="g974" transform="matrix(1.3333 0 0 -1.3333 -1.3936e-5 682.67)">
  <g id="g976">
   <g id="g978" clip-path="url(#clipPath982)">
    <g id="g984" transform="translate(151.13 453.74)">
     <path id="path986" d="m0 0c-21.654-4.655-24.016-7.573-25.767-31.813-4.465 23.89-7.14 26.522-29.18 28.714 21.654 4.655 24.016 7.573 25.766 31.813 4.466-23.89 7.141-26.523 29.181-28.714" fill="#00a3f7"/>
    </g>
    <g id="g988" transform="translate(151.13 453.74)">
     <path id="path990" d="m0 0c-21.654-4.655-24.016-7.573-25.767-31.813-4.465 23.89-7.14 26.522-29.18 28.714 21.654 4.655 24.016 7.573 25.766 31.813 4.466-23.89 7.141-26.523 29.181-28.714z" fill="none" stroke="#000" stroke-miterlimit="10"/>
    </g>
    <g id="g992" transform="translate(477.54 356.03)">
     <path id="path994" d="m0 0c-19.341 2.2-22.128 0.434-30.39-19.264 2.988 21.15 1.498 24.094-16.243 32.105 19.341-2.2 22.127-0.434 30.389 19.264-2.986-21.15-1.497-24.094 16.244-32.105" fill="#00a3f7"/>
    </g>
    <g id="g996" transform="translate(477.54 356.03)">
     <path id="path998" d="m0 0c-19.341 2.2-22.128 0.434-30.39-19.264 2.988 21.15 1.498 24.094-16.243 32.105 19.341-2.2 22.127-0.434 30.389 19.264-2.986-21.15-1.497-24.094 16.244-32.105z" fill="none" stroke="#000" stroke-miterlimit="10"/>
    </g>
    <g id="g1000" transform="translate(355.92 463.02)">
     <path id="path1002" d="m0 0c-15.911-0.165-17.993-1.878-22.709-18.689 0.29 17.457-1.214 19.695-16.413 24.405 15.911 0.164 17.993 1.878 22.709 18.689-0.29-17.457 1.215-19.695 16.413-24.405" fill="#00a3f7"/>
    </g>
    <g id="g1004" transform="translate(355.92 463.02)">
     <path id="path1006" d="m0 0c-15.911-0.165-17.993-1.878-22.709-18.689 0.29 17.457-1.214 19.695-16.413 24.405 15.911 0.164 17.993 1.878 22.709 18.689-0.29-17.457 1.215-19.695 16.413-24.405z" fill="none" stroke="#000" stroke-miterlimit="10"/>
    </g>
    <g id="g1008" transform="translate(64.06 305.05)">
     <path id="path1010" d="m0 0c-14.633-3.146-16.229-5.118-17.413-21.499-3.017 16.145-4.825 17.924-19.719 19.405 14.633 3.146 16.23 5.117 17.412 21.498 3.018-16.144 4.826-17.924 19.72-19.404" fill="#00a3f7"/>
    </g>
    <g id="g1012" transform="translate(64.06 305.05)">
     <path id="path1014" d="m0 0c-14.633-3.146-16.229-5.118-17.413-21.499-3.017 16.145-4.825 17.924-19.719 19.405 14.633 3.146 16.23 5.117 17.412 21.498 3.018-16.144 4.826-17.924 19.72-19.404z" fill="none" stroke="#000" stroke-miterlimit="10"/>
    </g>
    <g id="g1016" transform="translate(426 45.164)">
     <path id="path1018" d="m0 0c-10.559 28.039-21.069 57.336-39.783 81.151-21.306 27.112-54.012 43.096-85.779 54.715-5.067 1.854-10.801 0.791-13.435-4.421-2.213-4.383-0.677-11.571 4.422-13.436 28.619-10.468 60.036-24.343 79.075-49.154 17.151-22.351 26.752-49.253 36.577-75.347 4.523-12.009 23.477-5.601 18.923 6.492"/>
    </g>
    <g id="g1020" transform="translate(215.13 170.7)">
     <path id="path1022" d="m0 0c-0.979-26.66-0.847-52.672-8.43-77.956-3.539-11.803-8.683-22.655-17.756-30.873-3.566-3.23-9.276-6.572-14.105-8.13-7.563-2.441-14.906-2.455-22.045 1.245-9.138 4.736-17.164 11.72-25.311 17.935-9.737 7.427-19.212 15.191-27.638 24.105-8.859 9.373-22.984-4.787-14.142-14.142 8.377-8.863 17.796-16.537 27.436-23.972 8.435-6.505 16.773-13.556 25.881-19.111 17.202-10.49 37.39-9.781 54.484 0.692 27.753 17.004 35.688 51.731 39.007 81.82 1.774 16.076 2.026 32.241 2.619 48.387 0.473 12.872-19.528 12.853-20 0"/>
    </g>
    <g id="g1024" transform="translate(105.03 96.475)">
     <path id="path1026" d="m0 0s25.615 5.488 1.084-26.987c-26.302-34.819-23.356-1.93-23.356-1.93l-6.978-2.805s-0.41-59.868-40.099-50.677c-39.69 9.191-13.032 52.765 5.898 77.407 18.931 24.644 34.192 55.132 63.451 4.992" fill="#b58afa"/>
    </g>
    <g id="g1028" transform="translate(105.03 96.475)">
     <path id="path1030" d="m0 0s25.615 5.488 1.084-26.987c-26.302-34.819-23.356-1.93-23.356-1.93l-6.978-2.805s-0.41-59.868-40.099-50.677c-39.69 9.191-13.032 52.765 5.898 77.407 18.931 24.644 34.192 55.132 63.451 4.992z" fill="none" stroke="#000" stroke-miterlimit="10"/>
    </g>
    <g id="g1032" transform="translate(105.03 96.475)">
     <path id="path1034" d="m0 0s-7.054-3.135-13.072-12.251" fill="none" stroke="#000" stroke-miterlimit="10"/>
    </g>
    <g id="g1036" transform="translate(85.559 74.49)">
     <path id="path1038" d="m0 0s-1.684-1.742-2.801-6.933" fill="#fff" stroke="#000" stroke-miterlimit="10"/>
    </g>
    <g id="g1040" transform="translate(75.781 64.753)">
     <path id="path1042" d="m0 0-1.473 19.355" fill="none" stroke="#000" stroke-miterlimit="10"/>
    </g>
    <g id="g1044" transform="translate(75.781 64.753)">
     <path id="path1046" d="m0 0-11.77 10.979" fill="none" stroke="#000" stroke-miterlimit="10"/>
    </g>
    <g id="g1048" transform="translate(57.476 25.77)">
     <path id="path1050" d="m0 0c-1.208-1.054-2.594-1.873-4.012-2.634-1.443-0.709-2.953-1.298-4.513-1.751-3.125-0.893-6.475-1.047-9.723-0.556-1.619 0.29-3.2 0.774-4.704 1.418-1.508 0.631-2.965 1.395-4.267 2.368l-0.977 0.723-0.927 0.782c-0.628 0.506-1.19 1.086-1.765 1.645-0.559 0.576-1.056 1.21-1.582 1.808-0.501 0.621-0.964 1.274-1.423 1.921l0.077 0.064c2.038-2.408 4.378-4.573 7.02-6.293 1.319-0.858 2.715-1.605 4.183-2.174 1.458-0.593 2.98-1.029 4.534-1.277 3.1-0.54 6.309-0.402 9.374 0.329 3.059 0.739 6.022 1.966 8.646 3.708z" fill="#fff"/>
    </g>
    <g id="g1052" transform="translate(396.74 38.295)">
     <path id="path1054" d="m0 0s-25.943 4.527 9.148 25.563c37.625 22.554 22.498-6.993 22.498-6.993l7.559-0.013s22.92 55.649 56.456 32.141c33.535-23.509-7.717-54.089-34.64-69.932-26.921-15.844-52.625-38.516-61.021 19.234" fill="#b58afa"/>
    </g>
    <g id="g1056" transform="translate(396.74 38.295)">
     <path id="path1058" d="m0 0s-25.943 4.527 9.148 25.563c37.625 22.554 22.498-6.993 22.498-6.993l7.559-0.013s22.92 55.649 56.456 32.141c33.535-23.509-7.717-54.089-34.64-69.932-26.921-15.844-52.625-38.516-61.021 19.234z" fill="none" stroke="#000" stroke-miterlimit="10"/>
    </g>
    <g id="g1060" transform="translate(396.74 38.295)">
     <path id="path1062" d="m0 0s7.755 0.266 16.796 6.498" fill="none" stroke="#000" stroke-miterlimit="10"/>
    </g>
    <g id="g1064" transform="translate(423.17 51.457)">
     <path id="path1066" d="m0 0s2.225 0.99 5.22 5.408" fill="#fff" stroke="#000" stroke-miterlimit="10"/>
    </g>
    <g id="g1068" transform="translate(435.95 56.852)">
     <path id="path1070" d="m0 0-5.913-18.596" fill="none" stroke="#000" stroke-miterlimit="10"/>
    </g>
    <g id="g1072" transform="translate(435.95 56.852)">
     <path id="path1074" d="m0 0 6.838-14.665" fill="none" stroke="#000" stroke-miterlimit="10"/>
    </g>
    <g id="g1076" transform="translate(467.69 86.297)">
     <path id="path1078" d="m0 0c1.522 0.527 3.123 0.768 4.73 0.942 1.613 0.118 3.242 0.098 4.866-0.067 3.249-0.345 6.428-1.462 9.27-3.143 1.4-0.879 2.692-1.925 3.851-3.091 1.168-1.156 2.238-2.416 3.086-3.813l0.638-1.042 0.57-1.077c0.395-0.709 0.701-1.46 1.027-2.197 0.305-0.747 0.529-1.525 0.794-2.281 0.233-0.767 0.42-1.549 0.605-2.325l-0.095-0.031c-0.993 3.012-2.36 5.91-4.175 8.508-0.907 1.297-1.927 2.519-3.081 3.602-1.135 1.101-2.391 2.081-3.745 2.897-2.686 1.671-5.73 2.75-8.862 3.223-3.129 0.462-6.353 0.434-9.455-0.202z" fill="#fff"/>
    </g>
    <g id="g1080" transform="translate(349.09 253.49)">
     <path id="path1082" d="m0 0c0.824-9.489 1.401-19.027 0.876-28.009 1.577-0.964 3.231-1.87 4.905-2.727 22.375-11.46 44.23-9.211 66.96-6.379 7.968 1.025 16.038 2.097 24.279 2.706 13.682 0.987 9.441 21.937-4.099 20.954-1.608-0.108-3.211-0.276-4.838-0.434-5.663-0.58-11.319-1.447-16.982-2.256-17.629-2.61-35.143-4.837-52.322 2.702-7.558 3.325-13.752 7.933-18.779 13.443"/>
    </g>
    <g id="g1084" transform="translate(472.34 260.49)">
     <path id="path1086" d="m0 0s20.872 9.993 30.789 0.387c8.319-8.058-2.144-15.705-2.144-15.705 17.326-8.965 1.459-22.5 1.459-22.5l0.223-0.223c5.092-5.13 5.008-13.655-0.297-18.565-12.673-11.728-31.698-2.502-31.698-2.502-18.436-17.527-29.889 2.144-29.889 2.144-13.225-7.657-20.753 5.45-20.636 31.87 0.115 26.42 18.641 13.349 18.641 13.349 7.435 30.176 34.689 18.978 33.552 11.745" fill="#fff"/>
    </g>
    <g id="g1088" transform="translate(472.34 260.49)">
     <path id="path1090" d="m0 0s20.872 9.993 30.789 0.387c8.319-8.058-2.144-15.705-2.144-15.705 17.326-8.965 1.459-22.5 1.459-22.5l0.223-0.223c5.092-5.13 5.008-13.655-0.297-18.565-12.673-11.728-31.698-2.502-31.698-2.502-18.436-17.527-29.889 2.144-29.889 2.144-13.225-7.657-20.753 5.45-20.636 31.87 0.115 26.42 18.641 13.349 18.641 13.349 7.435 30.176 34.689 18.978 33.552 11.745z" fill="none" stroke="#000" stroke-miterlimit="10"/>
    </g>
    <g id="g1092" transform="translate(440.58 202.9)">
     <path id="path1094" d="m0 0c-2.472 3.561-3.914 8.822-4.554 15.035" fill="none" stroke="#000" stroke-miterlimit="10"/>
    </g>
    <g id="g1096" transform="translate(437.64 230.43)">
     <path id="path1098" d="m0 0c-1.42 7.873-0.118 12.74 1.47 18.551" fill="none" stroke="#000" stroke-miterlimit="10"/>
    </g>
    <g id="g1100" transform="translate(487.33 205.58)">
     <path id="path1102" d="m0 0s-25.094 3.796-19.577 17.25c4.543 11.081 34.604-0.09 34.604-0.09" fill="#fff" stroke="#000" stroke-miterlimit="10"/>
    </g>
    <g id="g1104" transform="translate(495.47 264.67)">
     <path id="path1106" d="m0 0s-33.56 4.619-19.963-20.509c0 0 13.859 2.023 25.386 1.077 0 0-53.948 5.239-33.146-22.411 0 0 7.726 8.223 27.947 1.959" fill="#fff" stroke="#000" stroke-miterlimit="10"/>
    </g>
    <g id="g1108" transform="translate(453.66 247.45)">
     <path id="path1110" d="m0 0c5.475-4.003 14.938-9.992 21.325-12.405 7.484-2.827 19.584-3.813 17.186 7.654-1.284 6.141-5.89 10.831-9.667 15.516-4.843 6.008-9.763 12.446-17.608 14.513-8.837 2.329-16.478-3.503-20.891-10.709-1.582-2.582-3.424-6.84-4.299-9.737" fill="#fff" stroke="#000" stroke-miterlimit="10"/>
    </g>
    <g id="g1112" transform="translate(494.63 298.98)">
     <path id="path1114" d="m0 0-144.99-60.453 57.984-89.404-105.57 26.16-17.913-156.06-60.453 144.99-96.527-58.17 33.283 105.75-156.06 17.914 144.99 60.453-55.952 95.192 103.54-31.949 17.913 156.06 60.453-144.99 83.806 58.58-20.562-106.16z" fill="#ff64c3"/>
    </g>
    <g id="g1116" transform="translate(494.63 298.98)">
     <path id="path1118" d="m0 0-144.99-60.453 57.984-89.404-105.57 26.16-17.913-156.06-60.453 144.99-96.527-58.17 33.283 105.75-156.06 17.914 144.99 60.453-55.952 95.192 103.54-31.949 17.913 156.06 60.453-144.99 83.806 58.58-20.562-106.16z" fill="none" stroke="#000" stroke-miterlimit="10"/>
    </g>
    <g id="g1120" transform="translate(409.03 242.77)">
     <path id="path1122" d="m0 0-130.86-9.495-0.893 12.307 130.86 9.495z" fill="#fff"/>
    </g>
    <g id="g1124" transform="translate(409.03 242.77)">
     <path id="path1126" d="m0 0-130.86-9.495-0.893 12.307 130.86 9.495z" fill="none" stroke="#000" stroke-miterlimit="10"/>
    </g>
    <g id="g1128" transform="translate(258.97 287.41)">
     <path id="path1130" d="m0 0 4.431-21.314s29.597 10.894 33.134-6.449c2.977-14.594-19.376-19.562-19.376-19.562s23.672 7.745 27.555-10.936c2.945-14.172-31.515-17.567-31.515-17.567" fill="#ff64c3" stroke="#000" stroke-miterlimit="10"/>
    </g>
    <g id="g1132" transform="translate(276.9 293.98)">
     <path id="path1134" d="m0 0c2.053-6.399-3.748-13.983-12.958-16.937-9.21-2.955-18.34-0.163-20.393 6.237s3.748 13.983 12.958 16.938c9.209 2.954 18.34 0.162 20.393-6.238" fill="#ffca42"/>
    </g>
    <g id="g1136" transform="translate(276.9 293.98)">
     <path id="path1138" d="m0 0c2.053-6.399-3.748-13.983-12.958-16.937-9.21-2.955-18.34-0.163-20.393 6.237s3.748 13.983 12.958 16.938c9.209 2.954 18.34 0.162 20.393-6.238z" fill="none" stroke="#000" stroke-miterlimit="10"/>
    </g>
    <g id="g1140" transform="translate(232.5 322.5)">
     <path id="path1142" d="m0 0c6.712-23.512-5.266-47.942-27.082-57.407-1.915-0.851-3.937-1.563-5.995-2.151-25.57-7.299-52.227 7.517-59.536 33.119-7.3 25.569 7.517 52.226 33.087 59.525 2.058 0.588 4.151 1.051 6.228 1.34 23.524 3.479 46.586-10.914 53.298-34.426" fill="#fff"/>
    </g>
    <g id="g1144" transform="translate(232.5 322.5)">
     <path id="path1146" d="m0 0c6.712-23.512-5.266-47.942-27.082-57.407-1.915-0.851-3.937-1.563-5.995-2.151-25.57-7.299-52.227 7.517-59.536 33.119-7.3 25.569 7.517 52.226 33.087 59.525 2.058 0.588 4.151 1.051 6.228 1.34 23.524 3.479 46.586-10.914 53.298-34.426z" fill="none" stroke="#000" stroke-miterlimit="10"/>
    </g>
    <g id="g1148" transform="translate(141.52 247.55)">
     <path id="path1150" d="m0 0c1.854 3.807 2.982 6.253 7.911 11.405 3.898 4.074 7.815 6.924 10.962 8.868" fill="none" stroke="#000" stroke-miterlimit="10"/>
    </g>
    <g id="g1152" transform="translate(166.52 236.45)">
     <path id="path1154" d="m0 0c0.479 3.539 1.362 7.855 3.014 12.605 1.819 5.231 4.053 9.494 6.054 12.739" fill="none" stroke="#000" stroke-miterlimit="10"/>
    </g>
    <g id="g1156" transform="translate(193.3 234.77)">
     <path id="path1158" d="m0 0c-0.898 3.268-1.727 7.29-2.098 11.929-0.43 5.378-0.124 10.068 0.38 13.787" fill="none" stroke="#000" stroke-miterlimit="10"/>
    </g>
    <g id="g1160" transform="translate(179.2 356.93)">
     <path id="path1162" d="m0 0c-3.08-10.019-3.726-22.655-1.576-36.18l34.709-4.02-27.353-21.737c5.314-12.61 12.532-22.995 20.437-29.896 21.815 9.465 33.794 33.895 27.081 57.407-6.712 23.511-29.774 37.905-53.298 34.426"/>
    </g>
    <g id="g1164" transform="translate(179.2 356.93)">
     <path id="path1166" d="m0 0c-3.08-10.019-3.726-22.655-1.576-36.18l34.709-4.02-27.353-21.737c5.314-12.61 12.532-22.995 20.437-29.896 21.815 9.465 33.794 33.895 27.081 57.407-6.712 23.511-29.774 37.905-53.298 34.426z" fill="none" stroke="#000" stroke-miterlimit="10"/>
    </g>
    <g id="g1168" transform="translate(358.8 354.86)">
     <path id="path1170" d="m0 0c6.712-23.512-5.267-47.942-27.082-57.407-1.915-0.851-3.939-1.563-5.996-2.15-25.57-7.3-52.227 7.516-59.535 33.118-7.3 25.569 7.516 52.226 33.086 59.526 2.058 0.587 4.152 1.05 6.228 1.339 23.525 3.479 46.586-10.914 53.299-34.426" fill="#fff"/>
    </g>
    <g id="g1172" transform="translate(358.8 354.86)">
     <path id="path1174" d="m0 0c6.712-23.512-5.267-47.942-27.082-57.407-1.915-0.851-3.939-1.563-5.996-2.15-25.57-7.3-52.227 7.516-59.535 33.118-7.3 25.569 7.516 52.226 33.086 59.526 2.058 0.587 4.152 1.05 6.228 1.339 23.525 3.479 46.586-10.914 53.299-34.426z" fill="none" stroke="#000" stroke-miterlimit="10"/>
    </g>
    <g id="g1176" transform="translate(384.6 318.22)">
     <path id="path1178" d="m0 0c-3.585 2.254-5.834 3.736-12.741 5.509-5.46 1.402-10.292 1.755-13.99 1.745" fill="none" stroke="#000" stroke-miterlimit="10"/>
    </g>
    <g id="g1180" transform="translate(369.23 295.59)">
     <path id="path1182" d="m0 0c-2.276 2.752-5.304 5.953-9.215 9.114-4.306 3.482-8.454 5.923-11.866 7.622" fill="none" stroke="#000" stroke-miterlimit="10"/>
    </g>
    <g id="g1184" transform="translate(347.38 280.03)">
     <path id="path1186" d="m0 0c-0.963 3.249-2.382 7.103-4.517 11.238-2.473 4.795-5.21 8.617-7.6 11.51" fill="none" stroke="#000" stroke-miterlimit="10"/>
    </g>
    <g id="g1188" transform="translate(305.51 389.29)">
     <path id="path1190" d="m0 0c-3.079-10.018-3.726-22.654-1.576-36.179l34.709-4.021-27.354-21.737c5.315-12.61 12.533-22.995 20.438-29.896 21.815 9.465 33.794 33.895 27.082 57.407-6.713 23.512-29.775 37.905-53.299 34.426"/>
    </g>
    <g id="g1192" transform="translate(305.51 389.29)">
     <path id="path1194" d="m0 0c-3.079-10.018-3.726-22.654-1.576-36.179l34.709-4.021-27.354-21.737c5.315-12.61 12.533-22.995 20.438-29.896 21.815 9.465 33.794 33.895 27.082 57.407-6.713 23.512-29.775 37.905-53.299 34.426z" fill="none" stroke="#000" stroke-miterlimit="10"/>
    </g>
    <g id="g1196" transform="translate(227.65 154.72)">
     <path id="path1198" d="m0 0c-0.95-3.19-3.61-5.73-6.95-7.02-2.15-0.83-4.3-1.66-6.46-2.5-16.39-6.31-32.93-12.47-49.95-16.78-5.09-1.29-10.23-2.42-15.42-3.33-5.44-0.96-10.91-1.7-16.4-2.18-5.31-0.48-10.64-0.7-15.98-0.65-8.29 0.08-17.17 0.71-24.49 5.02-8.06 4.74-13.07 13.78-12.32 23.17 0.78 9.77 6.08 18.18 11.44 26.1 10.77 15.94 23.93 28.36 40.18 38.6l29.15-3.35-1.06-3.38c-17.53-9.93-36.16-20.53-48.04-37.06-7.77-10.8-14.02-29.06 5.46-29.96 7.28-0.34 14.69 0.42 22.02 1.71 7.47 1.33 14.87 3.21 21.99 5.08 18.5 4.85 36.37 11.76 54.18 18.64 0.13 0.05 0.25 0.1 0.38 0.15 5.07 1.96 10.98-2.17 12.3-6.98 0.52-1.88 0.47-3.66-0.03-5.28"/>
    </g>
    <g id="g1200" transform="translate(178.84 163.17)">
     <path id="path1202" d="m0 0s-14.181 6.079-13.987-4.731c0.147-8.235 5.455-24.992 7.976-32.508 1.163-3.467 4.026-6.151 7.518-6.589 2.26-0.283 7.343 2.394 9.432 5.115 6.084-2.492 14.751-8.153 28.249-6.015 10.096 1.6 20.357 5.733 28.546 12.126 4.21 3.288 7.759 7.294 9.311 12.635 0.863 2.968 1.198 6.286 0.356 9.311-0.419 1.506-1.145 2.899-2.188 4.037-0.303 0.331-2.505 2.58-2.505 2.58s5.343 15.43-10.187 17.828c0 0 5.362 27.144-23.531 14.527l-11.865-3.183s1.447 28.359-14.179 26.044c-16.323-2.418-6.662-37.878-6.662-37.878-6.844-6.262-6.284-13.299-6.284-13.299l3.445-12.78" fill="#fff" stroke="#000" stroke-miterlimit="10"/>
    </g>
    <g id="g1204" transform="translate(241.1 176.71)">
     <path id="path1206" d="m0 0-10.999-6.178" fill="none" stroke="#000" stroke-miterlimit="10"/>
    </g>
    <g id="g1208" transform="translate(251.54 159.13)">
     <path id="path1210" d="m0 0-11.197-6.025" fill="none" stroke="#000" stroke-miterlimit="10"/>
    </g>
    <g id="g1212" transform="translate(187.44 133.84)">
     <path id="path1214" d="m0 0 2.336-9.376" fill="none" stroke="#000" stroke-miterlimit="10"/>
    </g>
   </g>
  </g>
 </g>
</svg>
