<?xml version="1.0" encoding="UTF-8"?>
<!-- Created with Inkscape (http://www.inkscape.org/) -->
<svg id="svg2" width="682.67" height="682.67" version="1.1" viewBox="0 0 682.67 682.67" xmlns="http://www.w3.org/2000/svg">
 <defs id="defs6">
  <clipPath id="clipPath2270">
   <path id="path2268" d="m0 512h512v-512h-512z"/>
  </clipPath>
 </defs>
 <g id="g2262" transform="matrix(1.3333 0 0 -1.3333 -3.5744e-5 682.67)">
  <g id="g2264">
   <g id="g2266" clip-path="url(#clipPath2270)">
    <g id="g2272" transform="translate(167.33 190.6)">
     <path id="path2274" d="m0 0c-3.714 3.401-10.835 3.684-14.131-0.625-27.892-36.457-48.066-76.786-60.852-120.86-1.507-5.193 2.651-10.801 7.669-11.882 5.599-1.206 10.371 2.462 11.881 7.67 11.742 40.472 30.435 78.08 56.058 111.57 3.28 4.286 3.602 10.26-0.625 14.13"/>
    </g>
    <g id="g2276" transform="translate(167.33 190.6)">
     <path id="path2278" d="m0 0c-3.714 3.401-10.835 3.684-14.131-0.625-27.892-36.457-48.066-76.786-60.852-120.86-1.507-5.193 2.651-10.801 7.669-11.882 5.599-1.206 10.371 2.462 11.881 7.67 11.742 40.472 30.435 78.08 56.058 111.57 3.28 4.286 3.602 10.26-0.625 14.13z" fill="none" stroke="#000" stroke-miterlimit="10"/>
    </g>
    <g id="g2280" transform="translate(128.33 20.747)">
     <path id="path2282" d="m0 0c1.374-19.319-13.153-12.105-13.153-12.105-7.784-8.955-20.567-2.881-20.567-2.881-10.168-7.781-22.359-2.166-22.359-2.166-11.709-7.173-20.523 1.093-20.523 1.093-16.241-7.095-23.833 3.409-23.833 3.409-2.05-0.748-3.992-1.03-5.784-0.999-6.805 0.111-11.714 6.646-10.512 13.345l2.231 12.447 0.565-0.058c0.402-1.123 0.893-2.189 1.482-3.222 5.928-10.428 19.605-12.79 30.702-13.878 10.613-1.031 21.384-0.644 32.022 0.3z" fill="#fff"/>
    </g>
    <g id="g2284" transform="translate(128.33 20.747)">
     <path id="path2286" d="m0 0c1.374-19.319-13.153-12.105-13.153-12.105-7.784-8.955-20.567-2.881-20.567-2.881-10.168-7.781-22.359-2.166-22.359-2.166-11.709-7.173-20.523 1.093-20.523 1.093-16.241-7.095-23.833 3.409-23.833 3.409-2.05-0.748-3.992-1.03-5.784-0.999-6.805 0.111-11.714 6.646-10.512 13.345l2.231 12.447 0.565-0.058c0.402-1.123 0.893-2.189 1.482-3.222 5.928-10.428 19.605-12.79 30.702-13.878 10.613-1.031 21.384-0.644 32.022 0.3z" fill="none" stroke="#000" stroke-miterlimit="10"/>
    </g>
    <g id="g2288" transform="translate(94.35 77.61)">
     <path id="path2290" d="m0 0c-2.223 1.203-9.308 5.036-15.704 1.529-5.208-2.855-8.049-9.531-6.996-16.647-3.872 0.648-15.198 2.206-16.171 2.284-9.579 0.762-20.098 0.747-29.131-3.067-12.442-5.256-16.825-20.87-10.457-32.106 5.905-10.42 19.598-12.775 30.694-13.857 10.617-1.036 21.382-0.649 32.014 0.285l49.729 4.701-1.733 30.904s12.163 7.841 4.616 19.032c-1.652 2.449-4.045 4.407-6.85 5.332-12.634 4.164-21.375-3.062-30.011 1.61" fill="#ff544b"/>
    </g>
    <g id="g2292" transform="translate(94.35 77.61)">
     <path id="path2294" d="m0 0c-2.223 1.203-9.308 5.036-15.704 1.529-5.208-2.855-8.049-9.531-6.996-16.647-3.872 0.648-15.198 2.206-16.171 2.284-9.579 0.762-20.098 0.747-29.131-3.067-12.442-5.256-16.825-20.87-10.457-32.106 5.905-10.42 19.598-12.775 30.694-13.857 10.617-1.036 21.382-0.649 32.014 0.285l49.729 4.701-1.733 30.904s12.163 7.841 4.616 19.032c-1.652 2.449-4.045 4.407-6.85 5.332-12.634 4.164-21.375-3.062-30.011 1.61z" fill="none" stroke="#000" stroke-miterlimit="10"/>
    </g>
    <g id="g2296" transform="translate(71.649 62.492)">
     <path id="path2298" d="m0 0s16.321-5.271 20.262-22.518" fill="none" stroke="#000" stroke-miterlimit="10"/>
    </g>
    <g id="g2300" transform="translate(50.528 64.796)">
     <path id="path2302" d="m0 0s22.15-6.21 25.021-27.476" fill="none" stroke="#000" stroke-miterlimit="10"/>
    </g>
    <g id="g2304" transform="translate(118.59 43.384)">
     <path id="path2306" d="m0 0c1.702-5.116-1.065-10.644-6.183-12.346-5.116-1.702-10.643 1.066-12.345 6.182-1.702 5.117 1.066 10.644 6.182 12.347 5.117 1.702 10.644-1.067 12.346-6.183" fill="#fff"/>
    </g>
    <g id="g2308" transform="translate(118.59 43.384)">
     <path id="path2310" d="m0 0c1.702-5.116-1.065-10.644-6.183-12.346-5.116-1.702-10.643 1.066-12.345 6.182-1.702 5.117 1.066 10.644 6.182 12.347 5.117 1.702 10.644-1.067 12.346-6.183z" fill="none" stroke="#000" stroke-miterlimit="10"/>
    </g>
    <g id="g2312" transform="translate(295.89 190.6)">
     <path id="path2314" d="m0 0c3.714 3.401 10.834 3.684 14.131-0.625 27.892-36.457 48.066-76.786 60.852-120.86 1.507-5.193-2.652-10.801-7.67-11.882-5.598-1.206-10.371 2.462-11.881 7.67-11.741 40.472-30.435 78.08-56.058 111.57-3.279 4.286-3.602 10.26 0.626 14.13"/>
    </g>
    <g id="g2316" transform="translate(295.89 190.6)">
     <path id="path2318" d="m0 0c3.714 3.401 10.834 3.684 14.131-0.625 27.892-36.457 48.066-76.786 60.852-120.86 1.507-5.193-2.652-10.801-7.67-11.882-5.598-1.206-10.371 2.462-11.881 7.67-11.741 40.472-30.435 78.08-56.058 111.57-3.279 4.286-3.602 10.26 0.626 14.13z" fill="none" stroke="#000" stroke-miterlimit="10"/>
    </g>
    <g id="g2320" transform="translate(334.88 20.747)">
     <path id="path2322" d="m0 0c-1.373-19.319 13.154-12.105 13.154-12.105 7.783-8.955 20.566-2.881 20.566-2.881 10.168-7.781 22.36-2.166 22.36-2.166 11.709-7.173 20.523 1.093 20.523 1.093 16.241-7.095 23.832 3.409 23.832 3.409 2.051-0.748 3.992-1.03 5.785-0.999 6.805 0.111 11.714 6.646 10.512 13.345l-2.232 12.447-0.565-0.058c-0.401-1.123-0.892-2.189-1.482-3.222-5.928-10.428-19.605-12.79-30.702-13.878-10.613-1.031-21.383-0.644-32.022 0.3z" fill="#fff"/>
    </g>
    <g id="g2324" transform="translate(334.88 20.747)">
     <path id="path2326" d="m0 0c-1.373-19.319 13.154-12.105 13.154-12.105 7.783-8.955 20.566-2.881 20.566-2.881 10.168-7.781 22.36-2.166 22.36-2.166 11.709-7.173 20.523 1.093 20.523 1.093 16.241-7.095 23.832 3.409 23.832 3.409 2.051-0.748 3.992-1.03 5.785-0.999 6.805 0.111 11.714 6.646 10.512 13.345l-2.232 12.447-0.565-0.058c-0.401-1.123-0.892-2.189-1.482-3.222-5.928-10.428-19.605-12.79-30.702-13.878-10.613-1.031-21.383-0.644-32.022 0.3z" fill="none" stroke="#000" stroke-miterlimit="10"/>
    </g>
    <g id="g2328" transform="translate(368.87 77.61)">
     <path id="path2330" d="m0 0c2.224 1.203 9.309 5.036 15.704 1.529 5.209-2.855 8.05-9.531 6.997-16.647 3.872 0.648 15.198 2.206 16.171 2.284 9.579 0.762 20.097 0.747 29.131-3.067 12.441-5.256 16.825-20.87 10.457-32.106-5.905-10.42-19.599-12.775-30.695-13.857-10.617-1.036-21.381-0.649-32.014 0.285l-49.728 4.701 1.732 30.904s-12.162 7.841-4.615 19.032c1.651 2.449 4.045 4.407 6.85 5.332 12.633 4.164 21.374-3.062 30.01 1.61" fill="#ff544b"/>
    </g>
    <g id="g2332" transform="translate(368.87 77.61)">
     <path id="path2334" d="m0 0c2.224 1.203 9.309 5.036 15.704 1.529 5.209-2.855 8.05-9.531 6.997-16.647 3.872 0.648 15.198 2.206 16.171 2.284 9.579 0.762 20.097 0.747 29.131-3.067 12.441-5.256 16.825-20.87 10.457-32.106-5.905-10.42-19.599-12.775-30.695-13.857-10.617-1.036-21.381-0.649-32.014 0.285l-49.728 4.701 1.732 30.904s-12.162 7.841-4.615 19.032c1.651 2.449 4.045 4.407 6.85 5.332 12.633 4.164 21.374-3.062 30.01 1.61z" fill="none" stroke="#000" stroke-miterlimit="10"/>
    </g>
    <g id="g2336" transform="translate(391.57 62.492)">
     <path id="path2338" d="m0 0s-16.321-5.271-20.263-22.518" fill="none" stroke="#000" stroke-miterlimit="10"/>
    </g>
    <g id="g2340" transform="translate(412.69 64.796)">
     <path id="path2342" d="m0 0s-22.15-6.21-25.021-27.476" fill="none" stroke="#000" stroke-miterlimit="10"/>
    </g>
    <g id="g2344" transform="translate(344.63 43.384)">
     <path id="path2346" d="m0 0c-1.702-5.116 1.065-10.644 6.182-12.346s10.644 1.066 12.346 6.182c1.702 5.117-1.066 10.644-6.182 12.347-5.117 1.702-10.645-1.067-12.346-6.183" fill="#fff"/>
    </g>
    <g id="g2348" transform="translate(344.63 43.384)">
     <path id="path2350" d="m0 0c-1.702-5.116 1.065-10.644 6.182-12.346s10.644 1.066 12.346 6.182c1.702 5.117-1.066 10.644-6.182 12.347-5.117 1.702-10.645-1.067-12.346-6.183z" fill="none" stroke="#000" stroke-miterlimit="10"/>
    </g>
    <g id="g2352" transform="translate(106.13 449.33)">
     <path id="path2354" d="m0 0-10.973-0.163-45.474-281.78s63.314-36.046 172.6-26.366c0 0 82.863-39.065 214.03-25.057l34.87 276.32-21.223 6.874-180.89 4.45z" fill="#b31fce"/>
    </g>
    <g id="g2356" transform="translate(106.13 449.33)">
     <path id="path2358" d="m0 0-10.973-0.163-45.474-281.78s63.314-36.046 172.6-26.366c0 0 82.863-39.065 214.03-25.057l34.87 276.32-21.223 6.874-180.89 4.45z" fill="none" stroke="#000" stroke-miterlimit="10"/>
    </g>
    <g id="g2360" transform="translate(220.93 166.89)">
     <path id="path2362" d="m0 0-9.806-60.196 13.344 10.837 11.247-13.643 9.048 60.286z" fill="#ff64b6"/>
    </g>
    <g id="g2364" transform="translate(220.93 166.89)">
     <path id="path2366" d="m0 0-9.806-60.196 13.344 10.837 11.247-13.643 9.048 60.286z" fill="none" stroke="#000" stroke-miterlimit="10"/>
    </g>
    <g id="g2368" transform="translate(233.64 168.94)">
     <path id="path2370" d="m0 0s-79.642-19.183-170.86 19.202l-0.149-0.518 2.205-13.608s72.371-31.941 167.73-16.787l1.653 11.467c-0.191 0.074-0.393 0.159-0.583 0.244" fill="#fff"/>
    </g>
    <g id="g2372" transform="translate(233.64 168.94)">
     <path id="path2374" d="m0 0s-79.642-19.183-170.86 19.202l-0.149-0.518 2.205-13.608s72.371-31.941 167.73-16.787l1.653 11.467c-0.191 0.074-0.393 0.159-0.583 0.244z" fill="none" stroke="#000" stroke-miterlimit="10"/>
    </g>
    <g id="g2376" transform="translate(461.5 398.21)">
     <path id="path2378" d="m0 0-35.258-269.98s-117.25-12.206-194 28.998l1.661 11.501c80.681-34.103 182.29-26.817 182.29-26.817l36.329 267.44z" fill="#fff"/>
    </g>
    <g id="g2380" transform="translate(461.5 398.21)">
     <path id="path2382" d="m0 0-35.258-269.98s-117.25-12.206-194 28.998l1.661 11.501c80.681-34.103 182.29-26.817 182.29-26.817l36.329 267.44z" fill="none" stroke="#000" stroke-miterlimit="10"/>
    </g>
    <g id="g2384" transform="translate(234.31 168.66)">
     <path id="path2386" d="m0 0c-0.031 0-0.063 0.021-0.084 0.032" fill="none" stroke="#000" stroke-miterlimit="10"/>
    </g>
    <g id="g2388" transform="translate(416.14 141.86)">
     <path id="path2390" d="m0 0 10.252-13.407" fill="none" stroke="#000" stroke-miterlimit="10"/>
    </g>
    <g id="g2392" transform="translate(267.25 404.61)">
     <path id="path2394" d="m0 0s83.071 62.526 185.77 8.412l-36.83-271.11s-101.77-7.403-182.56 27.023c0 0-79.632-19.18-170.85 19.198l43.84 267.51s100.7 11.327 160.63-51.026" fill="#fff"/>
    </g>
    <g id="g2396" transform="translate(267.25 404.61)">
     <path id="path2398" d="m0 0s83.071 62.526 185.77 8.412l-36.83-271.11s-101.77-7.403-182.56 27.023c0 0-79.632-19.18-170.85 19.198l43.84 267.51s100.7 11.327 160.63-51.026z" fill="none" stroke="#000" stroke-miterlimit="10"/>
    </g>
    <g id="g2400" transform="translate(267.25 404.61)">
     <path id="path2402" d="m0 0-33.268-236.02" fill="none" stroke="#000" stroke-miterlimit="10"/>
    </g>
    <g id="g2404" transform="translate(112.38 364.38)">
     <path id="path2406" d="m0 0 125.1-16.044" fill="none" stroke="#000" stroke-miterlimit="10"/>
    </g>
    <g id="g2408" transform="translate(107.09 309.62)">
     <path id="path2410" d="m0 0 125.11-16.044" fill="none" stroke="#000" stroke-miterlimit="10"/>
    </g>
    <g id="g2412" transform="translate(98.213 246.49)">
     <path id="path2414" d="m0 0 125.1-16.044" fill="none" stroke="#000" stroke-miterlimit="10"/>
    </g>
    <g id="g2416" transform="translate(288.54 343.06)">
     <path id="path2418" d="m0 0 125.11-16.044" fill="none" stroke="#000" stroke-miterlimit="10"/>
    </g>
    <g id="g2420" transform="translate(283.25 288.3)">
     <path id="path2422" d="m0 0 125.11-16.044" fill="none" stroke="#000" stroke-miterlimit="10"/>
    </g>
    <g id="g2424" transform="translate(274.37 225.17)">
     <path id="path2426" d="m0 0 125.11-16.044" fill="none" stroke="#000" stroke-miterlimit="10"/>
    </g>
    <g id="g2428" transform="translate(305.72 387.35)">
     <path id="path2430" d="m0 0c10.713 2.872 24.127 3.61 38.352 1.576 2.151-0.296 4.25-0.652 6.295-1.098 10.566-2.066 20.066-5.498 27.714-9.738 4.278 10.245 7.322 22.199 8.633 35.11 0.489 4.989 0.699 9.844 0.627 14.596-0.112 12.647-2.098 24.367-5.575 34.176-5.912 16.803-16.113 28.087-28.674 29.334-0.348 0.036-0.666 0.044-1.012 0.051-15.647 0.849-30.664-14.114-39.642-36.996-0.027-0.031-0.054-0.061-0.052-0.09-3.591-9.25-6.26-19.855-7.497-31.203-0.079-0.581-0.155-1.192-0.203-1.8-1.251-12.042-0.776-23.599 1.034-33.918" fill="#ffe563"/>
    </g>
    <g id="g2432" transform="translate(305.72 387.35)">
     <path id="path2434" d="m0 0c10.713 2.872 24.127 3.61 38.352 1.576 2.151-0.296 4.25-0.652 6.295-1.098 10.566-2.066 20.066-5.498 27.714-9.738 4.278 10.245 7.322 22.199 8.633 35.11 0.489 4.989 0.699 9.844 0.627 14.596-0.112 12.647-2.098 24.367-5.575 34.176-5.912 16.803-16.113 28.087-28.674 29.334-0.348 0.036-0.666 0.044-1.012 0.051-15.647 0.849-30.664-14.114-39.642-36.996-0.027-0.031-0.054-0.061-0.052-0.09-3.591-9.25-6.26-19.855-7.497-31.203-0.079-0.581-0.155-1.192-0.203-1.8-1.251-12.042-0.776-23.599 1.034-33.918z" fill="none" stroke="#000" stroke-miterlimit="10"/>
    </g>
    <g id="g2436" transform="translate(394.1 480.33)">
     <path id="path2438" d="m0 0s-0.468-14.215-12.338-18.362" fill="none" stroke="#000" stroke-miterlimit="10"/>
    </g>
    <g id="g2440" transform="translate(403.97 463.61)">
     <path id="path2442" d="m0 0s-4.269-15.016-17.996-15.212" fill="none" stroke="#000" stroke-miterlimit="10"/>
    </g>
    <g id="g2444" transform="translate(405.63 441.26)">
     <path id="path2446" d="m0 0s-4.519-12.993-18.277-13.467" fill="none" stroke="#000" stroke-miterlimit="10"/>
    </g>
    <g id="g2448" transform="translate(312.38 454.27)">
     <path id="path2450" d="m0 0c-2e-3 0.029 0.025 0.06 0.052 0.09 8.978 22.882 23.995 37.846 39.642 36.996 7.953-8.573 12.611-21.507 11.783-35.684-0.413-7.001-2.156-13.517-4.85-19.266l-19.122 7.88 12.224-18.563c-7.036-8.066-16.544-12.818-26.758-12.221-7.812 0.455-14.867 3.984-20.468 9.565 1.237 11.349 3.906 21.953 7.497 31.203"/>
    </g>
    <g id="g2452" transform="translate(312.38 454.27)">
     <path id="path2454" d="m0 0c-2e-3 0.029 0.025 0.06 0.052 0.09 8.978 22.882 23.995 37.846 39.642 36.996 7.953-8.573 12.611-21.507 11.783-35.684-0.413-7.001-2.156-13.517-4.85-19.266l-19.122 7.88 12.224-18.563c-7.036-8.066-16.544-12.818-26.758-12.221-7.812 0.455-14.867 3.984-20.468 9.565 1.237 11.349 3.906 21.953 7.497 31.203z" fill="none" stroke="#000" stroke-miterlimit="10"/>
    </g>
    <g id="g2456" transform="translate(316.61 454.64)">
     <path id="path2458" d="M 0,0 C 19.019,-6.834 12.032,-8.911 10.679,-31.045 17.611,-9.981 13.661,-6.419 33.858,-7.107 14.84,-0.274 19.745,1.146 21.1,23.279 14.167,2.216 20.197,-0.688 0,0" fill="#fff"/>
    </g>
    <g id="g2460" transform="translate(316.61 454.64)">
     <path id="path2462" d="m0 0c19.019-6.834 12.032-8.911 10.679-31.045 6.932 21.064 2.982 24.626 23.179 23.938-19.018 6.833-14.113 8.253-12.758 30.386-6.933-21.063-0.903-23.967-21.1-23.279z" fill="none" stroke="#000" stroke-miterlimit="10"/>
    </g>
    <g id="g2464" transform="translate(155.22 406.54)">
     <path id="path2466" d="m0 0c0.021-0.128 0.012-0.254 0.067-0.353-7e-3 -0.093 0.017-0.19 0.04-0.287 0.037-0.349 0.104-0.702 0.171-1.053 1.583 0.475 3.192 0.887 4.893 1.259 0.899 0.215 1.831 0.426 2.791 0.604l0.032-2e-3c8.359 1.622 17.834 2.18 27.808 1.436 3.953-0.275 7.795-0.762 11.497-1.428 0.528-0.105 1.027-0.175 1.524-0.277 9.139-1.751 17.345-4.533 24.108-8.023 3.97 9.691 6.921 20.882 8.298 32.919 4.748 40.829-9.739 76.085-32.338 78.755-12.535 1.478-24.927-7.402-34.271-22.512 0 0-2e-3 -0.031-0.033-0.029-1.408-2.287-2.736-4.771-3.979-7.357-0.116-0.274-0.26-0.515-0.377-0.79-0.185-0.364-0.371-0.728-0.557-1.092-0.225-0.456-0.452-0.943-0.679-1.43-0.375-0.76-0.718-1.522-1.031-2.318-0.459-1.037-0.888-2.076-1.286-3.149-0.433-1.102-0.834-2.206-1.203-3.312-1.05-2.948-1.986-6.061-2.806-9.309-0.271-1.053-0.544-2.135-0.786-3.22-0.036-0.06-0.041-0.124-0.046-0.186-0.336-1.489-0.675-3.007-0.954-4.563-0.208-1.056-0.387-2.146-0.567-3.236l-0.378-2.432c-0.048-0.217-0.063-0.405-0.111-0.622-0.183-1.153-0.342-2.371-0.466-3.559-1.423-12.225-1.102-23.953 0.639-34.434" fill="#ffe563"/>
    </g>
    <g id="g2468" transform="translate(155.22 406.54)">
     <path id="path2470" d="m0 0c0.021-0.128 0.012-0.254 0.067-0.353-7e-3 -0.093 0.017-0.19 0.04-0.287 0.037-0.349 0.104-0.702 0.171-1.053 1.583 0.475 3.192 0.887 4.893 1.259 0.899 0.215 1.831 0.426 2.791 0.604l0.032-2e-3c8.359 1.622 17.834 2.18 27.808 1.436 3.953-0.275 7.795-0.762 11.497-1.428 0.528-0.105 1.027-0.175 1.524-0.277 9.139-1.751 17.345-4.533 24.108-8.023 3.97 9.691 6.921 20.882 8.298 32.919 4.748 40.829-9.739 76.085-32.338 78.755-12.535 1.478-24.927-7.402-34.271-22.512 0 0-2e-3 -0.031-0.033-0.029-1.408-2.287-2.736-4.771-3.979-7.357-0.116-0.274-0.26-0.515-0.377-0.79-0.185-0.364-0.371-0.728-0.557-1.092-0.225-0.456-0.452-0.943-0.679-1.43-0.375-0.76-0.718-1.522-1.031-2.318-0.459-1.037-0.888-2.076-1.286-3.149-0.433-1.102-0.834-2.206-1.203-3.312-1.05-2.948-1.986-6.061-2.806-9.309-0.271-1.053-0.544-2.135-0.786-3.22-0.036-0.06-0.041-0.124-0.046-0.186-0.336-1.489-0.675-3.007-0.954-4.563-0.208-1.056-0.387-2.146-0.567-3.236l-0.378-2.432c-0.048-0.217-0.063-0.405-0.111-0.622-0.183-1.153-0.342-2.371-0.466-3.559-1.423-12.225-1.102-23.953 0.639-34.434z" fill="none" stroke="#000" stroke-miterlimit="10"/>
    </g>
    <g id="g2472" transform="translate(161.68 508.14)">
     <path id="path2474" d="m0 0s-2.579-13.987 8.13-20.575" fill="none" stroke="#000" stroke-miterlimit="10"/>
    </g>
    <g id="g2476" transform="translate(148.47 493.92)">
     <path id="path2478" d="m0 0s0.962-15.582 14.331-18.707" fill="none" stroke="#000" stroke-miterlimit="10"/>
    </g>
    <g id="g2480" transform="translate(142.08 472.44)">
     <path id="path2482" d="m0 0s1.639-13.659 14.978-17.062" fill="none" stroke="#000" stroke-miterlimit="10"/>
    </g>
    <g id="g2484" transform="translate(163.57 473.92)">
     <path id="path2486" d="m0 0c-1e-3 0.029 0.027 0.059 0.055 0.088 9.707 22.582 25.195 37.057 40.807 35.707 7.675-8.824 11.914-21.9 10.633-36.043-0.637-6.984-2.588-13.442-5.465-19.102l-18.338 7.577 11.102-18.033c-7.291-7.837-16.948-12.281-27.137-11.356-7.793 0.704-14.731 4.457-20.151 10.215 1.601 11.303 4.608 21.816 8.494 30.947"/>
    </g>
    <g id="g2488" transform="translate(163.57 473.92)">
     <path id="path2490" d="m0 0c-1e-3 0.029 0.027 0.059 0.055 0.088 9.707 22.582 25.195 37.057 40.807 35.707 7.675-8.824 11.914-21.9 10.633-36.043-0.637-6.984-2.588-13.442-5.465-19.102l-18.338 7.577 11.102-18.033c-7.291-7.837-16.948-12.281-27.137-11.356-7.793 0.704-14.731 4.457-20.151 10.215 1.601 11.303 4.608 21.816 8.494 30.947z" fill="none" stroke="#000" stroke-miterlimit="10"/>
    </g>
    <g id="g2492" transform="translate(168.46 476.72)">
     <path id="path2494" d="m0 0c18.644-7.799 11.561-9.516 9.074-31.551 8.003 20.681 4.24 24.441 24.375 22.718-18.642 7.799-13.671 8.965-11.184 31.001-8.003-20.681-2.129-23.891-22.265-22.168" fill="#fff"/>
    </g>
    <g id="g2496" transform="translate(168.46 476.72)">
     <path id="path2498" d="m0 0c18.644-7.799 11.561-9.516 9.074-31.551 8.003 20.681 4.24 24.441 24.375 22.718-18.642 7.799-13.671 8.965-11.184 31.001-8.003-20.681-2.129-23.891-22.265-22.168z" fill="none" stroke="#000" stroke-miterlimit="10"/>
    </g>
    <g id="g2500" transform="translate(279.57 411.64)">
     <path id="path2502" d="m0 0c0.459-8.618-6.154-15.977-14.772-16.436-8.619-0.46-15.977 6.155-16.436 14.772-0.46 8.618 6.154 15.977 14.771 16.436 8.619 0.459 15.977-6.155 16.437-14.772" fill="#00c49f"/>
    </g>
    <g id="g2504" transform="translate(279.57 411.64)">
     <path id="path2506" d="m0 0c0.459-8.618-6.154-15.977-14.772-16.436-8.619-0.46-15.977 6.155-16.436 14.772-0.46 8.618 6.154 15.977 14.771 16.436 8.619 0.459 15.977-6.155 16.437-14.772z" fill="none" stroke="#000" stroke-miterlimit="10"/>
    </g>
    <g id="g2508" transform="translate(275.43 385.02)">
     <path id="path2510" d="m0 0c-15.749 0.863-31.546 1.389-47.336 1.471-13.603 0.071-48.618 5.721-50.195-19.773-0.759-12.273 8.71-22.313 16.327-28.761 20.26-17.149 46.412-24.659 72.667-22.102 21.658 2.109 46.741 9.997 62.456 29.572 8.023 9.993 11.734 24.691 0.772 31.603-7.882 4.97-18.026 5.441-27.091 6.147-9.176 0.716-18.38 1.337-27.6 1.843" fill="#ff544b"/>
    </g>
    <g id="g2512" transform="translate(275.43 385.02)">
     <path id="path2514" d="m0 0c-15.749 0.863-31.546 1.389-47.336 1.471-13.603 0.071-48.618 5.721-50.195-19.773-0.759-12.273 8.71-22.313 16.327-28.761 20.26-17.149 46.412-24.659 72.667-22.102 21.658 2.109 46.741 9.997 62.456 29.572 8.023 9.993 11.734 24.691 0.772 31.603-7.882 4.97-18.026 5.441-27.091 6.147-9.176 0.716-18.38 1.337-27.6 1.843z" fill="none" stroke="#000" stroke-miterlimit="10"/>
    </g>
    <g id="g2516" transform="translate(268.79 376.64)">
     <path id="path2518" d="m0 0c-12.445 0.576-24.909 0.919-37.343 0.954-10.711 0.029-38.595 3.9-38.373-13.785 0.107-8.513 8.136-15.463 14.5-19.924 16.932-11.866 37.947-17.038 58.466-15.227 16.926 1.493 36.216 6.999 47.462 20.597 5.742 6.943 7.819 17.142-1.205 21.92-6.49 3.437-14.501 3.748-21.678 4.226-7.263 0.483-14.542 0.901-21.829 1.239" fill="#fff"/>
    </g>
    <g id="g2520" transform="translate(268.79 376.64)">
     <path id="path2522" d="m0 0c-12.445 0.576-24.909 0.919-37.343 0.954-10.711 0.029-38.595 3.9-38.373-13.785 0.107-8.513 8.136-15.463 14.5-19.924 16.932-11.866 37.947-17.038 58.466-15.227 16.926 1.493 36.216 6.999 47.462 20.597 5.742 6.943 7.819 17.142-1.205 21.92-6.49 3.437-14.501 3.748-21.678 4.226-7.263 0.483-14.542 0.901-21.829 1.239z" fill="none" stroke="#000" stroke-miterlimit="10"/>
    </g>
    <g id="g2524" transform="translate(220.99 377.94)">
     <path id="path2526" d="m0 0c-2.121-3.76-4.689-9.312-6.135-16.412-1.918-9.419-1.001-17.34-0.052-22.16" fill="none" stroke="#000" stroke-miterlimit="10"/>
    </g>
    <g id="g2528" transform="translate(248.14 377.04)">
     <path id="path2530" d="m0 0c-1.545-5.896-2.936-12.665-3.836-20.2-1.236-10.351-1.245-19.615-0.748-27.375" fill="none" stroke="#000" stroke-miterlimit="10"/>
    </g>
    <g id="g2532" transform="translate(271.29 376.52)">
     <path id="path2534" d="m0 0c2.096-4.909 4.527-12.144 5.354-21.171 1.01-11.012-0.796-20.019-2.399-25.656" fill="none" stroke="#000" stroke-miterlimit="10"/>
    </g>
    <g id="g2536" transform="translate(294.94 375.11)">
     <path id="path2538" d="m0 0c2.037-3.317 4.896-8.917 6.14-16.402 1.522-9.175-0.138-16.649-1.328-20.619" fill="none" stroke="#000" stroke-miterlimit="10"/>
    </g>
    <g id="g2540" transform="translate(89.56 351.51)">
     <path id="path2542" d="m0 0-5.11-31.16c-17.521-12.779-38.62-20.3-57.111-4.64-16.719 14.16-15.229 35.5-14.229 55.3 0.59 11.54 2.519 22.69 5.079 33.71 0.77 3.33 1.6 6.641 2.471 9.95 0.08 0.33 0.17 0.67 0.259 1.01 2.3 8.7 4.84 17.37 7.27 26.15 0.16 0.58 0.35 1.12 0.58 1.62 0.73 1.64 1.791 2.88 3.03 3.75 2.5 1.77 5.761 2.09 8.691 1.26 2.5-0.71 4.759-2.25 6.099-4.45 0.441-0.71 0.781-1.479 0.991-2.319 0.019-0.061 0.04-0.131 0.049-0.191 0.361-1.49 0.351-3.16-0.16-4.99-3.28-11.89-7.05-23.66-9.97-35.649-0.129-0.561-0.269-1.111-0.389-1.67-2.421-10.5-3.54-20.851-4.191-31.62-0.49-8.221-1.509-16.931 0.451-25.031 0.86-3.53 2.219-6.74 4.7-9.429 0.949-1.04 1.949-2.031 3.019-2.931 0.12-0.1 0.221-0.19 0.311-0.25 0.029-0.02 0.05-0.05 0.08-0.06 0.25-0.219 0.39-0.339 0.459-0.389-0.09 0.09-0.3 0.269-0.459 0.389 0.619-0.42 1.26-0.82 1.909-1.19 0.46-0.26 0.931-0.51 1.4-0.75 0.271-0.1 0.861-0.33 1.111-0.399 0.43-0.101 3.069-0.621 2.72-0.661 0.899-0.07 1.799-0.1 2.7-0.08 0.49 0.01 2.67 0.321 2.38 0.23 5.929 1.16 8.599 2.57 13.86 5.82 7.93 4.9 15.18 11.5 22 18.67"/>
    </g>
    <g id="g2544" transform="translate(42.394 467.18)">
     <path id="path2546" d="m0 0s4.092 48.488 19.056 43.471c11.596-3.889 0.478-49.483 0.478-49.483s24.864-19.634-3.638-44.842c0 0-0.782-10.785-4.082-13.601-3.101-2.648-24.437-7.656-37.066 2.805-1.481 1.226-2.214 3.141-2.026 5.055l0.717 7.312s-13.022 4.009-10.893 18.447c0 0-15.624 32.832 11.749 32.835 0.33 1.49 1.356 5.16 4.67 8.108 0.699 0.623 6.356 5.499 12.717 3.374 5.084-1.699 8.614-7.204 8.318-13.481" fill="#fff"/>
    </g>
    <g id="g2548" transform="translate(42.394 467.18)">
     <path id="path2550" d="m0 0s4.092 48.488 19.056 43.471c11.596-3.889 0.478-49.483 0.478-49.483s24.864-19.634-3.638-44.842c0 0-0.782-10.785-4.082-13.601-3.101-2.648-24.437-7.656-37.066 2.805-1.481 1.226-2.214 3.141-2.026 5.055l0.717 7.312s-13.022 4.009-10.893 18.447c0 0-15.624 32.832 11.749 32.835 0.33 1.49 1.356 5.16 4.67 8.108 0.699 0.623 6.356 5.499 12.717 3.374 5.084-1.699 8.614-7.204 8.318-13.481z" fill="none" stroke="#000" stroke-miterlimit="10"/>
    </g>
    <g id="g2552" transform="translate(16.688 469.18)">
     <path id="path2554" d="m0 0c-0.772-6.692-0.462-14.889 3.425-20.621 2.099-3.098 5.582-4.969 9.318-5.178 4.659-0.26 9.19 0.844 11.214 5.384 2.89 6.477 2.32 15.074 1.313 21.915" fill="#fff" stroke="#000" stroke-miterlimit="10"/>
    </g>
    <g id="g2556" transform="translate(4.3721 437.72)">
     <path id="path2558" d="m0 0c0.636-0.692 3.365-2.95 6.694-3.585 0.825-0.158 3.648-0.597 6.523 0.79 5.472 2.641 6.029 9.438 6.049 9.741" fill="#fff" stroke="#000" stroke-miterlimit="10"/>
    </g>
    <g id="g2560" transform="translate(61.928 461.17)">
     <path id="path2562" d="m0 0c-3.836 1.557-7.838 2.778-11.871 3.704-8.186 1.879-22.078 5.004-25.255-5.596-3.115-10.394 12.745-15.247 23.844-17.847 0 0-15.696 2.086-18.154-15.434" fill="#fff" stroke="#000" stroke-miterlimit="10"/>
    </g>
    <g id="g2564" transform="translate(15.833 417.9)">
     <path id="path2566" d="m0 0s1.615-3.332 10.551-4.612" fill="#fff" stroke="#000" stroke-miterlimit="10"/>
    </g>
    <g id="g2568" transform="translate(43.974 411.92)">
     <path id="path2570" d="m0 0s6.205-0.604 14.315 4.41" fill="#fff" stroke="#000" stroke-miterlimit="10"/>
    </g>
    <g id="g2572" transform="translate(498.57 280.85)">
     <path id="path2574" d="m0 0c-13.687 21.63-34.956 36.964-56.992 50.035-0.935-6.795-2.123-15.882-2.463-19.449 13.676-8.633 27.063-18.773 37.367-31.145 12.456-14.937 28.434-48.795 5.189-61.55-17.078-9.396-41.228-5.586-59.466-2.255-7.496 1.377-15.052 3.03-22.525 5.161-4.09 1.107-8.148 2.363-12.174 3.77-0.311 0.094-0.635 0.217-0.919 0.325-2.27 0.788-4.497 1.63-6.709 2.513-3.441 1.37-6.836 2.863-10.186 4.476-10.684 5.128-16.931-12.135-6.354-17.244 1.372-0.658 2.732-1.288 4.104-1.947 8.419-3.76 17.214-6.878 26.201-9.466 12.644-3.623 25.637-6.106 38.329-7.711 21.93-2.761 49.915-3.6 67.333 12.378 20.287 18.641 12.243 51.558-0.735 72.109"/>
    </g>
    <g id="g2576" transform="translate(320.37 206.69)">
     <path id="path2578" d="m0 0c6.703-5.712 16.932-9.615 24.988-11.064 22.961-4.133 31.15 4.574 31.15 4.574s2.793-12.38 12.056-7.286c7.324 4.028 11.413 14.272 14.194 21.637 2.092 5.545 5.008 11.843 4.265 17.922-0.812 6.653-7.201 9.22-12.398 4.784-0.066 0.348-0.157 0.686-0.213 1.006-8.823 38.152-39.021 25.749-39.021 25.749s-37.706 27.096-47.213 18.462c-10.697-9.748 21.424-27.833 29.757-32.282-5.063 2.206-10.289 0.734-13.996-2.628-1.127-1.03-1.96-2.107-2.556-3.16-3.055-5.321-1.151-12.394 4.039-15.7 0.494-0.346 0.974-0.573 1.362-0.71-2.602 0.413-6.006-0.66-8.04-2.158-5.174-3.808-5.054-11.183-1.383-16 0.873-1.147 1.887-2.191 3.009-3.146" fill="#fff"/>
    </g>
    <g id="g2580" transform="translate(320.37 206.69)">
     <path id="path2582" d="m0 0c6.703-5.712 16.932-9.615 24.988-11.064 22.961-4.133 31.15 4.574 31.15 4.574s2.793-12.38 12.056-7.286c7.324 4.028 11.413 14.272 14.194 21.637 2.092 5.545 5.008 11.843 4.265 17.922-0.812 6.653-7.201 9.22-12.398 4.784-0.066 0.348-0.157 0.686-0.213 1.006-8.823 38.152-39.021 25.749-39.021 25.749s-37.706 27.096-47.213 18.462c-10.697-9.748 21.424-27.833 29.757-32.282-5.063 2.206-10.289 0.734-13.996-2.628-1.127-1.03-1.96-2.107-2.556-3.16-3.055-5.321-1.151-12.394 4.039-15.7 0.494-0.346 0.974-0.573 1.362-0.71-2.602 0.413-6.006-0.66-8.04-2.158-5.174-3.808-5.054-11.183-1.383-16 0.873-1.147 1.887-2.191 3.009-3.146z" fill="none" stroke="#000" stroke-miterlimit="10"/>
    </g>
    <g id="g2584" transform="translate(375.81 199.44)">
     <path id="path2586" d="m0 0s3.272 2.014 8.648 10.707" fill="#fff" stroke="#000" stroke-miterlimit="10"/>
    </g>
    <g id="g2588" transform="translate(391.32 221.78)">
     <path id="path2590" d="m0 0s3.735 5.394 3.297 15.476" fill="#fff" stroke="#000" stroke-miterlimit="10"/>
    </g>
    <g id="g2592" transform="translate(337.28 250.4)">
     <path id="path2594" d="m0 0 7.743-4.404" fill="none" stroke="#000" stroke-miterlimit="10"/>
    </g>
    <g id="g2596" transform="translate(326.38 228.23)">
     <path id="path2598" d="m0 0 8.05-3.862" fill="none" stroke="#000" stroke-miterlimit="10"/>
    </g>
    <g id="g2600" transform="translate(355.34 264.01)">
     <path id="path2602" d="m0 0 13.598-8.238" fill="none" stroke="#000" stroke-miterlimit="10"/>
    </g>
   </g>
  </g>
 </g>
</svg>
